<svg width="21" height="20" viewBox="0 0 21 20" fill="none" xmlns="http://www.w3.org/2000/svg">
<path fill-rule="evenodd" clip-rule="evenodd" d="M2.80951 15.1547C2.58866 15.3861 2.46973 15.6567 2.46973 16.0188C2.46973 16.3791 2.58865 16.647 2.80966 16.8761C3.04857 17.1238 3.43433 17.3518 3.99483 17.5392C5.12343 17.9166 6.73231 18.0568 8.56173 18.0568C10.3998 18.0568 12.0079 17.9115 13.1331 17.5299C13.6917 17.3404 14.0761 17.1106 14.3142 16.8614C14.5349 16.6304 14.6537 16.3604 14.6537 15.9988C14.6537 15.6388 14.5348 15.3706 14.3135 15.141C14.0743 14.8929 13.6883 14.6644 13.1277 14.4765C11.999 14.0981 10.3902 13.9568 8.56173 13.9568C6.72334 13.9568 5.11539 14.1027 3.99048 14.4851C3.43195 14.675 3.04766 14.9052 2.80951 15.1547ZM3.50773 13.0649C4.87606 12.5998 6.68912 12.4568 8.56173 12.4568C10.4222 12.4568 12.2344 12.5949 13.6045 13.0543C14.2933 13.2852 14.9261 13.6152 15.3934 14.0999C15.8785 14.6032 16.1537 15.2423 16.1537 15.9988C16.1537 16.7536 15.8811 17.3929 15.3986 17.8977C14.9335 18.3844 14.303 18.717 13.6149 18.9504C12.2466 19.4145 10.4336 19.5568 8.56173 19.5568C6.70115 19.5568 4.88902 19.4199 3.51912 18.9618C2.83037 18.7315 2.19751 18.4021 1.7301 17.9176C1.24481 17.4145 0.969727 16.7754 0.969727 16.0188C0.969727 15.2639 1.24217 14.6244 1.72435 14.1191C2.18923 13.632 2.81963 13.2988 3.50773 13.0649Z" fill="black"/>
<path fill-rule="evenodd" clip-rule="evenodd" d="M8.56173 1.99976C6.55372 1.99976 4.92573 3.62719 4.92573 5.63476C4.92573 7.64232 6.55372 9.26976 8.56173 9.26976H8.59115C10.5897 9.26164 12.2042 7.63558 12.1967 5.63755L12.1967 5.63476C12.1967 3.62708 10.5686 1.99976 8.56173 1.99976ZM3.42573 5.63476C3.42573 2.79832 5.72574 0.499756 8.56173 0.499756C11.3963 0.499756 13.6959 2.7976 13.6967 5.63322C13.7066 8.46021 11.422 10.7592 8.59552 10.7698L8.59273 10.7698H8.56173C5.72574 10.7698 3.42573 8.47119 3.42573 5.63476Z" fill="black"/>
<path fill-rule="evenodd" clip-rule="evenodd" d="M14.7882 2.24217C14.8553 1.83342 15.241 1.55641 15.6497 1.62344C17.5733 1.93893 19.0403 3.60722 19.0403 5.61956L19.0403 5.62091C19.0366 7.66255 17.5232 9.34803 15.5577 9.62426C15.1475 9.6819 14.7683 9.39612 14.7106 8.98593C14.653 8.57575 14.9388 8.1965 15.3489 8.13885C16.5852 7.96511 17.5377 6.90293 17.5403 5.61887C17.54 4.35351 16.6171 3.30215 15.4069 3.10367C14.9982 3.03663 14.7212 2.65092 14.7882 2.24217Z" fill="black"/>
<path fill-rule="evenodd" clip-rule="evenodd" d="M16.8238 12.6217C16.8848 12.212 17.2664 11.9293 17.6761 11.9903C18.4923 12.1119 19.277 12.3264 19.8757 12.7192C20.5121 13.1368 20.9496 13.7705 20.9496 14.6272C20.9496 15.1957 20.7552 15.6902 20.4033 16.0879C20.0654 16.4698 19.6121 16.7299 19.132 16.9123C18.7447 17.0594 18.3116 16.8647 18.1645 16.4775C18.0174 16.0903 18.2121 15.6571 18.5993 15.51C18.9432 15.3794 19.1569 15.233 19.2799 15.0939C19.3891 14.9706 19.4496 14.8296 19.4496 14.6272C19.4496 14.3638 19.3457 14.1655 19.0528 13.9733C18.7222 13.7564 18.19 13.5834 17.4551 13.474C17.0454 13.413 16.7628 13.0314 16.8238 12.6217Z" fill="black"/>
</svg>
