<svg width="14" height="18" viewBox="0 0 14 18" fill="none" xmlns="http://www.w3.org/2000/svg">
<mask id="path-1-inside-1_730_4228" fill="white">
<path fill-rule="evenodd" clip-rule="evenodd" d="M3.94883 0.666504C3.5744 0.666504 3.27086 0.981796 3.27086 1.37073C3.27086 1.75966 3.5744 2.07495 3.94883 2.07495H10.2765C11.3998 2.07495 12.3104 3.02083 12.3104 4.18763V13.5773C12.3104 13.9662 12.6139 14.2815 12.9884 14.2815C13.3628 14.2815 13.6663 13.9662 13.6663 13.5773V4.18763C13.6663 2.24297 12.1487 0.666504 10.2765 0.666504H3.94883ZM3.04487 4.65711H8.4686C9.21746 4.65711 9.82453 5.2877 9.82453 6.06557V14.5163C9.82453 15.2941 9.21746 15.9247 8.4686 15.9247H3.04487C2.29601 15.9247 1.68894 15.2941 1.68894 14.5163V6.06557C1.68894 5.2877 2.29601 4.65711 3.04487 4.65711ZM0.333008 6.06557C0.333008 4.50983 1.54715 3.24866 3.04487 3.24866H8.4686C9.96632 3.24866 11.1805 4.50983 11.1805 6.06557V14.5163C11.1805 16.072 9.96632 17.3332 8.4686 17.3332H3.04487C1.54715 17.3332 0.333008 16.072 0.333008 14.5163V6.06557Z"/>
<path fill-rule="evenodd" clip-rule="evenodd" d="M3.44349 1.84021C3.33614 1.71562 3.27086 1.55109 3.27086 1.37073C3.27086 0.981796 3.5744 0.666504 3.94883 0.666504H10.2765C12.1487 0.666504 13.6663 2.24297 13.6663 4.18763V13.5773C13.6663 13.9662 13.3628 14.2815 12.9884 14.2815C12.8147 14.2815 12.6563 14.2137 12.5364 14.1022C12.3977 13.9733 12.3104 13.7859 12.3104 13.5773V4.18763C12.3104 3.02083 11.3998 2.07495 10.2765 2.07495H3.94883C3.74804 2.07495 3.56763 1.98429 3.44349 1.84021ZM11.1803 14.5458C11.1804 14.536 11.1805 14.5261 11.1805 14.5163V6.06557C11.1805 5.66463 11.0998 5.28326 10.9545 4.938C10.6812 4.28882 10.1791 3.76729 9.55412 3.48341C9.22173 3.33243 8.85458 3.24866 8.4686 3.24866H3.04487C3.03537 3.24866 3.02589 3.24871 3.01641 3.24882C1.5318 3.26467 0.333008 4.5197 0.333008 6.06557V14.5163C0.333008 16.072 1.54715 17.3332 3.04487 17.3332H8.4686C9.95682 17.3332 11.1651 16.0879 11.1803 14.5458ZM3.04487 4.65711C2.29601 4.65711 1.68894 5.2877 1.68894 6.06557V14.5163C1.68894 15.2941 2.29601 15.9247 3.04487 15.9247H8.4686C9.21746 15.9247 9.82453 15.2941 9.82453 14.5163V6.06557C9.82453 5.2877 9.21746 4.65711 8.4686 4.65711H3.04487Z"/>
</mask>
<path fill-rule="evenodd" clip-rule="evenodd" d="M3.94883 0.666504C3.5744 0.666504 3.27086 0.981796 3.27086 1.37073C3.27086 1.75966 3.5744 2.07495 3.94883 2.07495H10.2765C11.3998 2.07495 12.3104 3.02083 12.3104 4.18763V13.5773C12.3104 13.9662 12.6139 14.2815 12.9884 14.2815C13.3628 14.2815 13.6663 13.9662 13.6663 13.5773V4.18763C13.6663 2.24297 12.1487 0.666504 10.2765 0.666504H3.94883ZM3.04487 4.65711H8.4686C9.21746 4.65711 9.82453 5.2877 9.82453 6.06557V14.5163C9.82453 15.2941 9.21746 15.9247 8.4686 15.9247H3.04487C2.29601 15.9247 1.68894 15.2941 1.68894 14.5163V6.06557C1.68894 5.2877 2.29601 4.65711 3.04487 4.65711ZM0.333008 6.06557C0.333008 4.50983 1.54715 3.24866 3.04487 3.24866H8.4686C9.96632 3.24866 11.1805 4.50983 11.1805 6.06557V14.5163C11.1805 16.072 9.96632 17.3332 8.4686 17.3332H3.04487C1.54715 17.3332 0.333008 16.072 0.333008 14.5163V6.06557Z" fill="#5A5D72"/>
<path fill-rule="evenodd" clip-rule="evenodd" d="M3.44349 1.84021C3.33614 1.71562 3.27086 1.55109 3.27086 1.37073C3.27086 0.981796 3.5744 0.666504 3.94883 0.666504H10.2765C12.1487 0.666504 13.6663 2.24297 13.6663 4.18763V13.5773C13.6663 13.9662 13.3628 14.2815 12.9884 14.2815C12.8147 14.2815 12.6563 14.2137 12.5364 14.1022C12.3977 13.9733 12.3104 13.7859 12.3104 13.5773V4.18763C12.3104 3.02083 11.3998 2.07495 10.2765 2.07495H3.94883C3.74804 2.07495 3.56763 1.98429 3.44349 1.84021ZM11.1803 14.5458C11.1804 14.536 11.1805 14.5261 11.1805 14.5163V6.06557C11.1805 5.66463 11.0998 5.28326 10.9545 4.938C10.6812 4.28882 10.1791 3.76729 9.55412 3.48341C9.22173 3.33243 8.85458 3.24866 8.4686 3.24866H3.04487C3.03537 3.24866 3.02589 3.24871 3.01641 3.24882C1.5318 3.26467 0.333008 4.5197 0.333008 6.06557V14.5163C0.333008 16.072 1.54715 17.3332 3.04487 17.3332H8.4686C9.95682 17.3332 11.1651 16.0879 11.1803 14.5458ZM3.04487 4.65711C2.29601 4.65711 1.68894 5.2877 1.68894 6.06557V14.5163C1.68894 15.2941 2.29601 15.9247 3.04487 15.9247H8.4686C9.21746 15.9247 9.82453 15.2941 9.82453 14.5163V6.06557C9.82453 5.2877 9.21746 4.65711 8.4686 4.65711H3.04487Z" fill="#5A5D72"/>
<path d="M3.94883 -0.0834961C3.13358 -0.0834961 2.52086 0.594701 2.52086 1.37073H4.02086C4.02086 1.37399 4.01897 1.38335 4.00974 1.39293C4.00003 1.40301 3.97807 1.4165 3.94883 1.4165V-0.0834961ZM3.94883 2.82495H10.2765V1.32495H3.94883V2.82495ZM10.2765 2.82495C10.959 2.82495 11.5604 3.40793 11.5604 4.18763H13.0604C13.0604 2.63374 11.8406 1.32495 10.2765 1.32495V2.82495ZM11.5604 4.18763V13.5773H13.0604V4.18763H11.5604ZM12.9884 15.0315C13.8036 15.0315 14.4163 14.3533 14.4163 13.5773H12.9163C12.9163 13.574 12.9182 13.5647 12.9275 13.5551C12.9372 13.545 12.9591 13.5315 12.9884 13.5315V15.0315ZM14.4163 13.5773V4.18763H12.9163V13.5773H14.4163ZM14.4163 4.18763C14.4163 1.85587 12.5895 -0.0834961 10.2765 -0.0834961V1.4165C11.7078 1.4165 12.9163 2.63006 12.9163 4.18763H14.4163ZM10.2765 -0.0834961H3.94883V1.4165H10.2765V-0.0834961ZM3.04487 5.40711H8.4686V3.90711H3.04487V5.40711ZM8.4686 5.40711C8.77664 5.40711 9.07453 5.6748 9.07453 6.06557H10.5745C10.5745 4.9006 9.65828 3.90711 8.4686 3.90711V5.40711ZM9.07453 6.06557V14.5163H10.5745V6.06557H9.07453ZM9.07453 14.5163C9.07453 14.907 8.77664 15.1747 8.4686 15.1747V16.6747C9.65828 16.6747 10.5745 15.6812 10.5745 14.5163H9.07453ZM8.4686 15.1747H3.04487V16.6747H8.4686V15.1747ZM3.04487 15.1747C2.73683 15.1747 2.43894 14.907 2.43894 14.5163H0.93894C0.93894 15.6812 1.85519 16.6747 3.04487 16.6747V15.1747ZM2.43894 14.5163V6.06557H0.93894V14.5163H2.43894ZM2.43894 6.06557C2.43894 5.6748 2.73683 5.40711 3.04487 5.40711V3.90711C1.85519 3.90711 0.93894 4.9006 0.93894 6.06557H2.43894ZM3.04487 3.99866H8.4686V2.49866H3.04487V3.99866ZM10.4305 6.06557V14.5163H11.9305V6.06557H10.4305ZM8.4686 16.5832H3.04487V18.0832H8.4686V16.5832ZM3.04487 16.5832C1.98797 16.5832 1.08301 15.6849 1.08301 14.5163H-0.416992C-0.416992 16.4591 1.10633 18.0832 3.04487 18.0832V16.5832ZM1.08301 14.5163V6.06557H-0.416992V14.5163H1.08301ZM3.44349 1.84021L2.30714 2.81935H2.30714L3.44349 1.84021ZM12.5364 14.1022L13.5577 13.0036L13.5577 13.0036L12.5364 14.1022ZM11.1803 14.5458L12.6802 14.5607V14.5607L11.1803 14.5458ZM10.9545 4.938L9.57199 5.52001V5.52001L10.9545 4.938ZM9.55412 3.48341L8.93377 4.84912L8.93377 4.84912L9.55412 3.48341ZM3.01641 3.24882L3.00039 1.7489L3.00039 1.7489L3.01641 3.24882ZM1.77086 1.37073C1.77086 2.53385 2.69275 3.57495 3.94883 3.57495V0.574955C4.45604 0.574955 4.77086 0.985471 4.77086 1.37073H1.77086ZM10.8104 13.5773C10.8104 14.7404 11.7323 15.7815 12.9884 15.7815V12.7815C13.4956 12.7815 13.8104 13.192 13.8104 13.5773H10.8104ZM1.83301 6.06557C1.83301 5.28402 2.42879 4.74866 3.04487 4.74866V1.74866C0.665509 1.74866 -1.16699 3.73564 -1.16699 6.06557H1.83301ZM8.4686 4.74866C9.08468 4.74866 9.68047 5.28403 9.68047 6.06557H12.6805C12.6805 3.73564 10.848 1.74866 8.4686 1.74866V4.74866ZM9.68047 14.5163C9.68047 15.2978 9.08468 15.8332 8.4686 15.8332V18.8332C10.848 18.8332 12.6805 16.8462 12.6805 14.5163H9.68047ZM1.77086 1.37073C1.77086 1.91767 1.96991 2.42797 2.30714 2.81935L4.57984 0.861077C4.70237 1.00328 4.77086 1.18452 4.77086 1.37073H1.77086ZM11.5151 15.2008C11.8962 15.5552 12.4141 15.7815 12.9884 15.7815V12.7815C13.2153 12.7815 13.4164 12.8723 13.5577 13.0036L11.5151 15.2008ZM10.8104 13.5773C10.8104 14.2101 11.0766 14.7932 11.5151 15.2008L13.5577 13.0036C13.7188 13.1533 13.8104 13.3616 13.8104 13.5773H10.8104ZM2.30714 2.81935C2.69688 3.27166 3.2827 3.57495 3.94883 3.57495V0.574955C4.21337 0.574955 4.43839 0.696911 4.57984 0.861077L2.30714 2.81935ZM12.6802 14.5607C12.6804 14.5462 12.6805 14.5314 12.6805 14.5163H9.68047C9.68047 14.5209 9.68044 14.5258 9.68039 14.531L12.6802 14.5607ZM12.6805 6.06557C12.6805 5.4622 12.5589 4.88314 12.337 4.356L9.57199 5.52001C9.64077 5.68338 9.68047 5.86706 9.68047 6.06557H12.6805ZM12.337 4.356C11.9215 3.36906 11.1528 2.5621 10.1745 2.11769L8.93377 4.84912C9.20537 4.97248 9.44088 5.20857 9.57199 5.52001L12.337 4.356ZM10.1745 2.11769C9.65222 1.88048 9.07398 1.74866 8.4686 1.74866V4.74866C8.63519 4.74866 8.79124 4.78438 8.93377 4.84912L10.1745 2.11769ZM3.04487 1.74866C3.03002 1.74866 3.0152 1.74874 3.00039 1.7489L3.03243 4.74873C3.03657 4.74869 3.04072 4.74866 3.04487 4.74866V1.74866ZM3.00039 1.7489C0.642118 1.77409 -1.16699 3.75003 -1.16699 6.06557H1.83301C1.83301 5.28937 2.42148 4.75526 3.03243 4.74873L3.00039 1.7489ZM8.4686 18.8332C10.8327 18.8332 12.6574 16.8711 12.6802 14.5607L9.68039 14.531C9.67273 15.3048 9.08092 15.8332 8.4686 15.8332V18.8332Z" fill="#5A5D72" mask="url(#path-1-inside-1_730_4228)"/>
</svg>
