<svg width="16" height="16" viewBox="0 0 16 16" fill="none" xmlns="http://www.w3.org/2000/svg">
<path d="M7.9998 0.800049C4.02341 0.800049 0.799805 4.02366 0.799805 8.00005C0.799805 11.977 4.0237 15.2 8.00009 15.2C11.9768 15.2 15.1998 11.977 15.1998 8.00005C15.1998 4.02366 11.9768 0.800049 7.9998 0.800049ZM8.30433 3.64812C8.82701 3.64812 9.25056 4.07195 9.25056 4.59464C9.25056 5.11732 8.82701 5.54115 8.30433 5.54115C7.78164 5.54115 7.35781 5.11732 7.35781 4.59464C7.35781 4.07195 7.78164 3.64812 8.30433 3.64812ZM9.15284 12.0225C9.15284 12.0225 8.40716 12.6477 7.46774 12.1761C7.25924 12.0719 7.08312 11.8909 6.97062 11.6918C6.65162 11.1276 6.77433 10.5223 6.77433 10.5223L6.86808 9.78002L7.11152 7.84438L6.44851 7.85887C6.13802 7.86597 5.88179 7.61968 5.87497 7.30948C5.86957 7.06859 6.01871 6.85951 6.23063 6.77515L7.92964 6.10616C8.33415 5.9468 8.79093 6.14565 8.95001 6.55016C9.0108 6.70384 9.01961 6.86406 8.98495 7.01348L8.96251 7.11432L8.29808 10.032L8.13218 10.7615C8.10775 10.8714 8.10406 10.8964 8.09695 10.9541C8.07906 11.2825 8.54607 11.0362 8.54607 11.0362C8.82644 10.8814 9.17926 10.9839 9.33322 11.2643C9.47838 11.5276 9.3943 11.8554 9.15284 12.0225Z" fill="#A9ACBC"/>
</svg>
