<svg width="14" height="14" viewBox="0 0 14 14" fill="none" xmlns="http://www.w3.org/2000/svg">
<path fill-rule="evenodd" clip-rule="evenodd" d="M9.89279 13.6668H4.1059C1.84925 13.6668 0.333008 12.0831 0.333008 9.72624V4.27408C0.333008 1.91721 1.84925 0.333496 4.1059 0.333496H6.55798C6.82949 0.333496 7.04984 0.553838 7.04984 0.825332C7.04984 1.09682 6.82949 1.31717 6.55798 1.31717H4.1059C2.41128 1.31717 1.31673 2.4779 1.31673 4.27408V9.72624C1.31673 11.5224 2.41128 12.6832 4.1059 12.6832H9.89279C11.5874 12.6832 12.6826 11.5224 12.6826 9.72624V7.08476C12.6826 6.81327 12.903 6.59292 13.1745 6.59292C13.446 6.59292 13.6663 6.81327 13.6663 7.08476V9.72624C13.6663 12.0831 12.1494 13.6668 9.89279 13.6668Z" fill="#2C304E"/>
<path fill-rule="evenodd" clip-rule="evenodd" d="M7.14584 6.854C6.95095 6.65911 6.95095 6.34277 7.14584 6.14788L12.8141 0.479662C13.0089 0.284774 13.3253 0.284774 13.5202 0.479662C13.7151 0.67455 13.7151 0.990889 13.5202 1.18578L7.85196 6.854C7.65707 7.04888 7.34073 7.04888 7.14584 6.854Z" fill="#2C304E"/>
<path fill-rule="evenodd" clip-rule="evenodd" d="M9.82206 1.24977C9.72612 1.15384 9.66634 1.02074 9.66634 0.874079C9.66584 0.580257 9.90294 0.341182 10.1978 0.340679L13.1329 0.33415C13.4162 0.333146 13.6673 0.584275 13.6663 0.86755L13.6603 3.80276C13.6593 4.09708 13.4207 4.33465 13.1268 4.33415C12.8325 4.33314 12.5944 4.09507 12.5954 3.80075L12.5999 1.40045L10.1998 1.40547C10.0521 1.40647 9.91851 1.3462 9.82206 1.24977Z" fill="#2C304E"/>
</svg>
