<svg width="351" height="106" viewBox="0 0 351 106" fill="none" xmlns="http://www.w3.org/2000/svg">
<path fill-rule="evenodd" clip-rule="evenodd" d="M136.159 14.567C136.051 8.99991 131.263 5 125.388 5C119.507 5 115 9.32491 115 14.8379C115 20.9455 119.343 23.1627 124.564 25.0044C129.236 26.627 131.489 28.0858 131.489 31.5453C131.489 34.3559 129.236 36.6803 125.828 36.6803C122.585 36.6803 119.727 34.4643 119.727 31.0048C119.727 29.8884 120.033 29.2535 120.295 28.7112C120.49 28.3069 120.661 27.9539 120.661 27.4912C120.661 26.243 119.782 25.3245 118.352 25.3245C116.704 25.3245 115 27.7572 115 31.2167C115 36.7838 119.896 40.8921 125.828 40.8896C131.873 40.8896 136.216 36.5106 136.216 31.0518C136.216 24.7817 131.654 22.6728 126.652 20.8889C121.977 19.2157 119.727 17.7593 119.724 14.4599C119.724 11.4326 122.148 9.21658 125.33 9.21658C128.739 9.21658 131.432 11.5457 131.487 14.6754C131.542 16.1355 132.586 16.9997 133.795 16.9997C135.057 16.9997 136.214 16.1319 136.159 14.567ZM138.491 30.2429C138.491 36.1892 143.439 40.892 149.375 40.892C152.012 40.892 154.047 40.0266 154.047 38.351C154.047 37.1076 152.948 36.2433 151.904 36.2433C151.566 36.2433 151.271 36.3055 150.939 36.3754C150.515 36.465 150.03 36.5671 149.32 36.5671C145.911 36.5671 143.218 33.6481 143.218 30.2429C143.218 26.568 145.967 23.7031 149.43 23.7031C153.332 23.7031 155.805 26.6221 155.805 30.8917V38.6218C155.805 39.9724 156.905 40.892 158.224 40.892C159.486 40.892 160.588 39.9724 160.588 38.6218V30.7292C160.588 24.2436 156.027 19.4866 149.54 19.4866C143.494 19.4866 138.491 24.0811 138.491 30.2429ZM174.131 57C167.974 57 162.863 52.6751 162.863 47.0538C162.863 45.1616 163.964 44.2973 165.226 44.2973C166.488 44.2973 167.535 45.1086 167.59 46.6758C167.645 50.1894 170.503 52.7834 174.077 52.7834C177.871 52.7834 180.342 50.4049 180.342 47.3246C180.342 43.811 177.594 42.3509 172.923 40.892C167.481 39.1623 162.864 36.7838 162.864 30.1887C162.864 24.1353 167.591 19.4866 173.748 19.4866C179.958 19.4866 185.069 23.9186 185.069 29.7566C185.069 33.3243 183.586 36.0808 181.551 36.0808C180.178 36.0808 179.243 35.1082 179.243 33.9142C179.243 33.3816 179.445 32.9781 179.676 32.5166C179.985 31.9005 180.345 31.1812 180.345 29.9142C180.345 26.1828 177.378 23.6983 173.805 23.6983C170.341 23.6983 167.593 26.2923 167.593 29.6976C167.593 33.5362 170.396 35.1576 175.014 36.6706C180.345 38.4004 185.072 40.5622 185.072 46.8865C185.072 52.5631 180.51 56.9976 174.134 56.9976L174.131 57ZM187.345 30.1887C187.345 36.135 192.401 40.8921 198.557 40.8921H198.561C201.639 40.8921 204.113 40.0808 205.761 39.054C207.41 38.0273 208.07 37.1618 208.07 36.1892C208.07 35.1625 207.296 34.2428 205.867 34.2428C205.203 34.2428 204.589 34.6123 203.84 35.0633C202.667 35.7695 201.162 36.6755 198.612 36.6755C197.748 36.6765 196.893 36.509 196.095 36.1827C195.298 35.8564 194.574 35.3777 193.965 34.7745C193.357 34.1712 192.877 33.4553 192.551 32.6682C192.226 31.881 192.063 31.0383 192.071 30.1887C192.071 26.6222 194.929 23.649 198.447 23.649C202.24 23.649 204.273 26.0841 204.273 27.6489C204.273 28.0811 203.944 28.2977 203.503 28.2977H198.776C197.508 28.2977 196.573 29.1596 196.573 30.2429C196.573 31.378 197.513 32.2435 198.776 32.2435H205.098C207.517 32.2435 209 31 209 28.9465C209 23.649 204.383 19.4866 198.282 19.4866C196.848 19.4798 195.427 19.7516 194.101 20.2863C192.774 20.8211 191.568 21.6083 190.552 22.6027C189.536 23.5971 188.729 24.7792 188.179 26.081C187.628 27.3829 187.345 28.7788 187.345 30.1887Z" fill="#00D639"/>
<path d="M22.9047 94.621V98H8.0557V76.3H22.9047V79.741H12.2097V85.414H19.7427V88.731H12.2097V94.621H22.9047ZM28.0422 98H23.9502L29.5612 89.971L23.8572 81.911H28.5072L32.0412 87.181L35.6682 81.911H39.7912L34.0872 90.002L39.7602 98H35.1102L31.5762 92.761L28.0422 98ZM45.7728 104.293H41.7738V81.911H45.7728V84.577C46.2274 83.647 46.8474 82.934 47.6328 82.438C48.4388 81.9213 49.3894 81.663 50.4848 81.663C51.0221 81.663 51.5284 81.725 52.0038 81.849C52.4791 81.973 52.9338 82.1487 53.3678 82.376C53.8018 82.6033 54.2048 82.8927 54.5768 83.244C54.9488 83.5953 55.2794 83.9983 55.5688 84.453C55.8581 84.9077 56.1061 85.414 56.3128 85.972C56.5194 86.53 56.6744 87.1397 56.7778 87.801C56.8811 88.4623 56.9328 89.1753 56.9328 89.94C56.9328 90.7047 56.8811 91.4177 56.7778 92.079C56.6744 92.7403 56.5194 93.35 56.3128 93.908C56.1061 94.466 55.8581 94.9827 55.5688 95.458C55.2794 95.9127 54.9488 96.3157 54.5768 96.667C54.2048 97.0183 53.8018 97.318 53.3678 97.566C52.9338 97.7933 52.4791 97.969 52.0038 98.093C51.5284 98.217 51.0221 98.279 50.4848 98.279C49.3894 98.279 48.4388 98.0207 47.6328 97.504C46.8474 96.9873 46.2274 96.2537 45.7728 95.303V104.293ZM49.3688 95.055C50.4228 95.055 51.2908 94.6313 51.9728 93.784C52.6548 92.9367 52.9958 91.645 52.9958 89.909C52.9958 88.1937 52.6548 86.9123 51.9728 86.065C51.2908 85.2177 50.4228 84.794 49.3688 84.794C48.3354 84.794 47.4778 85.2177 46.7958 86.065C46.1138 86.9123 45.7728 88.1937 45.7728 89.909C45.7728 91.645 46.1138 92.9367 46.7958 93.784C47.4778 94.6313 48.3354 95.055 49.3688 95.055ZM70.6825 93.009L73.9995 93.877C73.8755 94.1457 73.7411 94.4247 73.5965 94.714C73.4518 94.9827 73.2761 95.241 73.0695 95.489C72.8835 95.737 72.6768 95.985 72.4495 96.233C72.2221 96.4603 71.9741 96.6773 71.7055 96.884C71.4368 97.0907 71.1371 97.2767 70.8065 97.442C70.4965 97.6073 70.1555 97.752 69.7835 97.876C69.4321 98 69.0395 98.093 68.6055 98.155C68.1921 98.217 67.7581 98.248 67.3035 98.248C66.7455 98.248 66.2081 98.1963 65.6915 98.093C65.1748 98.0103 64.6788 97.876 64.2035 97.69C63.7488 97.504 63.3148 97.2767 62.9015 97.008C62.4881 96.7393 62.1058 96.4293 61.7545 96.078C61.4238 95.706 61.1241 95.303 60.8555 94.869C60.5868 94.435 60.3595 93.9597 60.1735 93.443C59.9875 92.9263 59.8428 92.3787 59.7395 91.8C59.6361 91.2007 59.5845 90.5703 59.5845 89.909C59.5845 89.2683 59.6258 88.6587 59.7085 88.08C59.8118 87.4807 59.9565 86.933 60.1425 86.437C60.3285 85.9203 60.5558 85.445 60.8245 85.011C61.0931 84.577 61.3928 84.1843 61.7235 83.833C62.0541 83.4817 62.4158 83.1717 62.8085 82.903C63.2218 82.6343 63.6455 82.407 64.0795 82.221C64.5341 82.035 64.9991 81.9007 65.4745 81.818C65.9705 81.7147 66.4768 81.663 66.9935 81.663C67.5308 81.663 68.0371 81.7147 68.5125 81.818C69.0085 81.9007 69.4735 82.035 69.9075 82.221C70.3415 82.407 70.7445 82.6447 71.1165 82.934C71.5091 83.2027 71.8605 83.5127 72.1705 83.864C72.5011 84.2153 72.7905 84.608 73.0385 85.042C73.2865 85.476 73.4931 85.9513 73.6585 86.468C73.8445 86.964 73.9788 87.5013 74.0615 88.08C74.1648 88.6587 74.2165 89.2683 74.2165 89.909V90.87H63.3975C63.5421 92.3787 63.9658 93.4947 64.6685 94.218C65.3918 94.9207 66.2805 95.272 67.3345 95.272C68.0785 95.272 68.7191 95.0757 69.2565 94.683C69.8145 94.2903 70.2898 93.7323 70.6825 93.009ZM66.9625 84.608C66.0945 84.608 65.3401 84.9077 64.6995 85.507C64.0588 86.0857 63.6455 87.0467 63.4595 88.39H70.4345C70.2691 87.0673 69.8661 86.1063 69.2255 85.507C68.6055 84.9077 67.8511 84.608 66.9625 84.608ZM91.259 98H87.26V88.018C87.26 86.9433 86.981 86.127 86.423 85.569C85.8856 85.011 85.2036 84.732 84.377 84.732C83.5916 84.732 82.92 85.011 82.362 85.569C81.8246 86.127 81.556 86.9433 81.556 88.018V98H77.557V81.911H81.556V84.236C82.0106 83.4093 82.6203 82.779 83.385 82.345C84.1703 81.8903 85.0383 81.663 85.989 81.663C87.5183 81.663 88.779 82.159 89.771 83.151C90.763 84.143 91.259 85.538 91.259 87.336V98ZM93.8358 94.838L96.3468 92.792C96.9255 93.6807 97.5868 94.342 98.3308 94.776C99.0748 95.21 99.8602 95.427 100.687 95.427C101.514 95.427 102.175 95.2617 102.671 94.931C103.188 94.5797 103.446 94.094 103.446 93.474C103.446 92.854 103.095 92.4097 102.392 92.141C101.71 91.8723 100.914 91.6347 100.005 91.428C99.7362 91.3453 99.4572 91.273 99.1678 91.211C98.8785 91.1283 98.5892 91.0457 98.2998 90.963C98.0312 90.8597 97.7625 90.7563 97.4938 90.653C97.2252 90.529 96.9668 90.3947 96.7188 90.25C96.4915 90.1053 96.2642 89.9503 96.0368 89.785C95.8302 89.599 95.6338 89.4027 95.4478 89.196C95.2825 88.9893 95.1378 88.7517 95.0138 88.483C94.8898 88.2143 94.7865 87.925 94.7038 87.615C94.6418 87.2843 94.6108 86.933 94.6108 86.561C94.6108 85.0523 95.1895 83.864 96.3468 82.996C97.5042 82.1073 98.9508 81.663 100.687 81.663C102.134 81.663 103.425 81.9937 104.562 82.655C105.699 83.3163 106.598 84.1533 107.259 85.166L104.779 87.088C104.159 86.2407 103.518 85.6103 102.857 85.197C102.196 84.763 101.503 84.546 100.78 84.546C100.139 84.546 99.6018 84.701 99.1678 85.011C98.7545 85.3003 98.5478 85.724 98.5478 86.282C98.5478 86.902 98.8578 87.3567 99.4778 87.646C100.098 87.9353 100.832 88.1937 101.679 88.421C101.927 88.483 102.175 88.5553 102.423 88.638C102.692 88.7 102.96 88.7723 103.229 88.855C103.498 88.917 103.756 88.9997 104.004 89.103C104.252 89.1857 104.5 89.289 104.748 89.413C104.996 89.5163 105.223 89.6403 105.43 89.785C105.657 89.909 105.864 90.0537 106.05 90.219C106.257 90.3843 106.432 90.5703 106.577 90.777C106.742 90.9837 106.877 91.211 106.98 91.459C107.083 91.707 107.166 91.9757 107.228 92.265C107.29 92.5337 107.321 92.8437 107.321 93.195C107.321 93.6497 107.259 94.0837 107.135 94.497C107.032 94.8897 106.877 95.2617 106.67 95.613C106.463 95.9437 106.215 96.2537 105.926 96.543C105.637 96.8117 105.306 97.0597 104.934 97.287C104.562 97.4937 104.149 97.6693 103.694 97.814C103.26 97.9587 102.795 98.062 102.299 98.124C101.803 98.2067 101.286 98.248 100.749 98.248C98.9922 98.248 97.5352 97.907 96.3778 97.225C95.2205 96.5223 94.3732 95.7267 93.8358 94.838ZM120.603 93.009L123.92 93.877C123.796 94.1457 123.662 94.4247 123.517 94.714C123.373 94.9827 123.197 95.241 122.99 95.489C122.804 95.737 122.598 95.985 122.37 96.233C122.143 96.4603 121.895 96.6773 121.626 96.884C121.358 97.0907 121.058 97.2767 120.727 97.442C120.417 97.6073 120.076 97.752 119.704 97.876C119.353 98 118.96 98.093 118.526 98.155C118.113 98.217 117.679 98.248 117.224 98.248C116.666 98.248 116.129 98.1963 115.612 98.093C115.096 98.0103 114.6 97.876 114.124 97.69C113.67 97.504 113.236 97.2767 112.822 97.008C112.409 96.7393 112.027 96.4293 111.675 96.078C111.345 95.706 111.045 95.303 110.776 94.869C110.508 94.435 110.28 93.9597 110.094 93.443C109.908 92.9263 109.764 92.3787 109.66 91.8C109.557 91.2007 109.505 90.5703 109.505 89.909C109.505 89.2683 109.547 88.6587 109.629 88.08C109.733 87.4807 109.877 86.933 110.063 86.437C110.249 85.9203 110.477 85.445 110.745 85.011C111.014 84.577 111.314 84.1843 111.644 83.833C111.975 83.4817 112.337 83.1717 112.729 82.903C113.143 82.6343 113.566 82.407 114 82.221C114.455 82.035 114.92 81.9007 115.395 81.818C115.891 81.7147 116.398 81.663 116.914 81.663C117.452 81.663 117.958 81.7147 118.433 81.818C118.929 81.9007 119.394 82.035 119.828 82.221C120.262 82.407 120.665 82.6447 121.037 82.934C121.43 83.2027 121.781 83.5127 122.091 83.864C122.422 84.2153 122.711 84.608 122.959 85.042C123.207 85.476 123.414 85.9513 123.579 86.468C123.765 86.964 123.9 87.5013 123.982 88.08C124.086 88.6587 124.137 89.2683 124.137 89.909V90.87H113.318C113.463 92.3787 113.887 93.4947 114.589 94.218C115.313 94.9207 116.201 95.272 117.255 95.272C117.999 95.272 118.64 95.0757 119.177 94.683C119.735 94.2903 120.211 93.7323 120.603 93.009ZM116.883 84.608C116.015 84.608 115.261 84.9077 114.62 85.507C113.98 86.0857 113.566 87.0467 113.38 88.39H120.355C120.19 87.0673 119.787 86.1063 119.146 85.507C118.526 84.9077 117.772 84.608 116.883 84.608ZM142.514 93.009L137.802 81.942L137.926 98H134.175V76.3H139.197L143.878 87.553L148.559 76.3H153.612V98H149.737L149.892 81.849L145.149 93.009H142.514ZM162.205 98.248C160.696 98.248 159.487 97.8347 158.578 97.008C157.689 96.1607 157.245 95.117 157.245 93.877C157.245 92.4097 157.782 91.2627 158.857 90.436C159.932 89.5887 161.42 89.0927 163.321 88.948L167.134 88.669V87.46C167.134 86.5713 166.865 85.8997 166.328 85.445C165.811 84.9697 165.14 84.732 164.313 84.732C163.548 84.732 162.835 84.9283 162.174 85.321C161.533 85.693 160.934 86.3337 160.376 87.243L157.369 85.693C158.01 84.577 158.919 83.6263 160.097 82.841C161.275 82.035 162.794 81.632 164.654 81.632C166.535 81.632 168.074 82.1487 169.273 83.182C170.472 84.2153 171.071 85.662 171.071 87.522V98H167.134V95.706C166.659 96.4913 165.987 97.1113 165.119 97.566C164.272 98.0207 163.3 98.248 162.205 98.248ZM161.027 93.505C161.027 94.2077 161.275 94.7243 161.771 95.055C162.288 95.3857 162.908 95.551 163.631 95.551C164.52 95.551 165.326 95.2617 166.049 94.683C166.772 94.1043 167.134 93.3087 167.134 92.296V91.087L164.22 91.335C163.166 91.4177 162.37 91.645 161.833 92.017C161.296 92.3683 161.027 92.8643 161.027 93.505ZM189.012 98H185.013V88.018C185.013 86.9433 184.734 86.127 184.176 85.569C183.639 85.011 182.957 84.732 182.13 84.732C181.345 84.732 180.673 85.011 180.115 85.569C179.578 86.127 179.309 86.9433 179.309 88.018V98H175.31V81.911H179.309V84.236C179.764 83.4093 180.373 82.779 181.138 82.345C181.923 81.8903 182.791 81.663 183.742 81.663C185.271 81.663 186.532 82.159 187.524 83.151C188.516 84.143 189.012 85.538 189.012 87.336V98ZM197.262 98.248C195.753 98.248 194.544 97.8347 193.635 97.008C192.746 96.1607 192.302 95.117 192.302 93.877C192.302 92.4097 192.839 91.2627 193.914 90.436C194.988 89.5887 196.476 89.0927 198.378 88.948L202.191 88.669V87.46C202.191 86.5713 201.922 85.8997 201.385 85.445C200.868 84.9697 200.196 84.732 199.37 84.732C198.605 84.732 197.892 84.9283 197.231 85.321C196.59 85.693 195.991 86.3337 195.433 87.243L192.426 85.693C193.066 84.577 193.976 83.6263 195.154 82.841C196.332 82.035 197.851 81.632 199.711 81.632C201.591 81.632 203.131 82.1487 204.33 83.182C205.528 84.2153 206.128 85.662 206.128 87.522V98H202.191V95.706C201.715 96.4913 201.044 97.1113 200.176 97.566C199.328 98.0207 198.357 98.248 197.262 98.248ZM196.084 93.505C196.084 94.2077 196.332 94.7243 196.828 95.055C197.344 95.3857 197.964 95.551 198.688 95.551C199.576 95.551 200.382 95.2617 201.106 94.683C201.829 94.1043 202.191 93.3087 202.191 92.296V91.087L199.277 91.335C198.223 91.4177 197.427 91.645 196.89 92.017C196.352 92.3683 196.084 92.8643 196.084 93.505ZM216.009 98.031C215.471 98.031 214.955 97.969 214.459 97.845C213.983 97.721 213.529 97.5453 213.095 97.318C212.661 97.0907 212.258 96.8013 211.886 96.45C211.514 96.0987 211.183 95.706 210.894 95.272C210.604 94.8173 210.356 94.311 210.15 93.753C209.943 93.195 209.778 92.5957 209.654 91.955C209.55 91.3143 209.499 90.622 209.499 89.878C209.499 89.134 209.55 88.4313 209.654 87.77C209.778 87.1087 209.943 86.5093 210.15 85.972C210.356 85.414 210.604 84.9077 210.894 84.453C211.183 83.9983 211.514 83.5953 211.886 83.244C212.258 82.8927 212.661 82.6033 213.095 82.376C213.529 82.1487 213.983 81.973 214.459 81.849C214.955 81.725 215.471 81.663 216.009 81.663C217.083 81.663 218.013 81.911 218.799 82.407C219.584 82.903 220.204 83.616 220.659 84.546V81.911H224.658V97.721C224.658 98.2583 224.606 98.7647 224.503 99.24C224.399 99.7153 224.255 100.16 224.069 100.573C223.883 100.986 223.655 101.369 223.387 101.72C223.118 102.071 222.808 102.392 222.457 102.681C222.105 102.97 221.723 103.218 221.31 103.425C220.917 103.652 220.483 103.838 220.008 103.983C219.553 104.148 219.067 104.262 218.551 104.324C218.034 104.407 217.507 104.448 216.97 104.448C215.378 104.448 213.983 104.179 212.785 103.642C211.607 103.125 210.666 102.423 209.964 101.534L212.196 99.085C212.857 99.8497 213.56 100.418 214.304 100.79C215.068 101.162 215.905 101.348 216.815 101.348C217.931 101.348 218.85 101.028 219.574 100.387C220.297 99.767 220.659 98.7543 220.659 97.349V95.148C220.204 96.078 219.584 96.791 218.799 97.287C218.013 97.783 217.083 98.031 216.009 98.031ZM217.094 94.962C218.127 94.962 218.974 94.5383 219.636 93.691C220.318 92.8437 220.659 91.5727 220.659 89.878C220.659 88.1627 220.318 86.8813 219.636 86.034C218.974 85.1867 218.127 84.763 217.094 84.763C216.06 84.763 215.192 85.1867 214.49 86.034C213.808 86.8813 213.467 88.1627 213.467 89.878C213.467 91.5727 213.808 92.8437 214.49 93.691C215.192 94.5383 216.06 94.962 217.094 94.962ZM239.154 93.009L242.471 93.877C242.347 94.1457 242.213 94.4247 242.068 94.714C241.923 94.9827 241.748 95.241 241.541 95.489C241.355 95.737 241.148 95.985 240.921 96.233C240.694 96.4603 240.446 96.6773 240.177 96.884C239.908 97.0907 239.609 97.2767 239.278 97.442C238.968 97.6073 238.627 97.752 238.255 97.876C237.904 98 237.511 98.093 237.077 98.155C236.664 98.217 236.23 98.248 235.775 98.248C235.217 98.248 234.68 98.1963 234.163 98.093C233.646 98.0103 233.15 97.876 232.675 97.69C232.22 97.504 231.786 97.2767 231.373 97.008C230.96 96.7393 230.577 96.4293 230.226 96.078C229.895 95.706 229.596 95.303 229.327 94.869C229.058 94.435 228.831 93.9597 228.645 93.443C228.459 92.9263 228.314 92.3787 228.211 91.8C228.108 91.2007 228.056 90.5703 228.056 89.909C228.056 89.2683 228.097 88.6587 228.18 88.08C228.283 87.4807 228.428 86.933 228.614 86.437C228.8 85.9203 229.027 85.445 229.296 85.011C229.565 84.577 229.864 84.1843 230.195 83.833C230.526 83.4817 230.887 83.1717 231.28 82.903C231.693 82.6343 232.117 82.407 232.551 82.221C233.006 82.035 233.471 81.9007 233.946 81.818C234.442 81.7147 234.948 81.663 235.465 81.663C236.002 81.663 236.509 81.7147 236.984 81.818C237.48 81.9007 237.945 82.035 238.379 82.221C238.813 82.407 239.216 82.6447 239.588 82.934C239.981 83.2027 240.332 83.5127 240.642 83.864C240.973 84.2153 241.262 84.608 241.51 85.042C241.758 85.476 241.965 85.9513 242.13 86.468C242.316 86.964 242.45 87.5013 242.533 88.08C242.636 88.6587 242.688 89.2683 242.688 89.909V90.87H231.869C232.014 92.3787 232.437 93.4947 233.14 94.218C233.863 94.9207 234.752 95.272 235.806 95.272C236.55 95.272 237.191 95.0757 237.728 94.683C238.286 94.2903 238.761 93.7323 239.154 93.009ZM235.434 84.608C234.566 84.608 233.812 84.9077 233.171 85.507C232.53 86.0857 232.117 87.0467 231.931 88.39H238.906C238.741 87.0673 238.338 86.1063 237.697 85.507C237.077 84.9077 236.323 84.608 235.434 84.608ZM259.359 98H255.36V87.925C255.36 86.871 255.101 86.0753 254.585 85.538C254.089 85.0007 253.458 84.732 252.694 84.732C251.929 84.732 251.288 85.0007 250.772 85.538C250.276 86.0753 250.028 86.871 250.028 87.925V98H246.029V81.911H250.028V84.298C250.462 83.4507 251.051 82.7997 251.795 82.345C252.559 81.8903 253.386 81.663 254.275 81.663C255.329 81.663 256.259 81.9213 257.065 82.438C257.871 82.9547 258.47 83.6883 258.863 84.639C259.317 83.6677 259.958 82.934 260.785 82.438C261.632 81.9213 262.562 81.663 263.575 81.663C265.063 81.663 266.272 82.159 267.202 83.151C268.152 84.143 268.628 85.538 268.628 87.336V98H264.66V87.925C264.66 86.871 264.412 86.0753 263.916 85.538C263.42 85.0007 262.789 84.732 262.025 84.732C261.26 84.732 260.619 85.0007 260.103 85.538C259.607 86.0753 259.359 86.871 259.359 87.925V98ZM283.141 93.009L286.458 93.877C286.334 94.1457 286.2 94.4247 286.055 94.714C285.911 94.9827 285.735 95.241 285.528 95.489C285.342 95.737 285.136 95.985 284.908 96.233C284.681 96.4603 284.433 96.6773 284.164 96.884C283.896 97.0907 283.596 97.2767 283.265 97.442C282.955 97.6073 282.614 97.752 282.242 97.876C281.891 98 281.498 98.093 281.064 98.155C280.651 98.217 280.217 98.248 279.762 98.248C279.204 98.248 278.667 98.1963 278.15 98.093C277.634 98.0103 277.138 97.876 276.662 97.69C276.208 97.504 275.774 97.2767 275.36 97.008C274.947 96.7393 274.565 96.4293 274.213 96.078C273.883 95.706 273.583 95.303 273.314 94.869C273.046 94.435 272.818 93.9597 272.632 93.443C272.446 92.9263 272.302 92.3787 272.198 91.8C272.095 91.2007 272.043 90.5703 272.043 89.909C272.043 89.2683 272.085 88.6587 272.167 88.08C272.271 87.4807 272.415 86.933 272.601 86.437C272.787 85.9203 273.015 85.445 273.283 85.011C273.552 84.577 273.852 84.1843 274.182 83.833C274.513 83.4817 274.875 83.1717 275.267 82.903C275.681 82.6343 276.104 82.407 276.538 82.221C276.993 82.035 277.458 81.9007 277.933 81.818C278.429 81.7147 278.936 81.663 279.452 81.663C279.99 81.663 280.496 81.7147 280.971 81.818C281.467 81.9007 281.932 82.035 282.366 82.221C282.8 82.407 283.203 82.6447 283.575 82.934C283.968 83.2027 284.319 83.5127 284.629 83.864C284.96 84.2153 285.249 84.608 285.497 85.042C285.745 85.476 285.952 85.9513 286.117 86.468C286.303 86.964 286.438 87.5013 286.52 88.08C286.624 88.6587 286.675 89.2683 286.675 89.909V90.87H275.856C276.001 92.3787 276.425 93.4947 277.127 94.218C277.851 94.9207 278.739 95.272 279.793 95.272C280.537 95.272 281.178 95.0757 281.715 94.683C282.273 94.2903 282.749 93.7323 283.141 93.009ZM279.421 84.608C278.553 84.608 277.799 84.9077 277.158 85.507C276.518 86.0857 276.104 87.0467 275.918 88.39H282.893C282.728 87.0673 282.325 86.1063 281.684 85.507C281.064 84.9077 280.31 84.608 279.421 84.608ZM303.718 98H299.719V88.018C299.719 86.9433 299.44 86.127 298.882 85.569C298.345 85.011 297.663 84.732 296.836 84.732C296.051 84.732 295.379 85.011 294.821 85.569C294.284 86.127 294.015 86.9433 294.015 88.018V98H290.016V81.911H294.015V84.236C294.47 83.4093 295.079 82.779 295.844 82.345C296.629 81.8903 297.497 81.663 298.448 81.663C299.977 81.663 301.238 82.159 302.23 83.151C303.222 84.143 303.718 85.538 303.718 87.336V98ZM317.715 94.59L317.839 97.628C317.426 97.814 316.899 97.9587 316.258 98.062C315.618 98.186 314.987 98.248 314.367 98.248C312.838 98.248 311.65 97.8657 310.802 97.101C309.976 96.3157 309.562 95.2617 309.562 93.939V85.011H305.935V81.911H309.562V77.54H313.53V81.911H317.808V85.011H313.53V93.257C313.53 93.8357 313.696 94.2697 314.026 94.559C314.357 94.8483 314.812 94.993 315.39 94.993C315.721 94.993 316.072 94.962 316.444 94.9C316.837 94.8173 317.261 94.714 317.715 94.59Z" fill="white"/>
</svg>
