<svg width="16" height="18" viewBox="0 0 16 18" fill="none" xmlns="http://www.w3.org/2000/svg">
<path d="M1.2 9.29971C1.2 13.0493 4.2504 16.0997 8 16.0997C11.7496 16.0997 14.8 13.0493 14.8 9.29971C14.8 7.42181 14.0349 5.7193 12.8 4.48751C12.8 4.48751 12.4297 4.07001 12.8 3.69969C13.2 3.29967 13.6426 3.63393 13.6426 3.63393C15.098 5.08345 16 7.08823 16 9.29971C16 13.7109 12.4112 17.2997 8 17.2997C3.5888 17.2997 0 13.7109 0 9.29971C0 7.09064 0.900019 5.08783 2.35263 3.63869C2.35263 3.63869 2.80003 3.29967 3.2 3.69969C3.50589 4.00561 3.2 4.48751 3.2 4.48751C1.96512 5.7193 1.2 7.42181 1.2 9.29971Z" fill="#DA1E28"/>
<path fill-rule="evenodd" clip-rule="evenodd" d="M8 0.699707C8.33137 0.699707 8.6 0.968336 8.6 1.29971V9.29971C8.6 9.63108 8.33137 9.89971 8 9.89971C7.66863 9.89971 7.4 9.63108 7.4 9.29971V1.29971C7.4 0.968336 7.66863 0.699707 8 0.699707Z" fill="#DA1E28"/>
</svg>
