<svg width="20" height="18" viewBox="0 0 20 18" fill="none" xmlns="http://www.w3.org/2000/svg">
<path fill-rule="evenodd" clip-rule="evenodd" d="M3.07692 4.75C3.07692 2.12665 5.2581 0 7.94872 0H12.0513C14.7419 0 16.9231 2.12665 16.9231 4.75V5.5H17.1795C18.7372 5.5 20 6.73122 20 8.25V10.25C20 11.7688 18.7372 13 17.1795 13H16.8627C16.4939 15.267 14.4802 17 12.0513 17H11.1093C10.8213 17.5912 10.2032 18 9.48718 18H7.94872C6.95744 18 6.15385 17.2165 6.15385 16.25C6.15385 15.2835 6.95744 14.5 7.94872 14.5H9.48718C10.2032 14.5 10.8213 14.9088 11.1093 15.5H12.0513C13.8922 15.5 15.3846 14.0449 15.3846 12.25V4.75C15.3846 2.95507 13.8922 1.5 12.0513 1.5H7.94872C6.10777 1.5 4.61539 2.95507 4.61539 4.75V11.25C4.61539 12.2165 3.81179 13 2.82051 13C1.26279 13 0 11.7688 0 10.25V8.25C0 6.73122 1.26279 5.5 2.82051 5.5H3.07692V4.75ZM3.07692 7H2.82051C2.11246 7 1.53846 7.55964 1.53846 8.25V10.25C1.53846 10.9404 2.11246 11.5 2.82051 11.5C2.96212 11.5 3.07692 11.3881 3.07692 11.25V7ZM16.9231 11.5H17.1795C17.8875 11.5 18.4615 10.9404 18.4615 10.25V8.25C18.4615 7.55964 17.8875 7 17.1795 7H16.9231V11.5ZM9.74359 16.25C9.74359 16.1119 9.62879 16 9.48718 16H7.94872C7.80711 16 7.69231 16.1119 7.69231 16.25C7.69231 16.3881 7.80711 16.5 7.94872 16.5H9.48718C9.62879 16.5 9.74359 16.3881 9.74359 16.25Z" fill="black"/>
</svg>
