<svg width="12" height="11" viewBox="0 0 12 11" fill="none" xmlns="http://www.w3.org/2000/svg">
<path d="M7.25 5.5L11.3125 9.5625C11.375 9.65625 11.4062 9.75 11.4062 9.84375C11.4062 9.96875 11.375 10.0312 11.3125 10.0938L10.5938 10.8125C10.5312 10.875 10.4375 10.9062 10.3438 10.9062C10.2188 10.9062 10.125 10.875 10.0625 10.8125L6 6.75L1.9375 10.8125C1.84375 10.875 1.75 10.9062 1.65625 10.9062C1.53125 10.9062 1.46875 10.875 1.40625 10.8125L0.6875 10.0938C0.625 10.0312 0.59375 9.96875 0.59375 9.84375C0.59375 9.75 0.625 9.65625 0.6875 9.5625L4.75 5.5L0.6875 1.4375C0.625 1.375 0.59375 1.28125 0.59375 1.15625C0.59375 1.0625 0.625 0.96875 0.6875 0.90625L1.40625 0.1875C1.46875 0.125 1.53125 0.09375 1.65625 0.09375C1.75 0.09375 1.84375 0.125 1.9375 0.1875L6 4.25L10.0625 0.1875C10.125 0.125 10.2188 0.09375 10.3438 0.09375C10.4375 0.09375 10.5312 0.125 10.5938 0.1875L11.3125 0.90625C11.375 0.96875 11.4062 1.0625 11.4062 1.15625C11.4062 1.28125 11.375 1.375 11.3125 1.4375L7.25 5.5Z" fill="#335B70"/>
</svg>
