<svg width="254" height="151" viewBox="0 0 254 151" fill="none" xmlns="http://www.w3.org/2000/svg">
<g clip-path="url(#clip0_597_36702)">
<path d="M194.468 149.292C191.216 146.56 189.241 142.244 189.759 138.042C190.277 133.84 193.485 129.977 197.647 129.085C201.809 128.193 206.553 130.663 207.817 134.705C208.513 126.911 209.314 118.791 213.481 112.154C217.255 106.144 223.79 101.844 230.873 101.075C237.955 100.306 245.413 103.211 249.83 108.77C254.247 114.329 255.329 122.41 252.235 128.792C249.956 133.494 245.757 136.992 241.358 139.839C227.142 148.959 210.092 152.668 193.345 150.283L194.468 149.292Z" fill="#FFF0F5"/>
<path d="M242.827 103.372C236.982 108.106 231.621 113.399 226.82 119.177C219.306 128.189 213.226 138.292 208.791 149.135C208.467 149.926 209.758 150.271 210.079 149.488C217.336 131.866 228.919 116.333 243.771 104.312C244.438 103.772 243.488 102.837 242.827 103.372Z" fill="white"/>
<path d="M81.7667 148.55C86.2332 144.797 88.9462 138.869 88.2347 133.098C87.5232 127.326 83.1165 122.021 77.4004 120.795C71.6842 119.569 65.1682 122.962 63.4321 128.514C62.4766 117.81 61.3755 106.657 55.652 97.5405C50.4694 89.2862 41.4932 83.3799 31.7649 82.3233C22.0367 81.2667 11.7941 85.2574 5.72699 92.8925C-0.340155 100.528 -1.82567 111.627 2.4236 120.393C5.55389 126.85 11.321 131.656 17.3635 135.566C36.641 148.039 60.5549 153.241 83.3092 149.911" fill="#FFF0F5"/>
<path d="M15.3467 85.4787C23.3737 91.98 30.7376 99.2511 37.3319 107.187C43.9273 115.115 49.7338 123.66 54.6699 132.702C57.429 137.775 59.9075 142.993 62.0945 148.334C62.5403 149.421 60.7661 149.894 60.3251 148.819C56.4515 139.403 51.6592 130.387 46.0167 121.9C40.4017 113.444 33.9751 105.549 26.827 98.3274C22.784 94.2446 18.5183 90.3859 14.0492 86.7689C13.1332 86.0272 14.4382 84.7431 15.3467 85.4787L15.3467 85.4787Z" fill="white"/>
<path d="M182.325 150.669H75.7617V41.9494C75.7617 18.8184 94.6868 0 117.949 0H140.138C163.4 0 182.325 18.8184 182.325 41.9494V150.669Z" fill="#DEE1E8"/>
<path d="M160.137 150.67H75.7619V41.9495C75.7386 33.0862 78.5611 24.4469 83.8185 17.2895C84.0123 17.0269 84.2057 16.7676 84.405 16.5112C86.948 13.1947 89.9742 10.274 93.3838 7.84533C93.5764 7.70599 93.7698 7.56906 93.966 7.43213C96.819 5.4689 99.9053 3.864 103.154 2.65396C103.347 2.58124 103.544 2.50838 103.74 2.43849C106.679 1.39573 109.725 0.681445 112.822 0.308822C113.015 0.282738 113.212 0.262327 113.409 0.241915C116.427 -0.0790108 119.472 -0.0790108 122.49 0.241915C122.687 0.262327 122.884 0.282735 123.078 0.309101C126.175 0.681749 129.22 1.39595 132.158 2.43851C132.355 2.50839 132.551 2.58125 132.745 2.65411C135.954 3.84889 139.004 5.42984 141.826 7.36168C142.022 7.49564 142.219 7.63257 142.412 7.7695C144.323 9.12603 146.118 10.6373 147.779 12.2878C149.111 13.6118 150.352 15.023 151.494 16.512C151.693 16.7676 151.886 17.0269 152.08 17.2891C157.337 24.4466 160.16 33.086 160.137 41.9495V150.67Z" fill="#A9ACBC"/>
<path d="M245.236 150.856H29.6884C29.5964 150.856 29.5082 150.819 29.4433 150.755C29.3783 150.69 29.3418 150.602 29.3418 150.511C29.3418 150.419 29.3783 150.331 29.4433 150.267C29.5082 150.202 29.5964 150.165 29.6884 150.165H245.236C245.328 150.165 245.417 150.202 245.482 150.267C245.546 150.331 245.583 150.419 245.583 150.511C245.583 150.602 245.546 150.69 245.482 150.755C245.417 150.819 245.328 150.856 245.236 150.856Z" fill="#3F3D56"/>
<path d="M136.926 119.171H98.9719C98.4721 119.174 97.9916 118.979 97.6358 118.63C97.28 118.281 97.0781 117.806 97.0742 117.309V33.0704C97.0781 32.5734 97.28 32.0982 97.6358 31.7491C97.9916 31.3999 98.4721 31.2054 98.9719 31.208H136.926C137.426 31.2054 137.906 31.3999 138.262 31.7491C138.618 32.0982 138.82 32.5734 138.824 33.0704V117.309C138.82 117.806 138.618 118.281 138.262 118.63C137.906 118.979 137.426 119.174 136.926 119.171Z" fill="white"/>
<path d="M138.824 58.4648H97.0742V59.0455H138.824V58.4648Z" fill="#CCCCCC"/>
<path d="M138.97 91.592H97.2207V92.1727H138.97V91.592Z" fill="#CCCCCC"/>
<path d="M110.797 31.208H110.213V119.461H110.797V31.208Z" fill="#CCCCCC"/>
<path d="M125.394 31.208H124.811V119.461H125.394V31.208Z" fill="#CCCCCC"/>
<path fill-rule="evenodd" clip-rule="evenodd" d="M179.57 67.4514C178.141 68.5546 176.681 69.1807 175.947 69.0861C174.105 68.8486 173.14 62.4295 174.205 59.7237C175.27 57.018 182.233 55.0513 183.217 60.0375C183.559 61.7686 183.009 63.417 182.068 64.8215L185.159 73.6215L179.442 74.3142L179.57 67.4514Z" fill="#EAC389"/>
<path fill-rule="evenodd" clip-rule="evenodd" d="M178.504 61.1752C177.918 60.5083 177.374 60.0115 176.715 59.7646C174.204 60.1092 173.854 59.7005 173.668 58.2023C174.039 57.8664 175.413 57.2098 177.002 56.8791C177.792 56.5487 178.768 56.4743 179.751 56.7462C180.945 56.9288 182.009 57.5051 182.602 58.7537C184.493 61.2199 183.651 64.1282 182.171 65.2665C181.685 64.8217 181.254 64.3857 180.865 63.9653C181.1 63.677 181.22 63.2997 181.171 62.9043C181.075 62.1256 180.355 61.5721 179.565 61.668C179.505 61.6753 179.446 61.6862 179.388 61.7004C179.474 62.6809 179.736 65.9879 179.494 67.1776C179.209 68.5813 176.606 69.2333 175.684 69.3453C174.887 69.4419 174.822 68.6954 174.775 68.1604C174.769 68.0834 174.762 68.0107 174.754 67.9456C174.737 67.8095 174.917 67.7881 175.12 67.7639C175.384 67.7324 175.686 67.6962 175.649 67.3983C175.609 67.0736 175.123 66.8798 174.688 66.7063C174.416 66.5981 174.164 66.4979 174.054 66.3787C173.703 66.0027 173.534 65.4588 173.985 65.4041C174.231 65.3742 174.587 65.4732 175.014 65.5922C175.66 65.772 176.47 65.9976 177.318 65.8947C178.728 65.7235 178.496 61.173 178.496 61.173L178.504 61.1752Z" fill="#3B4151"/>
<path fill-rule="evenodd" clip-rule="evenodd" d="M189.176 93.6418L180.357 123.495L176.209 145.909H172.046L176.202 93.6418H189.176Z" fill="#B28B67"/>
<path fill-rule="evenodd" clip-rule="evenodd" d="M189.176 93.6418L180.357 123.495L176.209 145.909H172.046L176.202 93.6418H189.176Z" fill="#EAC389"/>
<path fill-rule="evenodd" clip-rule="evenodd" d="M192.367 94C191.79 109.291 192.018 117.631 192.147 119.02C192.276 120.409 193.008 129.714 198 146H193.943C187.333 130.376 185.025 121.072 184.267 119.02C183.508 116.969 181.269 108.628 178 94H192.367Z" fill="#EAC389"/>
<path fill-rule="evenodd" clip-rule="evenodd" d="M189.365 93.6418C187.071 103.914 183.104 120.312 177.463 142.834L171.662 141.384C173.307 118.325 173.752 105.598 176.202 93.6418H189.365Z" fill="#3B4151"/>
<path fill-rule="evenodd" clip-rule="evenodd" d="M191.503 93.6418C191.376 96.9109 193.017 100.998 192.47 105.337C190.827 118.375 195.149 128.36 198.967 143.076H192.47C185.401 127.466 180.335 112.263 176.872 93.6418H191.503Z" fill="#464D5F"/>
<path fill-rule="evenodd" clip-rule="evenodd" d="M196.992 146.067C198.103 146.067 199.433 146.278 199.524 147.386C199.527 147.423 199.528 147.458 199.528 147.491C199.528 148.131 199.311 149.358 199.311 149.358C198.556 149.358 185.733 149.358 185.733 149.358C185.733 149.358 185.204 147.639 186.344 147.502C187.484 147.365 188.239 147.255 188.239 147.255L193.846 144.799C194.357 144.575 194.953 144.813 195.169 145.328L195.276 145.584C195.276 145.584 196.332 146.067 196.992 146.067Z" fill="#5A5D72"/>
<path fill-rule="evenodd" clip-rule="evenodd" d="M174.362 145.26C175.473 145.26 176.803 145.471 176.894 146.578C176.897 146.615 176.898 146.651 176.898 146.684C176.898 147.324 176.681 148.551 176.681 148.551C175.926 148.551 163.103 148.551 163.103 148.551C163.103 148.551 162.574 146.832 163.714 146.695C164.854 146.558 165.609 146.447 165.609 146.447L171.216 143.992C171.727 143.768 172.323 144.006 172.539 144.521L172.646 144.776C172.646 144.776 173.702 145.26 174.362 145.26Z" fill="#5A5D72"/>
<path fill-rule="evenodd" clip-rule="evenodd" d="M203.091 103.578C202.217 102.268 196.324 88.9413 196.324 88.9413L193.149 89.5837C193.149 89.5837 199.6 103.685 200.08 104.537C200.704 105.645 200.102 107.436 199.693 108.651C199.63 108.839 199.572 109.013 199.523 109.169C200.33 109.412 200.647 108.961 200.981 108.486C201.358 107.949 201.758 107.381 202.91 107.747C203.355 107.889 203.782 108.068 204.199 108.243C205.64 108.848 206.963 109.404 208.517 108.182C208.763 107.988 208.98 107.345 208.215 106.955C206.31 105.984 203.518 104.219 203.091 103.578ZM161.962 98.766L168.887 92.3358L171.077 96.2292L163.926 100.223C162.101 102.949 161.037 104.122 160.734 103.742C160.479 103.422 160.605 103.079 160.721 102.762C160.811 102.515 160.896 102.285 160.789 102.095C160.545 101.662 159.12 101.884 157.776 102.151C156.433 102.419 156.754 101.776 157.045 101.442C158.328 100.457 159.967 99.5654 161.962 98.766Z" fill="#EAC389"/>
<path fill-rule="evenodd" clip-rule="evenodd" d="M181.424 70.1005L179.318 70.0032C176.473 73.0954 174.48 79.1963 172.571 83.4113C169.887 89.3396 167.318 93.5604 162.314 98.0996L164.914 100.581C168.972 98.6771 172.537 95.4868 175.091 92.7914C181.406 86.1267 182.61 77.7691 181.424 70.1005Z" fill="#FF668C"/>
<path fill-rule="evenodd" clip-rule="evenodd" d="M193.583 94.5234C193.583 94.5234 182.3 93.3484 176.456 94.0599C175.622 94.1614 176.409 93.8782 176.455 93.2653C176.991 86.1909 179.646 81.213 178.384 70.0207L183.547 68.5672C188.755 74.9324 191.312 83.2384 193.583 94.5234Z" fill="white"/>
<path fill-rule="evenodd" clip-rule="evenodd" d="M196.329 99.334C197.362 101.118 198.349 102.666 199.245 103.845L203.154 103.37C201.2 100.104 198.917 94.0543 197.418 90.0808C196.893 88.6896 196.465 87.5529 196.179 86.8793C195.636 85.5968 195.061 84.3137 194.407 82.8534C193.591 81.0315 192.651 78.9339 191.495 76.2174C191.372 75.9268 191.245 75.6179 191.116 75.3015C191 75.0159 190.881 74.7241 190.758 74.4341C191.461 74.1532 192.104 73.6467 192.6 72.8126C194.922 68.9133 193.63 67.0926 191.497 66.723C190.51 66.552 189.677 66.9431 188.81 67.3502L188.81 67.3502C188.518 67.4869 188.223 67.6254 187.917 67.7451C187.165 68.0391 186.018 68.2885 184.767 68.4404C184.555 68.4661 184.37 68.5095 184.211 68.5682C184.151 68.553 184.101 68.5409 184.061 68.5317L184.038 68.5006L183.973 68.5123C183.959 68.5094 183.952 68.508 183.952 68.508L183.943 68.5176L181.82 68.8974C181.82 68.8974 181.961 79.0518 182.48 84.8843C182.766 88.0989 181.85 98.1446 179.705 102.524L196.329 99.334Z" fill="#FF668C"/>
<path fill-rule="evenodd" clip-rule="evenodd" d="M196.251 99.1981C194.859 96.7815 193.386 93.9421 191.944 91.0007C191.969 94.4296 191.733 97.9066 190.863 99.8527L196.251 99.1981Z" fill="black" fill-opacity="0.1"/>
<circle cx="156" cy="105" r="3" fill="#3B4151"/>
</g>
<defs>
<clipPath id="clip0_597_36702">
<rect width="254" height="151" fill="white"/>
</clipPath>
</defs>
</svg>
