<svg width="200" height="201" viewBox="0 0 200 201" fill="none" xmlns="http://www.w3.org/2000/svg">
<path fill-rule="evenodd" clip-rule="evenodd" d="M95.7177 0.65392C141.426 -0.283151 183.656 28.1946 196.799 71.0601C209.161 111.381 184.105 150.68 149.295 175.4C114.581 200.051 68.3237 211.545 33.5283 187.004C-1.61161 162.22 -6.57198 115.255 6.87761 74.9537C20.2498 34.8842 52.6661 1.53653 95.7177 0.65392Z" fill="#F2F5F6"/>
<ellipse cx="84.5" cy="162.631" rx="66.5" ry="4" fill="#CCD6DB"/>
<path d="M28.3009 47.5806L18.104 120.135C17.1765 126.735 21.7748 132.837 28.3746 133.765L33.6668 134.508L40.6714 135.493L139.179 149.337C145.779 150.265 151.881 145.666 152.809 139.067L163.006 66.5121C163.933 59.9123 159.335 53.8101 152.735 52.8826L133.972 50.2457L116.191 47.7467L80.0905 42.673L74.7024 41.9158L69.3142 41.1585L59.6154 39.7955L41.9305 37.31C35.3306 36.3824 29.2285 40.9807 28.3009 47.5806Z" fill="white"/>
<path d="M33.6668 134.508L28.3746 133.765C21.7748 132.837 17.1765 126.735 18.104 120.135L28.3009 47.5806C29.2285 40.9808 35.3306 36.3824 41.9305 37.31L59.6154 39.7955L69.3142 41.1585L74.7024 41.9158L80.0905 42.673L116.191 47.7467M40.6714 135.493L139.179 149.337C145.779 150.265 151.881 145.666 152.809 139.067L163.006 66.5121C163.933 59.9123 159.335 53.8101 152.735 52.8826L133.972 50.2457" stroke="#1A1A1A" stroke-linecap="round"/>
<path d="M137.957 124.534C138.26 122.379 140.252 120.877 142.408 121.18L165.11 124.371C167.265 124.673 168.767 126.666 168.464 128.822L167.056 138.841C166.753 140.997 164.76 142.498 162.605 142.195L139.903 139.005C137.747 138.702 136.246 136.709 136.549 134.554L137.957 124.534Z" fill="#B3D9C8"/>
<path d="M156.257 141.303L139.903 139.005C137.747 138.702 136.246 136.709 136.549 134.554L137.957 124.534C138.26 122.379 140.252 120.877 142.408 121.18L144.413 121.462M160.478 141.896L162.905 142.238C165.061 142.54 167.053 141.039 167.356 138.883L168.765 128.864C169.067 126.709 167.566 124.716 165.41 124.413L148.634 122.055" stroke="#1A1A1A" stroke-width="0.754219" stroke-linecap="round"/>
<line x1="152.596" y1="123.798" x2="161.231" y2="125.012" stroke="#F2F9F6" stroke-width="1.50844" stroke-linecap="round"/>
<line x1="163.566" y1="125.34" x2="165.448" y2="125.604" stroke="#F2F9F6" stroke-width="1.50844" stroke-linecap="round"/>
<path d="M143.187 132.182L143.451 130.792L142.155 131.362L141.931 130.782L143.275 130.323L142.129 129.485L142.515 128.998L143.583 129.928L143.745 128.522L144.355 128.615L144.091 130.005L145.387 129.435L145.611 130.016L144.267 130.474L145.414 131.312L145.027 131.799L143.959 130.87L143.797 132.275L143.187 132.182ZM147.661 132.864L147.925 131.473L146.629 132.043L146.405 131.463L147.749 131.004L146.602 130.167L146.989 129.679L148.056 130.609L148.219 129.203L148.829 129.296L148.565 130.687L149.861 130.117L150.085 130.697L148.741 131.155L149.887 131.993L149.501 132.481L148.433 131.551L148.271 132.957L147.661 132.864ZM152.135 133.545L152.399 132.155L151.102 132.724L150.879 132.144L152.223 131.686L151.076 130.848L151.462 130.361L152.53 131.29L152.692 129.885L153.302 129.977L153.039 131.368L154.335 130.798L154.559 131.378L153.214 131.837L154.361 132.675L153.975 133.162L152.907 132.232L152.745 133.638L152.135 133.545ZM156.609 134.226L156.872 132.836L155.576 133.406L155.352 132.825L156.697 132.367L155.55 131.529L155.936 131.042L157.004 131.972L157.166 130.566L157.776 130.659L157.512 132.049L158.809 131.479L159.032 132.059L157.688 132.518L158.835 133.356L158.449 133.843L157.381 132.913L157.219 134.319L156.609 134.226ZM161.082 134.907L161.346 133.517L160.05 134.087L159.826 133.507L161.17 133.048L160.024 132.21L160.41 131.723L161.478 132.653L161.64 131.247L162.25 131.34L161.986 132.73L163.282 132.16L163.506 132.741L162.162 133.199L163.309 134.037L162.922 134.524L161.854 133.594L161.692 135L161.082 134.907Z" fill="white"/>
<path d="M79.8832 91.3015L71.7135 90.1534C69.6626 89.8651 67.7663 91.2941 67.4781 93.345V93.345C67.1899 95.3959 68.6188 97.2921 70.6697 97.5804L108.547 102.904C110.598 103.192 112.495 101.763 112.783 99.7121V99.7121C113.071 97.6612 111.642 95.765 109.591 95.4767L84.3394 91.9278" stroke="#1A1A1A" stroke-width="0.754219" stroke-linecap="round"/>
<line x1="75.687" y1="94.0684" x2="103.893" y2="98.0325" stroke="#ECECEE" stroke-width="3.01688" stroke-linecap="round"/>
<path d="M76.1697 101.92L71.7135 101.294C69.6626 101.006 67.7663 102.435 67.4781 104.485V104.485C67.1899 106.536 68.6188 108.433 70.6697 108.721L108.547 114.044C110.598 114.332 112.495 112.904 112.783 110.853V110.853C113.071 108.802 111.642 106.905 109.591 106.617L80.6259 102.546" stroke="#1A1A1A" stroke-width="0.754219" stroke-linecap="round"/>
<line x1="72.687" y1="105.209" x2="73.413" y2="105.311" stroke="#ECECEE" stroke-width="3.01688" stroke-linecap="round"/>
<line x1="77.8855" y1="105.939" x2="78.6114" y2="106.041" stroke="#ECECEE" stroke-width="3.01688" stroke-linecap="round"/>
<line x1="83.0847" y1="106.67" x2="83.8107" y2="106.772" stroke="#ECECEE" stroke-width="3.01688" stroke-linecap="round"/>
<line x1="88.284" y1="107.401" x2="89.01" y2="107.503" stroke="#ECECEE" stroke-width="3.01688" stroke-linecap="round"/>
<g clip-path="url(#clip0_2474_6644)">
<path d="M36.2596 64.2442C35.4074 61.4567 33.8135 59.0998 31.7605 57.3239M24.8153 53.9458C22.4941 53.4947 20.0317 53.5899 17.6127 54.3295C9.72565 56.7408 5.28667 65.0893 7.69799 72.9764C10.1093 80.8635 18.4578 85.3024 26.3449 82.8911C32.9992 80.8567 37.199 74.5961 36.9012 67.952" stroke="#1A1A1A" stroke-linecap="round"/>
<ellipse cx="21.8123" cy="68.5218" rx="13.8667" ry="13.8667" transform="rotate(-17 21.8123 68.5218)" fill="#B3D9C8"/>
<path d="M25.7289 80.8765C25.8969 81.4258 25.5883 82.0113 25.0279 82.1376C22.5237 82.7021 19.9044 82.5617 17.4642 81.7215C15.0241 80.8813 12.8736 79.3793 11.2478 77.3927C10.884 76.9482 11.0013 76.2968 11.4718 75.9674C11.9423 75.6379 12.5874 75.7558 12.9571 76.1954C14.3267 77.8245 16.1168 79.0577 18.1414 79.7548C20.1661 80.4519 22.3359 80.5823 24.4182 80.1418C24.9801 80.0229 25.561 80.3272 25.7289 80.8765Z" fill="#62AE8B"/>
<path d="M19.683 55.9908C19.5802 55.4257 19.9549 54.8801 20.5261 54.8199C22.264 54.6369 24.0241 54.7836 25.7131 55.2559C27.402 55.7282 28.983 56.5156 30.3738 57.5736C30.831 57.9213 30.8684 58.5821 30.4874 59.0119C30.1063 59.4417 29.4515 59.4771 28.9898 59.1355C27.8381 58.2833 26.5383 57.6464 25.1529 57.2591C23.7676 56.8717 22.3259 56.7419 20.8993 56.8732C20.3273 56.9258 19.7858 56.5559 19.683 55.9908Z" fill="#F2F9F6"/>
<path fill-rule="evenodd" clip-rule="evenodd" d="M16.4525 62.8929C14.4371 63.5091 13.5563 65.2885 14.21 67.4266L16.2001 73.9359C16.8538 76.074 18.579 77.0567 20.5944 76.4406L27.5021 74.3287C29.5199 73.7117 30.4014 71.9321 29.7477 69.7939L27.7577 63.2847C27.104 61.1466 25.378 60.1641 23.3618 60.7805L16.4525 62.8929ZM27.8676 75.524L20.9599 77.6359C18.2599 78.4614 15.8667 77.1208 15.0047 74.3013L13.0146 67.7921C12.1526 64.9726 13.387 62.523 16.087 61.6975L22.9963 59.5851C25.6971 58.7594 28.091 60.0997 28.953 62.9192L30.9431 69.4285C31.8051 72.248 30.5699 74.6978 27.8676 75.524Z" fill="white"/>
<path fill-rule="evenodd" clip-rule="evenodd" d="M19.1913 68.5026C18.7051 68.6512 18.4318 69.1653 18.58 69.6498C18.7281 70.1343 19.2421 70.4076 19.7267 70.2595C20.2104 70.1116 20.4845 69.5973 20.3364 69.1128C20.1885 68.6291 19.6744 68.3558 19.1913 68.5026ZM20.0921 71.4549C18.9485 71.8045 17.734 71.158 17.3846 70.0153C17.0349 68.8717 17.6806 67.6573 18.8242 67.3077C19.9696 66.9584 21.1824 67.6046 21.5317 68.7473C21.8811 69.8901 21.2357 71.1053 20.0921 71.4549Z" fill="white"/>
<path fill-rule="evenodd" clip-rule="evenodd" d="M26.6053 69.4637C26.2754 69.5646 25.9257 69.3787 25.8249 69.0487L25.5561 68.1697L21.1189 69.5263C20.789 69.6272 20.4396 69.4421 20.3385 69.1114C20.2376 68.7815 20.4235 68.4318 20.7534 68.331L25.7884 66.7916C26.1183 66.6908 26.4679 66.8767 26.5688 67.2066L27.0203 68.6833C27.1211 69.0132 26.9352 69.3628 26.6053 69.4637Z" fill="white"/>
<path fill-rule="evenodd" clip-rule="evenodd" d="M24.3514 70.1528C24.0215 70.2536 23.6719 70.0677 23.571 69.7378L23.1195 68.2611C23.0187 67.9312 23.2046 67.5816 23.5345 67.4807C23.8644 67.3798 24.2141 67.5657 24.3149 67.8957L24.7664 69.3723C24.8673 69.7023 24.6814 70.0519 24.3514 70.1528Z" fill="white"/>
<path fill-rule="evenodd" clip-rule="evenodd" d="M16.4525 62.8929C14.4371 63.5091 13.5563 65.2885 14.21 67.4266L16.2001 73.9359C16.8538 76.074 18.579 77.0567 20.5944 76.4406L27.5021 74.3287C29.5199 73.7117 30.4014 71.9321 29.7477 69.7939L27.7577 63.2847C27.104 61.1466 25.378 60.1641 23.3618 60.7805L16.4525 62.8929ZM27.8676 75.524L20.9599 77.6359C18.2599 78.4614 15.8667 77.1208 15.0047 74.3013L13.0146 67.7921C12.1526 64.9726 13.387 62.523 16.087 61.6975L22.9963 59.5851C25.6971 58.7594 28.091 60.0997 28.953 62.9192L30.9431 69.4285C31.8051 72.248 30.5699 74.6978 27.8676 75.524Z" stroke="white"/>
<path fill-rule="evenodd" clip-rule="evenodd" d="M19.1913 68.5026C18.7051 68.6512 18.4318 69.1653 18.58 69.6498C18.7281 70.1343 19.2421 70.4076 19.7267 70.2595C20.2104 70.1116 20.4845 69.5973 20.3364 69.1128C20.1885 68.6291 19.6744 68.3558 19.1913 68.5026ZM20.0921 71.4549C18.9485 71.8045 17.734 71.158 17.3846 70.0153C17.0349 68.8717 17.6806 67.6573 18.8242 67.3077C19.9696 66.9584 21.1824 67.6046 21.5317 68.7473C21.8811 69.8901 21.2357 71.1053 20.0921 71.4549Z" stroke="white"/>
<path fill-rule="evenodd" clip-rule="evenodd" d="M26.6053 69.4637C26.2754 69.5646 25.9257 69.3787 25.8249 69.0487L25.5561 68.1697L21.1189 69.5263C20.789 69.6272 20.4396 69.4421 20.3385 69.1114C20.2376 68.7815 20.4235 68.4318 20.7534 68.331L25.7884 66.7916C26.1183 66.6908 26.4679 66.8767 26.5688 67.2066L27.0203 68.6833C27.1211 69.0132 26.9352 69.3628 26.6053 69.4637Z" stroke="white"/>
<path fill-rule="evenodd" clip-rule="evenodd" d="M24.3514 70.1528C24.0215 70.2536 23.6719 70.0677 23.571 69.7378L23.1195 68.2611C23.0187 67.9312 23.2046 67.5816 23.5345 67.4807C23.8644 67.3798 24.2141 67.5657 24.3149 67.8957L24.7664 69.3723C24.8673 69.7023 24.6814 70.0519 24.3514 70.1528Z" stroke="white"/>
</g>
<path d="M94.0844 81.1753C94.9079 81.1022 95.7379 81.2177 96.5103 81.5123L98.4937 82.2683C99.2928 82.573 99.9101 83.2259 100.169 84.0411C100.792 86.0085 99.1487 87.9536 97.1049 87.6666L91.8721 86.9312C89.8153 86.6418 88.7754 84.2945 89.9428 82.5764C90.416 81.8801 91.1768 81.4331 92.0153 81.3588L94.0844 81.1753Z" fill="white" stroke="white" stroke-width="0.474319"/>
<path d="M96.554 72.9205C98.3969 73.1795 99.6796 74.8681 99.4238 76.6876C99.1679 78.5069 97.4697 79.7758 95.6269 79.5168C93.7843 79.2576 92.5025 77.57 92.7579 75.7507C93.0136 73.9314 94.7112 72.6617 96.554 72.9205Z" fill="white" stroke="white" stroke-width="0.474319"/>
<path d="M100.365 83.8784V83.8784C100.103 83.0519 99.4782 82.39 98.6679 82.0811L96.5944 81.2904C95.7884 80.9831 94.923 80.8629 94.0637 80.9391L91.9943 81.1226C91.0849 81.2032 90.2598 81.688 89.7467 82.4432L88.901 83.6878C88.0246 84.9776 88.8054 86.7392 90.3495 86.9562V86.9562M100.78 85.1868V85.1868C101.278 86.7564 99.9668 88.3078 98.3362 88.0787L93.7717 87.4372" stroke="#1A1A1A" stroke-width="0.75" stroke-linecap="round"/>
<path d="M98.3384 73.4352C97.8495 73.0466 97.2524 72.779 96.5874 72.6855C94.6169 72.4086 92.7972 73.766 92.523 75.7173C92.2487 77.6687 93.6238 79.4751 95.5943 79.752C97.5648 80.0289 99.3845 78.6715 99.6587 76.7202C99.7043 76.3956 99.7043 76.0751 99.6635 75.765" stroke="#1A1A1A" stroke-width="0.75" stroke-linecap="round"/>
<path d="M19.0931 128.447C19.2676 128.233 19.2356 127.918 19.0216 127.744C18.8076 127.569 18.4926 127.601 18.3181 127.815L18.7056 128.131L19.0931 128.447ZM18.7056 151.555L18.5695 151.074L18.7056 151.555ZM179.043 67.4243C179.247 67.2382 179.261 66.9219 179.075 66.718C178.889 66.514 178.573 66.4995 178.369 66.6857L178.706 67.055L179.043 67.4243ZM158.631 54.6825C158.383 54.804 158.28 55.1035 158.402 55.3515C158.523 55.5994 158.823 55.702 159.071 55.5805L158.851 55.1315L158.631 54.6825ZM45.88 142.991C46.1388 142.895 46.2705 142.607 46.1742 142.348C46.0779 142.089 45.7901 141.958 45.5312 142.054L45.7056 142.522L45.88 142.991ZM83.9965 126.055C83.7457 126.171 83.6359 126.468 83.7514 126.719C83.8669 126.97 84.1639 127.079 84.4147 126.964L84.2056 126.51L83.9965 126.055ZM68.2056 133.574L68.4004 134.035C68.6537 133.927 68.7729 133.636 68.6673 133.382C68.5616 133.128 68.2708 133.007 68.0163 133.111L68.2056 133.574ZM55.7056 138.686L55.5163 138.224C55.2618 138.328 55.1391 138.618 55.2417 138.873C55.3442 139.128 55.6335 139.252 55.8893 139.151L55.7056 138.686ZM174.203 71.055L173.876 70.677L174.203 71.055ZM185.745 59.6999C185.549 59.8943 185.547 60.2109 185.742 60.407C185.936 60.6032 186.253 60.6046 186.449 60.4102L186.097 60.055L185.745 59.6999ZM178.524 46.3943C178.267 46.4946 178.139 46.7845 178.24 47.0418C178.34 47.2991 178.63 47.4264 178.887 47.3261L178.706 46.8602L178.524 46.3943ZM170.408 50.8724C170.66 50.7606 170.775 50.4653 170.663 50.2128C170.551 49.9603 170.256 49.8462 170.003 49.958L170.206 50.4152L170.408 50.8724ZM18.7056 128.131L18.3181 127.815C16.1028 130.532 13.6621 133.74 11.5791 136.932C9.50149 140.116 7.75747 143.317 6.96347 146.015C6.56661 147.363 6.39476 148.625 6.56619 149.715C6.7407 150.824 7.27264 151.751 8.25181 152.372C9.21052 152.98 10.5448 153.261 12.2699 153.215C14.0001 153.169 16.1695 152.792 18.8418 152.036L18.7056 151.555L18.5695 151.074C15.9418 151.818 13.8601 152.172 12.2432 152.216C10.6214 152.259 9.51269 151.988 8.78754 151.528C8.08286 151.08 7.69006 150.424 7.55403 149.559C7.41491 148.675 7.54671 147.575 7.92277 146.297C8.67461 143.743 10.3535 140.64 12.4165 137.479C14.4742 134.326 16.8918 131.147 19.0931 128.447L18.7056 128.131ZM18.7056 151.555L18.8418 152.036C25.1288 150.257 34.5217 147.217 45.88 142.991L45.7056 142.522L45.5312 142.054C34.1925 146.273 24.8255 149.303 18.5695 151.074L18.7056 151.555ZM55.7056 138.686L55.8893 139.151C59.8994 137.568 64.0827 135.861 68.4004 134.035L68.2056 133.574L68.0108 133.114C63.7007 134.937 59.5248 136.64 55.5219 138.221L55.7056 138.686ZM68.2056 133.574L68.0163 133.111L55.5163 138.224L55.7056 138.686L55.8949 139.149L68.3949 134.037L68.2056 133.574ZM84.2056 126.51L84.4147 126.964C114.281 113.212 147.905 94.4752 174.531 71.4331L174.203 71.055L173.876 70.677C147.351 93.6325 113.82 112.323 83.9965 126.055L84.2056 126.51ZM174.203 71.055L174.531 71.4331C176.058 70.1111 177.563 68.7747 179.043 67.4243L178.706 67.055L178.369 66.6857C176.896 68.03 175.397 69.3605 173.876 70.677L174.203 71.055ZM186.097 60.055L186.449 60.4102C191.733 55.1728 195.001 51.2848 196.648 48.4961C197.468 47.1067 197.917 45.9395 197.975 44.9839C198.037 43.9861 197.668 43.2108 196.9 42.7261C196.18 42.272 195.169 42.1117 194.002 42.1334C192.82 42.1554 191.406 42.366 189.823 42.7227C186.656 43.4362 182.743 44.7501 178.524 46.3943L178.706 46.8602L178.887 47.3261C183.088 45.689 186.947 44.3957 190.043 43.6982C191.592 43.3493 192.932 43.1534 194.02 43.1332C195.122 43.1127 195.895 43.2744 196.366 43.5719C196.789 43.8388 197.019 44.2446 196.977 44.9227C196.933 45.643 196.579 46.6464 195.787 47.9877C194.209 50.6603 191.018 54.4738 185.745 59.6999L186.097 60.055ZM170.206 50.4152L170.003 49.958C168.155 50.7759 166.212 51.5176 164.274 52.2772C162.341 53.0344 160.415 53.8082 158.631 54.6825L158.851 55.1315L159.071 55.5805C160.815 54.7261 162.706 53.9654 164.638 53.2083C166.565 52.4537 168.535 51.7015 170.408 50.8724L170.206 50.4152Z" fill="#1A1A1A"/>
<defs>
<clipPath id="clip0_2474_6644">
<rect width="32" height="32" fill="white" transform="translate(2 57.9874) rotate(-17)"/>
</clipPath>
</defs>
</svg>
