<svg width="315" height="227" viewBox="0 0 315 227" fill="none" xmlns="http://www.w3.org/2000/svg">
<path d="M107.262 214.004H108.536L113.618 221.942V214.004H114.864V224H113.632L108.508 216.104V224H107.262V214.004ZM120.159 224.224C119.608 224.224 119.118 224.135 118.689 223.958C118.259 223.781 117.895 223.529 117.597 223.202C117.298 222.875 117.069 222.474 116.911 221.998C116.752 221.522 116.673 220.99 116.673 220.402C116.673 219.814 116.757 219.282 116.925 218.806C117.093 218.33 117.331 217.924 117.639 217.588C117.947 217.252 118.315 216.995 118.745 216.818C119.183 216.631 119.669 216.538 120.201 216.538C120.742 216.538 121.227 216.627 121.657 216.804C122.086 216.981 122.45 217.238 122.749 217.574C123.057 217.901 123.29 218.297 123.449 218.764C123.607 219.231 123.687 219.758 123.687 220.346C123.687 220.943 123.603 221.48 123.435 221.956C123.276 222.432 123.043 222.838 122.735 223.174C122.436 223.51 122.067 223.771 121.629 223.958C121.19 224.135 120.7 224.224 120.159 224.224ZM120.173 223.216C120.565 223.216 120.901 223.146 121.181 223.006C121.461 222.866 121.689 222.67 121.867 222.418C122.053 222.166 122.189 221.867 122.273 221.522C122.357 221.167 122.399 220.78 122.399 220.36C122.399 219.949 122.357 219.571 122.273 219.226C122.189 218.881 122.053 218.587 121.867 218.344C121.689 218.092 121.461 217.896 121.181 217.756C120.901 217.616 120.565 217.546 120.173 217.546C119.781 217.546 119.445 217.616 119.165 217.756C118.894 217.896 118.665 218.092 118.479 218.344C118.301 218.587 118.171 218.881 118.087 219.226C118.003 219.571 117.961 219.954 117.961 220.374C117.961 220.794 118.003 221.177 118.087 221.522C118.171 221.867 118.301 222.166 118.479 222.418C118.656 222.67 118.885 222.866 119.165 223.006C119.445 223.146 119.781 223.216 120.173 223.216ZM134.708 221.55C134.587 222.381 134.269 223.034 133.756 223.51C133.243 223.986 132.519 224.224 131.586 224.224C131.035 224.224 130.545 224.135 130.116 223.958C129.696 223.781 129.341 223.529 129.052 223.202C128.772 222.866 128.557 222.465 128.408 221.998C128.268 221.522 128.198 220.99 128.198 220.402C128.198 219.823 128.277 219.296 128.436 218.82C128.595 218.344 128.823 217.938 129.122 217.602C129.421 217.266 129.785 217.005 130.214 216.818C130.643 216.631 131.129 216.538 131.67 216.538C132.538 216.538 133.21 216.753 133.686 217.182C134.162 217.602 134.465 218.185 134.596 218.932L133.378 219.156C133.331 218.923 133.266 218.708 133.182 218.512C133.107 218.316 133 218.148 132.86 218.008C132.72 217.859 132.547 217.747 132.342 217.672C132.146 217.588 131.908 217.546 131.628 217.546C131.245 217.546 130.919 217.621 130.648 217.77C130.377 217.91 130.153 218.111 129.976 218.372C129.808 218.624 129.682 218.923 129.598 219.268C129.523 219.613 129.486 219.982 129.486 220.374C129.486 220.766 129.523 221.135 129.598 221.48C129.673 221.825 129.794 222.129 129.962 222.39C130.13 222.642 130.349 222.843 130.62 222.992C130.891 223.141 131.222 223.216 131.614 223.216C132.202 223.216 132.636 223.067 132.916 222.768C133.205 222.469 133.392 222.063 133.476 221.55H134.708ZM136.284 214.004H137.502V224H136.284V214.004ZM139.429 216.762H140.647V224H139.429V216.762ZM139.387 214.004H140.689V215.418H139.387V214.004ZM148.803 221.97C148.682 222.67 148.369 223.221 147.865 223.622C147.371 224.023 146.657 224.224 145.723 224.224C144.622 224.224 143.777 223.893 143.189 223.23C142.601 222.558 142.307 221.625 142.307 220.43C142.307 219.805 142.391 219.249 142.559 218.764C142.727 218.279 142.961 217.873 143.259 217.546C143.567 217.219 143.931 216.972 144.351 216.804C144.771 216.627 145.229 216.538 145.723 216.538C146.283 216.538 146.764 216.627 147.165 216.804C147.567 216.981 147.893 217.229 148.145 217.546C148.407 217.854 148.598 218.223 148.719 218.652C148.85 219.081 148.915 219.553 148.915 220.066V220.682H143.539C143.539 221.046 143.586 221.387 143.679 221.704C143.782 222.012 143.922 222.283 144.099 222.516C144.286 222.74 144.515 222.917 144.785 223.048C145.056 223.179 145.369 223.244 145.723 223.244C146.33 223.244 146.773 223.132 147.053 222.908C147.333 222.675 147.525 222.362 147.627 221.97H148.803ZM147.697 219.772C147.697 219.427 147.66 219.114 147.585 218.834C147.511 218.554 147.394 218.316 147.235 218.12C147.077 217.915 146.871 217.756 146.619 217.644C146.367 217.532 146.064 217.476 145.709 217.476C145.065 217.476 144.561 217.672 144.197 218.064C143.843 218.456 143.633 219.025 143.567 219.772H147.697ZM150.53 216.762H151.734V217.868C152.088 217.392 152.48 217.051 152.91 216.846C153.339 216.641 153.792 216.538 154.268 216.538C155.089 216.538 155.696 216.762 156.088 217.21C156.489 217.658 156.69 218.316 156.69 219.184V224H155.472V219.422C155.472 218.75 155.35 218.279 155.108 218.008C154.865 217.728 154.492 217.588 153.988 217.588C153.717 217.588 153.446 217.635 153.176 217.728C152.914 217.821 152.676 217.971 152.462 218.176C152.228 218.381 152.051 218.601 151.93 218.834C151.808 219.058 151.748 219.352 151.748 219.716V224H150.53V216.762ZM158.934 217.728H157.814V216.762H158.934V214.788H160.152V216.762H162.07V217.728H160.152V221.97C160.152 222.325 160.232 222.609 160.39 222.824C160.549 223.039 160.792 223.146 161.118 223.146C161.324 223.146 161.501 223.132 161.65 223.104C161.809 223.076 161.954 223.039 162.084 222.992L162.294 223.93C162.108 223.995 161.902 224.047 161.678 224.084C161.464 224.131 161.207 224.154 160.908 224.154C160.498 224.154 160.166 224.093 159.914 223.972C159.662 223.851 159.462 223.678 159.312 223.454C159.163 223.23 159.06 222.964 159.004 222.656C158.958 222.348 158.934 222.012 158.934 221.648V217.728ZM164.152 221.886C164.236 222.39 164.446 222.745 164.782 222.95C165.127 223.146 165.594 223.244 166.182 223.244C166.798 223.244 167.232 223.141 167.484 222.936C167.745 222.721 167.876 222.441 167.876 222.096C167.876 221.956 167.857 221.825 167.82 221.704C167.792 221.573 167.731 221.461 167.638 221.368C167.544 221.265 167.414 221.177 167.246 221.102C167.078 221.027 166.858 220.967 166.588 220.92L165.664 220.78C165.253 220.715 164.894 220.631 164.586 220.528C164.278 220.425 164.016 220.295 163.802 220.136C163.587 219.968 163.424 219.767 163.312 219.534C163.209 219.291 163.158 219.002 163.158 218.666C163.158 218.33 163.228 218.031 163.368 217.77C163.517 217.509 163.718 217.289 163.97 217.112C164.231 216.925 164.534 216.785 164.88 216.692C165.234 216.589 165.617 216.538 166.028 216.538C166.55 216.538 166.984 216.589 167.33 216.692C167.684 216.795 167.974 216.935 168.198 217.112C168.422 217.289 168.594 217.499 168.716 217.742C168.837 217.985 168.93 218.241 168.996 218.512L167.89 218.694C167.824 218.498 167.75 218.325 167.666 218.176C167.582 218.027 167.47 217.905 167.33 217.812C167.19 217.709 167.017 217.635 166.812 217.588C166.616 217.532 166.368 217.504 166.07 217.504C165.734 217.504 165.454 217.537 165.23 217.602C165.006 217.658 164.824 217.737 164.684 217.84C164.553 217.943 164.46 218.059 164.404 218.19C164.348 218.311 164.32 218.442 164.32 218.582C164.32 218.731 164.338 218.867 164.376 218.988C164.413 219.1 164.483 219.203 164.586 219.296C164.688 219.38 164.828 219.455 165.006 219.52C165.183 219.585 165.412 219.641 165.692 219.688L166.742 219.856C167.591 219.996 168.198 220.239 168.562 220.584C168.935 220.929 169.122 221.433 169.122 222.096C169.122 222.404 169.061 222.689 168.94 222.95C168.818 223.202 168.636 223.426 168.394 223.622C168.151 223.809 167.848 223.953 167.484 224.056C167.12 224.168 166.695 224.224 166.21 224.224C165.771 224.224 165.36 224.182 164.978 224.098C164.604 224.014 164.273 223.883 163.984 223.706C163.694 223.519 163.461 223.277 163.284 222.978C163.106 222.679 163.004 222.315 162.976 221.886H164.152ZM174.233 217.728H173.099V216.762H174.233V216.132C174.233 215.74 174.289 215.404 174.401 215.124C174.523 214.844 174.681 214.615 174.877 214.438C175.083 214.251 175.316 214.116 175.577 214.032C175.848 213.939 176.133 213.892 176.431 213.892C176.646 213.892 176.851 213.906 177.047 213.934C177.243 213.953 177.449 213.995 177.663 214.06L177.467 215.012C177.318 214.965 177.173 214.937 177.033 214.928C176.903 214.909 176.772 214.9 176.641 214.9C176.315 214.9 176.035 214.989 175.801 215.166C175.568 215.334 175.451 215.647 175.451 216.104V216.762H177.285V217.728H175.451V224H174.233V217.728ZM181.45 224.224C180.899 224.224 180.409 224.135 179.98 223.958C179.55 223.781 179.186 223.529 178.888 223.202C178.589 222.875 178.36 222.474 178.202 221.998C178.043 221.522 177.964 220.99 177.964 220.402C177.964 219.814 178.048 219.282 178.216 218.806C178.384 218.33 178.622 217.924 178.93 217.588C179.238 217.252 179.606 216.995 180.036 216.818C180.474 216.631 180.96 216.538 181.492 216.538C182.033 216.538 182.518 216.627 182.948 216.804C183.377 216.981 183.741 217.238 184.04 217.574C184.348 217.901 184.581 218.297 184.74 218.764C184.898 219.231 184.978 219.758 184.978 220.346C184.978 220.943 184.894 221.48 184.726 221.956C184.567 222.432 184.334 222.838 184.026 223.174C183.727 223.51 183.358 223.771 182.92 223.958C182.481 224.135 181.991 224.224 181.45 224.224ZM181.464 223.216C181.856 223.216 182.192 223.146 182.472 223.006C182.752 222.866 182.98 222.67 183.158 222.418C183.344 222.166 183.48 221.867 183.564 221.522C183.648 221.167 183.69 220.78 183.69 220.36C183.69 219.949 183.648 219.571 183.564 219.226C183.48 218.881 183.344 218.587 183.158 218.344C182.98 218.092 182.752 217.896 182.472 217.756C182.192 217.616 181.856 217.546 181.464 217.546C181.072 217.546 180.736 217.616 180.456 217.756C180.185 217.896 179.956 218.092 179.77 218.344C179.592 218.587 179.462 218.881 179.378 219.226C179.294 219.571 179.252 219.954 179.252 220.374C179.252 220.794 179.294 221.177 179.378 221.522C179.462 221.867 179.592 222.166 179.77 222.418C179.947 222.67 180.176 222.866 180.456 223.006C180.736 223.146 181.072 223.216 181.464 223.216ZM186.568 216.762H187.786V221.326C187.786 221.998 187.893 222.474 188.108 222.754C188.332 223.034 188.691 223.174 189.186 223.174C189.727 223.174 190.217 222.978 190.656 222.586C190.889 222.381 191.067 222.166 191.188 221.942C191.309 221.709 191.37 221.41 191.37 221.046V216.762H192.588V224H191.384V222.88C191.029 223.347 190.647 223.687 190.236 223.902C189.825 224.117 189.382 224.224 188.906 224.224C188.085 224.224 187.487 224.005 187.114 223.566C186.75 223.118 186.568 222.451 186.568 221.564V216.762ZM194.458 216.762H195.662V217.868C196.016 217.392 196.408 217.051 196.838 216.846C197.267 216.641 197.72 216.538 198.196 216.538C199.017 216.538 199.624 216.762 200.016 217.21C200.417 217.658 200.618 218.316 200.618 219.184V224H199.4V219.422C199.4 218.75 199.278 218.279 199.036 218.008C198.793 217.728 198.42 217.588 197.916 217.588C197.645 217.588 197.374 217.635 197.104 217.728C196.842 217.821 196.604 217.971 196.39 218.176C196.156 218.381 195.979 218.601 195.858 218.834C195.736 219.058 195.676 219.352 195.676 219.716V224H194.458V216.762ZM207.706 222.964C207.407 223.365 207.062 223.678 206.67 223.902C206.278 224.117 205.816 224.224 205.284 224.224C204.752 224.224 204.29 224.126 203.898 223.93C203.515 223.734 203.198 223.468 202.946 223.132C202.694 222.787 202.507 222.381 202.386 221.914C202.265 221.447 202.204 220.948 202.204 220.416C202.204 219.819 202.279 219.282 202.428 218.806C202.577 218.321 202.787 217.91 203.058 217.574C203.338 217.238 203.674 216.981 204.066 216.804C204.467 216.627 204.92 216.538 205.424 216.538C205.807 216.538 206.194 216.617 206.586 216.776C206.978 216.925 207.342 217.215 207.678 217.644V214.004H208.896V224H207.706V222.964ZM207.72 220.164C207.72 219.585 207.655 219.137 207.524 218.82C207.403 218.493 207.197 218.218 206.908 217.994C206.703 217.826 206.493 217.709 206.278 217.644C206.073 217.579 205.844 217.546 205.592 217.546C205.293 217.546 205.013 217.597 204.752 217.7C204.5 217.803 204.276 217.971 204.08 218.204C203.893 218.428 203.744 218.722 203.632 219.086C203.529 219.441 203.478 219.875 203.478 220.388C203.478 220.92 203.534 221.368 203.646 221.732C203.767 222.096 203.921 222.385 204.108 222.6C204.304 222.815 204.519 222.969 204.752 223.062C204.995 223.155 205.242 223.202 205.494 223.202C205.765 223.202 206.007 223.169 206.222 223.104C206.437 223.039 206.651 222.927 206.866 222.768C207.146 222.544 207.356 222.264 207.496 221.928C207.645 221.592 207.72 221.167 207.72 220.654V220.164Z" fill="#414562"/>
<path d="M1.09922 170.898C-2.88399 149.826 3.90169 125.804 22.3785 120.856C34.557 117.612 47.549 113.145 59.0365 107.542C69.1596 102.599 85.4911 75.045 110.021 66.2441C161.362 47.8233 186.512 110.646 198.281 107.542C210.05 104.438 223.857 105.453 232.215 115.359C238.245 122.511 240.873 133.577 248.646 138.055C255.384 141.934 263.504 139.37 271.013 140.349C288.284 142.608 299.226 162.566 314.991 170.898" fill="#E9EDF1"/>
<path d="M36.8613 140.745C36.8613 154.275 28.8025 159 18.8613 159C8.9202 159 0.861328 154.275 0.861328 140.745C0.861328 127.214 18.8613 110 18.8613 110C18.8613 110 36.8613 127.214 36.8613 140.745Z" fill="#DFE4EA"/>
<path d="M18.0523 156.67L18.2355 145.408L25.8613 131.476L18.2643 143.642L18.3466 138.578L23.6023 128.499L18.3685 137.238V137.238L18.5165 128.131L24.1445 120.107L18.5399 126.699L18.6324 110L18.0508 132.107L18.0985 131.195L12.3765 122.448L18.0068 132.945L17.4736 143.116L17.4577 142.846L10.8613 133.642L17.4377 143.8L17.371 145.072L17.3592 145.091L17.3646 145.195L16.0119 171H17.8192L18.0361 157.671L24.5963 147.538L18.0523 156.67V156.67Z" fill="#3F3D56"/>
<rect x="112.361" y="34.5" width="87" height="131" rx="5.5" fill="white" fill-opacity="0.5" stroke="#464D5F" stroke-dasharray="4 4"/>
<path fill-rule="evenodd" clip-rule="evenodd" d="M73.3919 32.4802C72.4212 29.3051 74.2136 25.9452 77.3915 24.9833L139.415 6.20904L148.975 12.5185L161.388 19.8514L192.324 120.53C193.298 123.701 191.514 127.061 188.342 128.03L115.671 150.248C112.502 151.217 109.148 149.433 108.179 146.265L73.3919 32.4802Z" fill="#DDE3E9"/>
<path fill-rule="evenodd" clip-rule="evenodd" d="M69.5335 33.4424C68.5647 30.2735 70.3482 26.9192 73.5171 25.9504L134.809 7.21167L147.568 16.0021L157.989 21.7817L188.481 121.514C189.449 124.683 187.666 128.037 184.497 129.006L111.818 151.226C108.649 152.195 105.295 150.412 104.326 147.243L69.5335 33.4424Z" fill="white"/>
<path fill-rule="evenodd" clip-rule="evenodd" d="M103.008 47.9816L134.091 38.4783Z" fill="#D8D8D8"/>
<path d="M103.008 47.9816L134.091 38.4783" stroke="#DFE4EA" stroke-linecap="round"/>
<path fill-rule="evenodd" clip-rule="evenodd" d="M109.298 52.8631L131.293 46.1385Z" fill="#D8D8D8"/>
<path d="M109.298 52.8631L131.293 46.1385" stroke="#DFE4EA" stroke-linecap="round"/>
<path fill-rule="evenodd" clip-rule="evenodd" d="M158.154 21.8656L146.437 25.4408C143.732 26.2663 140.881 24.6849 140.149 21.9525L136.828 9.56042L158.154 21.8656Z" fill="#BDC2CD" fill-opacity="0.272645"/>
<path d="M74.4252 28.7605L74.01 29.039L74.2885 29.4542L74.7037 29.1757L74.4252 28.7605ZM75.7515 28.1313L75.8977 28.6094L76.3759 28.4632L76.2297 27.9851L75.7515 28.1313ZM73.311 27.0996L73.0325 26.6843L72.6172 26.9629L72.8958 27.3781L73.311 27.0996ZM75.1668 26.2187L75.6449 26.0725L75.4988 25.5943L75.0206 25.7405L75.1668 26.2187ZM75.313 26.6968L74.8348 26.843L74.981 27.3211L75.4592 27.175L75.313 26.6968ZM83.2673 24.2649L83.7455 24.1187L83.5993 23.6406L83.1211 23.7868L83.2673 24.2649ZM83.5597 25.2212L83.7059 25.6994L84.184 25.5532L84.0378 25.075L83.5597 25.2212ZM75.6053 27.6531L75.4592 27.175L74.981 27.3211L75.1272 27.7993L75.6053 27.6531ZM72.2118 32.9232L72.7118 32.922L72.7106 32.422L72.2106 32.4232L72.2118 32.9232ZM72.977 36.1578L73.1232 36.636L73.6014 36.4898L73.4552 36.0116L72.977 36.1578ZM71.0644 36.7426L70.5863 36.8887L70.7325 37.3669L71.2106 37.2207L71.0644 36.7426ZM70.2118 32.9283L70.2106 32.4283L69.7106 32.4295L69.7118 32.9295L70.2118 32.9283ZM75.8846 45.668L76.0308 46.1462L76.5089 46L76.3627 45.5218L75.8846 45.668ZM74.7943 42.1017L75.2724 41.9555L75.1262 41.4773L74.6481 41.6235L74.7943 42.1017ZM73.972 46.2528L73.4938 46.3989L73.64 46.8771L74.1182 46.7309L73.972 46.2528ZM72.8817 42.6864L72.7355 42.2083L72.2573 42.3545L72.4035 42.8326L72.8817 42.6864ZM78.247 53.395L78.3932 53.8732L78.8713 53.727L78.7251 53.2489L78.247 53.395ZM77.7018 51.6119L78.18 51.4657L78.0338 50.9875L77.5556 51.1337L77.7018 51.6119ZM76.3344 53.9798L75.8562 54.126L76.0024 54.6041L76.4806 54.4579L76.3344 53.9798ZM75.7892 52.1966L75.643 51.7185L75.1649 51.8647L75.3111 52.3428L75.7892 52.1966ZM80.1017 64.5921L79.6236 64.7382L79.7698 65.2164L80.2479 65.0702L80.1017 64.5921ZM77.8532 57.2374L77.707 56.7592L77.2288 56.9054L77.375 57.3836L77.8532 57.2374ZM81.058 64.2997L81.2042 64.7778L81.6824 64.6317L81.5362 64.1535L81.058 64.2997ZM78.8095 56.945L79.2876 56.7988L79.1414 56.3207L78.6633 56.4669L78.8095 56.945ZM74.7037 29.1757C75.0612 28.9359 75.4607 28.743 75.8977 28.6094L75.6053 27.6531C75.0734 27.8158 74.5848 28.0513 74.1466 28.3452L74.7037 29.1757ZM72.8958 27.3781L74.01 29.039L74.8404 28.4819L73.7262 26.821L72.8958 27.3781ZM75.0206 25.7405C74.2987 25.9612 73.6319 26.2822 73.0325 26.6843L73.5895 27.5148C74.1084 27.1668 74.686 26.8885 75.313 26.6968L75.0206 25.7405ZM75.7911 26.5506L75.6449 26.0725L74.6886 26.3648L74.8348 26.843L75.7911 26.5506ZM83.1211 23.7868L75.1668 26.2187L75.4592 27.175L83.4135 24.7431L83.1211 23.7868ZM84.0378 25.075L83.7455 24.1187L82.7892 24.4111L83.0815 25.3674L84.0378 25.075ZM75.7515 28.1313L83.7059 25.6994L83.4135 24.7431L75.4592 27.175L75.7515 28.1313ZM76.2297 27.9851L76.0835 27.5069L75.1272 27.7993L75.2734 28.2775L76.2297 27.9851ZM72.91 34.2285C72.7764 33.7914 72.7129 33.3524 72.7118 32.922L71.7118 32.9245C71.7131 33.452 71.7911 33.9889 71.9537 34.5208L72.91 34.2285ZM73.4552 36.0116L72.91 34.2285L71.9537 34.5208L72.4989 36.304L73.4552 36.0116ZM71.2106 37.2207L73.1232 36.636L72.8308 35.6797L70.9182 36.2644L71.2106 37.2207ZM70.0411 35.1056L70.5863 36.8887L71.5426 36.5964L70.9974 34.8132L70.0411 35.1056ZM69.7118 32.9295C69.7136 33.6514 69.8204 34.3837 70.0411 35.1056L70.9974 34.8132C70.8057 34.1863 70.7134 33.5517 70.7118 32.927L69.7118 32.9295ZM72.2106 32.4232L70.2106 32.4283L70.2131 33.4283L72.2131 33.4232L72.2106 32.4232ZM76.3627 45.5218L75.2724 41.9555L74.3161 42.2479L75.4064 45.8142L76.3627 45.5218ZM74.1182 46.7309L76.0308 46.1462L75.7384 45.1899L73.8258 45.7746L74.1182 46.7309ZM72.4035 42.8326L73.4938 46.3989L74.4501 46.1066L73.3598 42.5402L72.4035 42.8326ZM74.6481 41.6235L72.7355 42.2083L73.0278 43.1646L74.9404 42.5798L74.6481 41.6235ZM78.7251 53.2489L78.18 51.4657L77.2237 51.7581L77.7688 53.5412L78.7251 53.2489ZM76.4806 54.4579L78.3932 53.8732L78.1008 52.9169L76.1882 53.5016L76.4806 54.4579ZM75.3111 52.3428L75.8562 54.126L76.8125 53.8336L76.2674 52.0504L75.3111 52.3428ZM77.5556 51.1337L75.643 51.7185L75.9354 52.6748L77.848 52.09L77.5556 51.1337ZM80.5799 64.4459L78.3313 57.0912L77.375 57.3836L79.6236 64.7382L80.5799 64.4459ZM80.9118 63.8215L79.9555 64.1139L80.2479 65.0702L81.2042 64.7778L80.9118 63.8215ZM78.3313 57.0912L80.5799 64.4459L81.5362 64.1535L79.2876 56.7988L78.3313 57.0912ZM77.9994 57.7156L78.9557 57.4232L78.6633 56.4669L77.707 56.7592L77.9994 57.7156Z" fill="#C3C8CD" fill-opacity="0.341865"/>
<path fill-rule="evenodd" clip-rule="evenodd" d="M70.5348 82.5265C72.1397 83.8088 73.7893 84.5513 74.6254 84.4603C76.7219 84.2323 77.9304 76.984 76.767 73.896C75.6036 70.808 67.7263 68.4263 66.5219 74.0513C66.1038 76.0036 66.6995 77.882 67.7433 79.4932L64.0729 89.4041L70.5606 90.3159L70.5348 82.5265Z" fill="#CDD2DD"/>
<path fill-rule="evenodd" clip-rule="evenodd" d="M74.2203 70.3665C73.3711 69.9764 72.5198 69.7514 71.9699 69.7362C72.3797 69.0548 72.6154 68.2646 72.6262 67.4644C72.6367 66.6869 70.1108 65.1378 67.3356 65.9721C64.5604 66.8065 63.4576 69.1214 63.9565 69.8584C64.4018 70.5162 65.1228 71.0104 65.8472 71.2841C65.2723 71.7718 63.9565 72.0937 63.6744 75.411C63.3923 78.7282 65.7992 80.4469 66.1059 80.5554C66.6864 80.7607 67.3779 80.8367 67.9039 80.4342C68.0935 80.2891 68.3057 80.1031 68.4556 79.9143C68.5095 79.8465 68.5426 79.8018 68.4999 79.722C68.4487 79.6265 68.3556 79.5457 68.2837 79.4665C67.874 79.0149 67.6593 78.4588 67.673 77.8357C67.6869 77.2034 67.9698 76.4246 68.6236 76.2397C69.4306 76.0115 70.2134 76.5137 70.8384 76.9671C71.2653 76.0123 71.9806 75.1992 72.9688 74.8726C74.0621 74.5113 75.2435 74.6171 76.355 74.3315C76.6446 74.257 76.6582 74.3631 76.8921 74.1614C76.9898 74.0771 75.0695 70.7566 74.2203 70.3665Z" fill="#3B4151"/>
<path fill-rule="evenodd" clip-rule="evenodd" d="M59.6055 112.119L66.1805 147.22L66.1805 175.481L71.0545 176.166L69.7118 114.987L59.6055 112.119Z" fill="#CDD3DE"/>
<path fill-rule="evenodd" clip-rule="evenodd" d="M59.4013 110.846C57.5684 129.115 51.4545 139.605 51.0612 141.233C50.668 142.861 47.6375 156.23 38.6806 174.704L43.8713 174.704C54.7405 157.301 59.618 144.921 60.908 142.617C62.198 140.312 66.3887 130.796 72.9164 113.99L59.4013 110.846Z" fill="#CDD3DE"/>
<path fill-rule="evenodd" clip-rule="evenodd" d="M59.3828 112.088C60.3771 124.499 67.8897 140.157 65.329 171.463L71.6565 171.673C75.989 144.666 74.4036 128.254 72.3127 114.987L59.3828 112.088Z" fill="#3B4151"/>
<path fill-rule="evenodd" clip-rule="evenodd" d="M58.8261 111.718C57.5276 113.94 52.0896 120.025 50.9998 125.532C47.1894 144.786 49.2186 149.081 39.4264 171.036L46.3994 171.036C57.2449 153.913 62.8896 133.363 70.0089 112.119L58.8261 111.718Z" fill="#464D5F"/>
<path fill-rule="evenodd" clip-rule="evenodd" d="M37.6138 176.601L38.7016 173.548C38.9161 172.946 39.6404 172.692 40.2422 172.907C42.4343 173.69 45.2468 173.551 45.2468 173.551C47.3625 176.15 50.645 178.217 52.6743 179.342C53.6186 179.865 53.9755 181.087 53.402 182.001V182.001L43.6274 179.199L37.9255 177.564L37.6138 176.601Z" fill="#8A92A2"/>
<path fill-rule="evenodd" clip-rule="evenodd" d="M64.793 179.737L65.1098 176.511C65.1723 175.875 65.8136 175.453 66.4495 175.516C68.7659 175.746 71.4613 174.931 71.4613 174.931C74.1428 176.94 77.828 178.152 80.0692 178.753C81.112 179.032 81.7539 180.131 81.4186 181.157V181.157L71.2563 180.802L65.3283 180.595L64.793 179.737Z" fill="#8A92A2"/>
<path fill-rule="evenodd" clip-rule="evenodd" d="M86.2433 95.2993L76.4379 98.1128L78.1487 100.943L86.7854 98.1128C88.6563 97.8674 89.7975 97.861 90.4454 97.8574C91.1178 97.8537 91.259 97.8529 91.1331 97.591C90.9213 97.1501 90.1989 96.8872 89.5563 96.6533C89.0741 96.4778 88.6367 96.3186 88.4935 96.1128C88.1592 95.6328 87.9127 95.1108 87.9127 94C87.9127 93.2924 87.981 93.0349 87.9013 92.9752C87.8558 92.9411 87.7622 92.9714 87.5805 93.0192C87.2733 93.5314 87.2097 93.894 87.1584 94.187C87.0817 94.624 87.0322 94.9064 86.2433 95.2993ZM94.842 104.054L90.3044 105.786L89.9477 110.064C89.9477 110.064 92.9529 108.471 95.3916 108.143C98.5011 107.726 99.8015 107.256 101.526 105.59C102.449 104.699 103.396 102.78 102.744 102.02C102.493 101.728 101.346 102.173 100.175 102.626C99.2823 102.972 98.3763 103.322 97.8437 103.357C97.1268 103.403 97.3358 102.507 97.5029 101.792C97.6227 101.278 97.721 100.857 97.4399 100.943C96.2043 100.791 94.842 104.054 94.842 104.054Z" fill="#CED4DE"/>
<path fill-rule="evenodd" clip-rule="evenodd" d="M71.4065 97.0594C74.7677 97.403 79.3455 97.3206 84.5588 95.3734L85.8298 98.9995C82.0635 101.305 77.0439 102.986 73.0107 102.444C69.8322 102.016 68.7591 98.6803 71.4065 97.0594Z" fill="#8A92A2"/>
<path fill-rule="evenodd" clip-rule="evenodd" d="M52.8635 122.542C52.2492 122.806 51.8194 122.99 51.6432 123C56.1783 111.006 56.8841 103.381 57.3801 98.0223C57.7266 94.2794 57.9707 91.642 59.3459 89.3938C60.6226 87.3064 65.2404 85.6454 65.4726 85.6781L65.7138 85.712L72.3736 86.6479L73.136 86.7551C73.0833 87.6014 72.9843 88.209 72.8997 88.729C72.7501 89.6477 72.645 90.2928 72.9178 91.4971C73.0522 92.0908 73.78 93.3914 74.4461 94.5818C74.9582 95.497 75.4339 96.3471 75.5755 96.7608C76.3081 98.9008 75.1394 102.21 73.9579 104.232C74.0951 104.333 74.2394 104.422 74.3911 104.5C79.3446 107.027 93.3643 104.132 93.3643 104.132C93.3643 104.132 93.9881 105.778 93.3643 108.508C84.5419 111.664 77.565 112.687 72.3434 112.139C72.5044 112.696 72.6949 113.31 72.9178 113.99C74.539 118.933 74.4321 127.582 74.3744 132.25C74.3561 133.73 74.3428 134.81 74.3911 135.243C74.4262 135.559 73.5109 134.087 72.2252 132.018C70.1184 128.627 67.017 123.637 65.4726 122.293C61.4999 118.835 55.4924 121.414 52.8635 122.542Z" fill="#8A92A2"/>
<path fill-rule="evenodd" clip-rule="evenodd" d="M280.338 110.304C281.073 110.213 281.857 110.245 282.54 110.538C283.993 111.16 284.406 112.891 284.386 114.299C284.364 115.813 284.046 117.468 285.187 118.689C285.712 119.25 286.365 119.679 286.88 120.25C287.43 120.861 287.862 121.56 288.182 122.31C288.769 123.688 289.058 125.309 288.521 126.755C288.048 128.027 286.858 129.176 287.115 130.624C287.383 132.134 288.892 133.288 289.835 134.412C290.903 135.685 291.886 137.312 292.047 138.981C292.202 140.58 291.512 142.198 290.453 143.407C288.337 145.823 285.156 147.007 281.949 147C280.588 146.997 279.046 146.935 277.871 146.197C277.508 145.968 277.316 145.712 277.1 145.356C276.907 145.037 276.651 144.83 276.355 144.604C275.705 144.108 275.235 143.439 274.935 142.691C273.772 139.785 274.702 136.189 276.331 133.608C276.717 132.997 277.033 132.408 276.845 131.68C276.65 130.919 276.169 130.233 275.743 129.579C275.323 128.932 274.843 128.316 274.514 127.617C274.17 126.885 274.073 126.118 274.134 125.317C274.248 123.812 274.892 122.423 275.804 121.213C276.682 120.047 277.713 118.931 277.716 117.404C277.718 115.785 276.645 114.345 277.102 112.698C277.292 112.017 277.672 111.318 278.284 110.909C278.872 110.517 279.647 110.389 280.338 110.304Z" fill="#DDE3E9"/>
<path fill-rule="evenodd" clip-rule="evenodd" d="M279.857 112.892C279.871 112.674 280.127 112.544 280.328 112.601C280.593 112.675 280.588 112.925 280.581 113.148C280.56 113.832 280.658 114.496 280.821 115.16C281.159 116.539 281.785 117.81 282.281 119.136C282.776 120.46 283.009 121.827 282.718 123.228C282.444 124.549 282.014 125.836 281.733 127.159C281.486 128.324 281.223 129.554 281.6 130.717C281.962 131.836 282.763 132.747 283.339 133.759C284.533 135.853 285.062 138.176 285.133 140.566C285.166 141.677 285.136 142.797 284.881 143.886C284.734 144.512 284.537 145.36 284.004 145.792C283.759 145.992 283.339 146.061 283.132 145.766C282.938 145.488 283.108 145.059 283.17 144.764C283.437 143.485 283.49 142.177 283.426 140.879C283.365 139.621 283.217 138.365 282.825 137.163C282.461 136.048 281.907 135.047 281.256 134.071C280.592 133.077 279.903 132.081 279.628 130.903C279.35 129.707 279.576 128.49 279.879 127.317C280.199 126.076 280.618 124.87 281.051 123.663C281.474 122.486 281.623 121.373 281.39 120.142C280.93 117.709 279.697 115.425 279.857 112.892Z" fill="white"/>
<path fill-rule="evenodd" clip-rule="evenodd" d="M299.332 114.398C300.287 114.668 301.235 115.105 301.915 115.79C303.362 117.245 302.918 119.445 302.119 121.052C301.26 122.782 299.957 124.521 300.691 126.505C301.029 127.418 301.596 128.244 301.916 129.163C302.258 130.146 302.406 131.169 302.387 132.194C302.352 134.077 301.816 136.086 300.36 137.474C299.077 138.695 296.981 139.409 296.501 141.203C296.001 143.074 297.224 145.17 297.767 146.943C298.381 148.95 298.697 151.321 297.978 153.321C297.289 155.238 295.55 156.744 293.58 157.594C289.646 159.291 285.078 159.03 281.133 157.386C279.458 156.688 277.594 155.83 276.553 154.382C276.232 153.935 276.137 153.543 276.066 153.024C276.004 152.559 275.803 152.19 275.563 151.779C275.035 150.878 274.824 149.87 274.867 148.858C275.032 144.925 278.155 141.267 281.58 139.133C282.392 138.627 283.105 138.112 283.275 137.179C283.452 136.205 283.237 135.171 283.073 134.203C282.911 133.246 282.659 132.292 282.639 131.322C282.618 130.305 282.92 129.375 283.436 128.485C284.404 126.814 285.961 125.547 287.749 124.621C289.472 123.729 291.355 122.973 292.198 121.219C293.091 119.36 292.563 117.158 294.031 115.499C294.639 114.813 295.491 114.203 296.47 114.046C297.409 113.895 298.435 114.143 299.332 114.398Z" fill="#DDE3E9"/>
<path fill-rule="evenodd" clip-rule="evenodd" d="M297.383 117.472C297.518 117.229 297.903 117.21 298.119 117.379C298.404 117.601 298.261 117.886 298.131 118.138C297.732 118.914 297.491 119.729 297.329 120.576C296.993 122.338 297.069 124.122 296.955 125.901C296.842 127.68 296.382 129.372 295.262 130.835C294.206 132.214 292.976 133.474 291.911 134.852C290.972 136.066 289.979 137.345 289.808 138.877C289.642 140.351 290.128 141.811 290.285 143.271C290.609 146.294 289.993 149.239 288.777 152.026C288.213 153.32 287.566 154.594 286.659 155.715C286.137 156.361 285.433 157.234 284.544 157.459C284.133 157.562 283.58 157.426 283.488 156.98C283.401 156.561 283.843 156.155 284.08 155.846C285.105 154.512 285.883 153.035 286.512 151.508C287.122 150.029 287.625 148.508 287.799 146.924C287.959 145.454 287.826 144.017 287.558 142.56C287.285 141.076 286.981 139.575 287.286 138.079C287.596 136.559 288.537 135.275 289.548 134.081C290.617 132.817 291.789 131.645 292.979 130.479C294.138 129.342 294.929 128.138 295.313 126.601C296.074 123.566 295.805 120.305 297.383 117.472Z" fill="white"/>
<path fill-rule="evenodd" clip-rule="evenodd" d="M271.188 125C272.661 125 273.957 125.787 274.85 126.904C275.895 128.212 276.106 129.809 276.53 131.368C276.741 132.143 277.104 132.913 277.741 133.44C278.32 133.92 279.054 134.016 279.747 134.25C281.132 134.718 282.25 135.845 282.692 137.22C283.23 138.898 282.66 140.59 282.758 142.29C282.848 143.852 284.376 144.826 285.605 145.575C286.817 146.313 287.908 147.004 288.273 148.442C288.661 149.967 288.79 151.669 288.254 153.176C287.362 155.684 284.749 156.789 282.225 156.96C279.935 157.116 277.054 156.872 275.334 155.196C274.305 154.193 273.932 152.79 273.978 151.395C274.007 150.527 274.177 149.668 274.398 148.829C274.554 148.235 274.765 147.643 274.825 147.029C274.985 145.395 273.487 145.081 272.212 144.632C270.591 144.062 269.456 142.985 268.667 141.485C267.933 140.088 267.624 138.52 268.065 136.982C268.29 136.197 268.698 135.484 269.251 134.878C269.495 134.612 269.838 134.389 270.058 134.109C270.263 133.847 270.218 133.508 270.148 133.202C269.821 131.786 268.802 130.613 268.437 129.2C268.109 127.924 268.303 126.336 269.46 125.513C269.96 125.158 270.577 125.004 271.188 125Z" fill="#C5CFD6"/>
<path fill-rule="evenodd" clip-rule="evenodd" d="M273.196 128.689C274.758 130.366 275.182 132.641 275.307 134.846C275.376 136.082 275.304 137.387 275.664 138.586C275.973 139.612 276.696 140.397 277.441 141.139C278.941 142.632 280.614 144.149 281.053 146.31C281.31 147.578 281.136 148.888 281.492 150.142C281.816 151.281 282.385 152.401 283.078 153.364C283.636 154.139 284.362 154.732 284.972 155.455C285.158 155.675 285.425 156 285.348 156.311C285.258 156.676 284.797 156.791 284.47 156.734C283.708 156.601 283.066 155.867 282.568 155.334C281.839 154.554 281.219 153.715 280.716 152.774C280.157 151.729 279.707 150.62 279.515 149.447C279.315 148.231 279.415 146.964 278.959 145.796C278.192 143.832 276.333 142.673 274.988 141.142C273.313 139.235 273.563 136.861 273.735 134.514C273.829 133.225 273.923 131.768 273.276 130.591C273.029 130.142 272.479 129.723 272.373 129.212C272.276 128.744 272.806 128.271 273.196 128.689Z" fill="white"/>
<ellipse cx="285.861" cy="163.5" rx="10" ry="7.5" fill="#8A92A2"/>
<path fill-rule="evenodd" clip-rule="evenodd" d="M225.046 78.5568C223.281 79.9255 221.476 80.7036 220.57 80.5877C218.299 80.2968 217.118 72.3557 218.437 69.0059C219.756 65.6562 228.35 63.2115 229.556 69.3795C229.974 71.5202 229.293 73.5601 228.131 75.2992L231.936 86.1976L224.877 87.0644L225.046 78.5568Z" fill="#CDD2DD"/>
<path fill-rule="evenodd" clip-rule="evenodd" d="M223.735 70.7919C223.014 69.9681 222.344 69.3546 221.532 69.0501C218.435 69.4796 218.004 68.9743 217.776 67.1207C218.234 66.7046 219.929 65.8904 221.889 65.4793C222.865 65.0694 224.068 64.9762 225.28 65.3114C226.752 65.5358 228.063 66.2476 228.793 67.7918C231.123 70.841 230.081 74.4409 228.254 75.8512C227.654 75.3014 227.124 74.7624 226.645 74.2428C226.934 73.8857 227.084 73.4186 227.024 72.9295C226.905 71.9661 226.019 71.282 225.045 71.4017C224.973 71.4105 224.903 71.4234 224.834 71.4401C224.939 72.6501 225.258 76.7477 224.958 78.2216C224.604 79.9592 221.393 80.7694 220.255 80.9091C219.273 81.0297 219.193 80.1059 219.136 79.4438C219.128 79.3485 219.12 79.2586 219.11 79.178C219.09 79.0096 219.311 78.9828 219.562 78.9526C219.887 78.9133 220.261 78.8682 220.215 78.4995C220.166 78.0976 219.566 77.8584 219.03 77.6443C218.695 77.5107 218.385 77.3869 218.248 77.2395C217.817 76.7746 217.608 76.1017 218.164 76.0334C218.468 75.9961 218.907 76.1182 219.434 76.265C220.231 76.4867 221.23 76.7649 222.276 76.6364C224.004 76.4242 223.738 70.8615 223.735 70.7919Z" fill="#3B4151"/>
<path fill-rule="evenodd" clip-rule="evenodd" d="M236.889 111L226.022 147.97L220.91 175.728H215.78L220.901 111H236.889Z" fill="#B28B67"/>
<path fill-rule="evenodd" clip-rule="evenodd" d="M236.889 111L226.022 147.97L220.91 175.728H215.78L220.901 111H236.889Z" fill="#CED4DE"/>
<path fill-rule="evenodd" clip-rule="evenodd" d="M241.771 111C241.012 130.206 241.312 140.681 241.481 142.426C241.651 144.171 242.614 155.857 249.18 176.314H243.844C235.149 156.689 232.114 145.003 231.117 142.426C230.119 139.849 227.174 129.374 222.874 111H241.771Z" fill="#CED4DE"/>
<path fill-rule="evenodd" clip-rule="evenodd" d="M237.121 111C234.294 123.722 229.405 144.028 222.454 171.921L215.306 170.125C217.333 141.568 217.881 125.807 220.9 111H237.121Z" fill="#3B4151"/>
<path fill-rule="evenodd" clip-rule="evenodd" d="M239.755 111C239.599 115.048 241.621 120.11 240.947 125.484C238.922 141.63 244.248 153.995 248.953 172.22H240.947C232.237 152.888 225.993 134.06 221.727 111H239.755Z" fill="#464D5F"/>
<path fill-rule="evenodd" clip-rule="evenodd" d="M246.896 175.882C248.037 175.66 249.342 176.032 249.579 177.171C249.62 177.365 249.645 177.543 249.645 177.688C249.645 178.48 249.377 180 249.377 180C248.446 180 232.645 180 232.645 180C232.645 180 231.992 177.871 233.398 177.701C234.803 177.532 235.732 177.395 235.732 177.395L242.855 174.26C243.368 174.034 243.965 174.273 244.181 174.79L244.404 175.325C244.404 175.325 245.705 175.924 246.519 175.924C246.632 175.924 246.759 175.909 246.896 175.882Z" fill="#8A92A2"/>
<path fill-rule="evenodd" clip-rule="evenodd" d="M219.009 174.882C220.151 174.66 221.456 175.032 221.693 176.171C221.733 176.365 221.758 176.543 221.758 176.688C221.758 177.48 221.49 179 221.49 179C220.56 179 204.758 179 204.758 179C204.758 179 204.106 176.871 205.511 176.701C206.916 176.532 207.846 176.395 207.846 176.395L214.969 173.26C215.481 173.034 216.079 173.273 216.294 173.79L216.518 174.325C216.518 174.325 217.819 174.924 218.632 174.924C218.745 174.924 218.873 174.909 219.009 174.882Z" fill="#8A92A2"/>
<path fill-rule="evenodd" clip-rule="evenodd" d="M254.028 123.306C252.953 121.683 245.715 105.175 245.715 105.175L241.806 105.975C241.806 105.975 249.729 123.443 250.319 124.499C251.086 125.87 250.343 128.091 249.838 129.597C249.76 129.83 249.688 130.046 249.628 130.239C250.621 130.54 251.012 129.981 251.424 129.391C251.889 128.725 252.381 128.02 253.799 128.473C254.347 128.648 254.872 128.869 255.386 129.086C257.158 129.834 258.787 130.522 260.701 129.005C261.005 128.765 261.272 127.967 260.331 127.485C257.987 126.284 254.553 124.1 254.028 123.306ZM203.351 117.347L211.897 109.385L214.593 114.198L205.77 119.148C203.517 122.521 202.204 123.974 201.83 123.505C201.516 123.109 201.671 122.684 201.815 122.292C201.927 121.986 202.031 121.701 201.9 121.467C201.6 120.931 199.842 121.207 198.185 121.54C196.528 121.872 196.925 121.077 197.284 120.664C198.867 119.444 200.889 118.339 203.351 117.347Z" fill="#CED4DE"/>
<path fill-rule="evenodd" clip-rule="evenodd" d="M227.351 81.846L224.755 81.7271C221.245 85.5572 218.783 93.1114 216.427 98.331C213.114 105.672 209.944 110.899 203.772 116.522L206.975 119.592C211.98 117.233 216.376 113.28 219.527 109.942C227.317 101.686 228.807 91.3388 227.351 81.846Z" fill="#8A92A2"/>
<path fill-rule="evenodd" clip-rule="evenodd" d="M242.318 112.08C242.318 112.08 228.405 110.634 221.198 111.518C220.17 111.645 221.14 111.294 221.198 110.535C221.864 101.776 225.142 95.6109 223.594 81.755L229.962 79.9518C236.379 87.8286 239.526 98.1102 242.318 112.08Z" fill="white"/>
<path fill-rule="evenodd" clip-rule="evenodd" d="M245.689 118.032C246.963 120.243 248.18 122.16 249.286 123.62L254.113 123.028C251.705 118.987 248.895 111.5 247.049 106.583C246.403 104.861 245.875 103.454 245.524 102.621C244.855 101.034 244.147 99.4457 243.341 97.6387C242.336 95.3841 241.178 92.7883 239.755 89.4267C239.603 89.067 239.448 88.6848 239.289 88.2932C239.143 87.9343 238.994 87.5677 238.841 87.2033C239.706 86.8544 240.496 86.2276 241.108 85.1977C243.975 80.3709 242.385 78.12 239.755 77.6655C238.538 77.4551 237.511 77.9399 236.441 78.4447C236.082 78.6142 235.718 78.7859 235.34 78.9343C234.412 79.299 232.997 79.609 231.455 79.7984C231.188 79.8311 230.957 79.8866 230.757 79.9616C230.699 79.9471 230.649 79.935 230.607 79.9252L230.572 79.877L230.471 79.8951C230.459 79.8927 230.453 79.8915 230.453 79.8915L230.446 79.8997L227.835 80.3709C227.835 80.3709 227.995 92.9408 228.629 100.16C228.978 104.139 227.835 116.576 225.182 122L245.689 118.032Z" fill="#8A92A2"/>
<path fill-rule="evenodd" clip-rule="evenodd" d="M245.6 117.875C243.886 114.888 242.073 111.377 240.297 107.74C240.324 111.983 240.027 116.283 238.951 118.692L245.6 117.875Z" fill="black" fill-opacity="0.1"/>
</svg>
