<?xml version="1.0" encoding="UTF-8" standalone="no"?><svg xmlns="http://www.w3.org/2000/svg" xmlns:xlink="http://www.w3.org/1999/xlink"><symbol id="arrow-down" width="16" height="10" viewBox="0 0 16 10" xmlns="http://www.w3.org/2000/svg"><path d="M0.241064 0.745899C0.533264 0.44784 0.990508 0.420743 1.31272 0.66461L1.40503 0.745899L8 7.47342L14.595 0.745899C14.8872 0.44784 15.3444 0.420743 15.6666 0.66461L15.7589 0.745899C16.0511 1.04396 16.0777 1.51037 15.8386 1.83904L15.7589 1.93321L8.58198 9.2541C8.28978 9.55216 7.83254 9.57926 7.51033 9.33539L7.41802 9.2541L0.241064 1.93321C-0.0803548 1.60534 -0.0803548 1.07376 0.241064 0.745899Z"></path></symbol><symbol id="open-in-new-tab" width="14" height="14" viewBox="0 0 14 14" xmlns="http://www.w3.org/2000/svg"><path fill-rule="evenodd" clip-rule="evenodd" d="M9.89279 13.6668H4.1059C1.84925 13.6668 0.333008 12.0831 0.333008 9.72624V4.27408C0.333008 1.91721 1.84925 0.333496 4.1059 0.333496H6.55798C6.82949 0.333496 7.04984 0.553838 7.04984 0.825332C7.04984 1.09682 6.82949 1.31717 6.55798 1.31717H4.1059C2.41128 1.31717 1.31673 2.4779 1.31673 4.27408V9.72624C1.31673 11.5224 2.41128 12.6832 4.1059 12.6832H9.89279C11.5874 12.6832 12.6826 11.5224 12.6826 9.72624V7.08476C12.6826 6.81327 12.903 6.59292 13.1745 6.59292C13.446 6.59292 13.6663 6.81327 13.6663 7.08476V9.72624C13.6663 12.0831 12.1494 13.6668 9.89279 13.6668Z"></path><path fill-rule="evenodd" clip-rule="evenodd" d="M7.14584 6.854C6.95095 6.65911 6.95095 6.34277 7.14584 6.14788L12.8141 0.479662C13.0089 0.284774 13.3253 0.284774 13.5202 0.479662C13.7151 0.67455 13.7151 0.990889 13.5202 1.18578L7.85196 6.854C7.65707 7.04888 7.34073 7.04888 7.14584 6.854Z"></path><path fill-rule="evenodd" clip-rule="evenodd" d="M9.82206 1.24977C9.72612 1.15384 9.66634 1.02074 9.66634 0.874079C9.66584 0.580257 9.90294 0.341182 10.1978 0.340679L13.1329 0.33415C13.4162 0.333146 13.6673 0.584275 13.6663 0.86755L13.6603 3.80276C13.6593 4.09708 13.4207 4.33465 13.1268 4.33415C12.8325 4.33314 12.5944 4.09507 12.5954 3.80075L12.5999 1.40045L10.1998 1.40547C10.0521 1.40647 9.91851 1.3462 9.82206 1.24977Z"></path></symbol><symbol id="fyle" version="1.1" xmlns="http://www.w3.org/2000/svg" xmlns:xlink="http://www.w3.org/1999/xlink" x="0px" y="0px" viewBox="0 0 106.54 34.36" style="enable-background:new 0 0 106.54 34.36;" xml:space="preserve"><style type="text/css"><![CDATA[.st0{clip-path:url(#SVGID_2_);}.st1{clip-path:url(#SVGID_6_);}.st2{clip-path:url(#SVGID_10_);}.st3{clip-path:url(#SVGID_14_);}.st4{clip-path:url(#SVGID_18_);}]]></style><g><g><defs><path d="M44.49,5.44v4.09h6.14v4.17h-6.14v11.81h-4.22V5.44c0-2.39,1.96-4.36,4.42-4.36h7.59v4.21h-7.59
				C44.57,5.24,44.49,5.32,44.49,5.44z"></path></defs><use xlink:href="#SVGID_1_" style="overflow:visible;"></use><clipPath><use xlink:href="#SVGID_1_" style="overflow:visible;"></use></clipPath><g class="st0"><g><defs><rect x="-18" y="-18.14" width="706.5" height="433.81"></rect></defs><clipPath><use xlink:href="#SVGID_3_" style="overflow:visible;"></use></clipPath></g></g></g></g><g><g><defs><path d="M68.78,33.91H57.36V29.7h11.42c0.08,0,0.2-0.08,0.2-0.19v-2.93H58.69c-2.43,0-4.42-1.97-4.42-4.36V8.28
				h4.22v13.97c0,0.12,0.08,0.23,0.23,0.23h10.05c0.08,0,0.2-0.08,0.2-0.23V8.28h4.22v21.27C73.17,31.94,71.21,33.91,68.78,33.91z"></path></defs><use xlink:href="#SVGID_5_" style="overflow:visible;"></use><clipPath><use xlink:href="#SVGID_5_" style="overflow:visible;"></use></clipPath><g class="st1"><g><defs><rect x="-18" y="-18.14" width="706.5" height="433.81"></rect></defs><clipPath><use xlink:href="#SVGID_7_" style="overflow:visible;"></use></clipPath></g></g></g></g><g><defs><path d="M80.75,1.08v20.07c0,0.12,0.08,0.23,0.2,0.23h3.76v4.17h-3.76c-2.43,0-4.42-1.97-4.42-4.36V1.11h4.22V1.08z"></path></defs><use xlink:href="#SVGID_9_" style="overflow:visible;"></use><clipPath><use xlink:href="#SVGID_9_" style="overflow:visible;"></use></clipPath><g class="st2"><g><defs><rect x="-18" y="-18.14" width="706.5" height="433.81"></rect></defs><clipPath><use xlink:href="#SVGID_11_" style="overflow:visible;"></use></clipPath></g></g></g><g><g><defs><path d="M101.76,14.2v-2.74c0-0.12-0.08-0.23-0.23-0.23H91.47c-0.12,0-0.23,0.08-0.23,0.23v2.74H101.76z
				 M105.94,11.46v6.91H91.2v2.74c0,0.12,0.08,0.23,0.23,0.23h14.51v4.17H91.47c-2.43,0-4.42-1.97-4.42-4.36V11.5
				c0-2.39,1.99-4.36,4.42-4.36h10.05C103.95,7.1,105.94,9.07,105.94,11.46z"></path></defs><use xlink:href="#SVGID_13_" style="overflow:visible;"></use><clipPath><use xlink:href="#SVGID_13_" style="overflow:visible;"></use></clipPath><g class="st3"><g><defs><rect x="-18" y="-18.14" width="706.5" height="433.81"></rect></defs><clipPath><use xlink:href="#SVGID_15_" style="overflow:visible;"></use></clipPath></g></g></g></g><g><g><defs><path d="M14.57,0.45H2.33c-0.96,0-1.73,0.76-1.73,1.7v29.44c0,0.94,0.78,1.7,1.73,1.7h30
				c0.96,0,1.73-0.76,1.73-1.7V2.15c0-0.94-0.78-1.7-1.73-1.7h-4.7H16.87v0.69c0,0.17,0,20.2,0,20.42v0.22
				c-0.06,1.07-0.4,1.91-1.06,2.55c-1.29,1.26-3.52,1.43-5.46,1.43c-2.63,0-6.18-0.34-6.78-3.12l-0.09-0.7
				c-0.03-0.14-0.03-0.53-0.03-1.54c0-0.95,0-2.3,0-3.7v-0.28V5.87c0-0.67,0.23-1.23,0.71-1.71c0.49-0.48,1.06-0.7,1.74-0.7
				l6.43,0.03l0.23,0.06v1.91v0.22h-0.23h-0.34h-0.86H6.12c-0.17,0-0.26,0.08-0.26,0.2c0,0.34,0,0.51,0,0.51v4.27h4.63h0.23v0.22
				v1.74v0.22H10.5H5.86v4.71v0.34v3.93c0.06,1.57,2.43,1.88,4.43,1.88c0.89-0.03,2.77-0.03,3.63-0.87
				c0.23-0.22,0.44-0.65,0.64-1.26V1.72L14.57,0.45L14.57,0.45z"></path></defs><use xlink:href="#SVGID_17_" style="overflow:visible;fill:#FF3366;"></use><clipPath><use xlink:href="#SVGID_17_" style="overflow:visible;"></use></clipPath><g class="st4"><g><defs><rect x="-18" y="-18.14" width="706.5" height="433.81"></rect></defs><clipPath><use xlink:href="#SVGID_19_" style="overflow:visible;"></use></clipPath></g></g></g></g></symbol><symbol id="arrow-up" width="16" height="10" viewBox="0 0 16 10" xmlns="http://www.w3.org/2000/svg"><path d="M15.7589 9.2541C15.4667 9.55216 15.0095 9.57926 14.6873 9.33539L14.595 9.2541L8 2.52658L1.40503 9.2541C1.11283 9.55216 0.655583 9.57926 0.333375 9.33539L0.241064 9.2541C-0.0511349 8.95604 -0.0776984 8.48963 0.161374 8.16096L0.241064 8.06679L7.41802 0.745899C7.71022 0.44784 8.16746 0.420743 8.48967 0.66461L8.58198 0.745899L15.7589 8.06679C16.0804 8.39466 16.0804 8.92624 15.7589 9.2541Z"></path></symbol><symbol id="support" width="20" height="18" viewBox="0 0 20 18" xmlns="http://www.w3.org/2000/svg"><path fill-rule="evenodd" clip-rule="evenodd" d="M3.07692 4.75C3.07692 2.12665 5.2581 0 7.94872 0H12.0513C14.7419 0 16.9231 2.12665 16.9231 4.75V5.5H17.1795C18.7372 5.5 20 6.73122 20 8.25V10.25C20 11.7688 18.7372 13 17.1795 13H16.8627C16.4939 15.267 14.4802 17 12.0513 17H11.1093C10.8213 17.5912 10.2032 18 9.48718 18H7.94872C6.95744 18 6.15385 17.2165 6.15385 16.25C6.15385 15.2835 6.95744 14.5 7.94872 14.5H9.48718C10.2032 14.5 10.8213 14.9088 11.1093 15.5H12.0513C13.8922 15.5 15.3846 14.0449 15.3846 12.25V4.75C15.3846 2.95507 13.8922 1.5 12.0513 1.5H7.94872C6.10777 1.5 4.61539 2.95507 4.61539 4.75V11.25C4.61539 12.2165 3.81179 13 2.82051 13C1.26279 13 0 11.7688 0 10.25V8.25C0 6.73122 1.26279 5.5 2.82051 5.5H3.07692V4.75ZM3.07692 7H2.82051C2.11246 7 1.53846 7.55964 1.53846 8.25V10.25C1.53846 10.9404 2.11246 11.5 2.82051 11.5C2.96212 11.5 3.07692 11.3881 3.07692 11.25V7ZM16.9231 11.5H17.1795C17.8875 11.5 18.4615 10.9404 18.4615 10.25V8.25C18.4615 7.55964 17.8875 7 17.1795 7H16.9231V11.5ZM9.74359 16.25C9.74359 16.1119 9.62879 16 9.48718 16H7.94872C7.80711 16 7.69231 16.1119 7.69231 16.25C7.69231 16.3881 7.80711 16.5 7.94872 16.5H9.48718C9.62879 16.5 9.74359 16.3881 9.74359 16.25Z"></path></symbol><symbol id="sign-out" width="16" height="18" viewBox="0 0 16 18" xmlns="http://www.w3.org/2000/svg"><path d="M1.2 9.29971C1.2 13.0493 4.2504 16.0997 8 16.0997C11.7496 16.0997 14.8 13.0493 14.8 9.29971C14.8 7.42181 14.0349 5.7193 12.8 4.48751C12.8 4.48751 12.4297 4.07001 12.8 3.69969C13.2 3.29967 13.6426 3.63393 13.6426 3.63393C15.098 5.08345 16 7.08823 16 9.29971C16 13.7109 12.4112 17.2997 8 17.2997C3.5888 17.2997 0 13.7109 0 9.29971C0 7.09064 0.900019 5.08783 2.35263 3.63869C2.35263 3.63869 2.80003 3.29967 3.2 3.69969C3.50589 4.00561 3.2 4.48751 3.2 4.48751C1.96512 5.7193 1.2 7.42181 1.2 9.29971Z"></path><path fill-rule="evenodd" clip-rule="evenodd" d="M8 0.699707C8.33137 0.699707 8.6 0.968336 8.6 1.29971V9.29971C8.6 9.63108 8.33137 9.89971 8 9.89971C7.66863 9.89971 7.4 9.63108 7.4 9.29971V1.29971C7.4 0.968336 7.66863 0.699707 8 0.699707Z"></path></symbol><symbol id="copy-to-clipboard" width="14" height="18" viewBox="0 0 14 18" xmlns="http://www.w3.org/2000/svg"><mask><path fill-rule="evenodd" clip-rule="evenodd" d="M3.94883 0.666504C3.5744 0.666504 3.27086 0.981796 3.27086 1.37073C3.27086 1.75966 3.5744 2.07495 3.94883 2.07495H10.2765C11.3998 2.07495 12.3104 3.02083 12.3104 4.18763V13.5773C12.3104 13.9662 12.6139 14.2815 12.9884 14.2815C13.3628 14.2815 13.6663 13.9662 13.6663 13.5773V4.18763C13.6663 2.24297 12.1487 0.666504 10.2765 0.666504H3.94883ZM3.04487 4.65711H8.4686C9.21746 4.65711 9.82453 5.2877 9.82453 6.06557V14.5163C9.82453 15.2941 9.21746 15.9247 8.4686 15.9247H3.04487C2.29601 15.9247 1.68894 15.2941 1.68894 14.5163V6.06557C1.68894 5.2877 2.29601 4.65711 3.04487 4.65711ZM0.333008 6.06557C0.333008 4.50983 1.54715 3.24866 3.04487 3.24866H8.4686C9.96632 3.24866 11.1805 4.50983 11.1805 6.06557V14.5163C11.1805 16.072 9.96632 17.3332 8.4686 17.3332H3.04487C1.54715 17.3332 0.333008 16.072 0.333008 14.5163V6.06557Z"></path><path fill-rule="evenodd" clip-rule="evenodd" d="M3.44349 1.84021C3.33614 1.71562 3.27086 1.55109 3.27086 1.37073C3.27086 0.981796 3.5744 0.666504 3.94883 0.666504H10.2765C12.1487 0.666504 13.6663 2.24297 13.6663 4.18763V13.5773C13.6663 13.9662 13.3628 14.2815 12.9884 14.2815C12.8147 14.2815 12.6563 14.2137 12.5364 14.1022C12.3977 13.9733 12.3104 13.7859 12.3104 13.5773V4.18763C12.3104 3.02083 11.3998 2.07495 10.2765 2.07495H3.94883C3.74804 2.07495 3.56763 1.98429 3.44349 1.84021ZM11.1803 14.5458C11.1804 14.536 11.1805 14.5261 11.1805 14.5163V6.06557C11.1805 5.66463 11.0998 5.28326 10.9545 4.938C10.6812 4.28882 10.1791 3.76729 9.55412 3.48341C9.22173 3.33243 8.85458 3.24866 8.4686 3.24866H3.04487C3.03537 3.24866 3.02589 3.24871 3.01641 3.24882C1.5318 3.26467 0.333008 4.5197 0.333008 6.06557V14.5163C0.333008 16.072 1.54715 17.3332 3.04487 17.3332H8.4686C9.95682 17.3332 11.1651 16.0879 11.1803 14.5458ZM3.04487 4.65711C2.29601 4.65711 1.68894 5.2877 1.68894 6.06557V14.5163C1.68894 15.2941 2.29601 15.9247 3.04487 15.9247H8.4686C9.21746 15.9247 9.82453 15.2941 9.82453 14.5163V6.06557C9.82453 5.2877 9.21746 4.65711 8.4686 4.65711H3.04487Z"></path></mask><path fill-rule="evenodd" clip-rule="evenodd" d="M3.94883 0.666504C3.5744 0.666504 3.27086 0.981796 3.27086 1.37073C3.27086 1.75966 3.5744 2.07495 3.94883 2.07495H10.2765C11.3998 2.07495 12.3104 3.02083 12.3104 4.18763V13.5773C12.3104 13.9662 12.6139 14.2815 12.9884 14.2815C13.3628 14.2815 13.6663 13.9662 13.6663 13.5773V4.18763C13.6663 2.24297 12.1487 0.666504 10.2765 0.666504H3.94883ZM3.04487 4.65711H8.4686C9.21746 4.65711 9.82453 5.2877 9.82453 6.06557V14.5163C9.82453 15.2941 9.21746 15.9247 8.4686 15.9247H3.04487C2.29601 15.9247 1.68894 15.2941 1.68894 14.5163V6.06557C1.68894 5.2877 2.29601 4.65711 3.04487 4.65711ZM0.333008 6.06557C0.333008 4.50983 1.54715 3.24866 3.04487 3.24866H8.4686C9.96632 3.24866 11.1805 4.50983 11.1805 6.06557V14.5163C11.1805 16.072 9.96632 17.3332 8.4686 17.3332H3.04487C1.54715 17.3332 0.333008 16.072 0.333008 14.5163V6.06557Z"></path><path fill-rule="evenodd" clip-rule="evenodd" d="M3.44349 1.84021C3.33614 1.71562 3.27086 1.55109 3.27086 1.37073C3.27086 0.981796 3.5744 0.666504 3.94883 0.666504H10.2765C12.1487 0.666504 13.6663 2.24297 13.6663 4.18763V13.5773C13.6663 13.9662 13.3628 14.2815 12.9884 14.2815C12.8147 14.2815 12.6563 14.2137 12.5364 14.1022C12.3977 13.9733 12.3104 13.7859 12.3104 13.5773V4.18763C12.3104 3.02083 11.3998 2.07495 10.2765 2.07495H3.94883C3.74804 2.07495 3.56763 1.98429 3.44349 1.84021ZM11.1803 14.5458C11.1804 14.536 11.1805 14.5261 11.1805 14.5163V6.06557C11.1805 5.66463 11.0998 5.28326 10.9545 4.938C10.6812 4.28882 10.1791 3.76729 9.55412 3.48341C9.22173 3.33243 8.85458 3.24866 8.4686 3.24866H3.04487C3.03537 3.24866 3.02589 3.24871 3.01641 3.24882C1.5318 3.26467 0.333008 4.5197 0.333008 6.06557V14.5163C0.333008 16.072 1.54715 17.3332 3.04487 17.3332H8.4686C9.95682 17.3332 11.1651 16.0879 11.1803 14.5458ZM3.04487 4.65711C2.29601 4.65711 1.68894 5.2877 1.68894 6.06557V14.5163C1.68894 15.2941 2.29601 15.9247 3.04487 15.9247H8.4686C9.21746 15.9247 9.82453 15.2941 9.82453 14.5163V6.06557C9.82453 5.2877 9.21746 4.65711 8.4686 4.65711H3.04487Z"></path><path d="M3.94883 -0.0834961C3.13358 -0.0834961 2.52086 0.594701 2.52086 1.37073H4.02086C4.02086 1.37399 4.01897 1.38335 4.00974 1.39293C4.00003 1.40301 3.97807 1.4165 3.94883 1.4165V-0.0834961ZM3.94883 2.82495H10.2765V1.32495H3.94883V2.82495ZM10.2765 2.82495C10.959 2.82495 11.5604 3.40793 11.5604 4.18763H13.0604C13.0604 2.63374 11.8406 1.32495 10.2765 1.32495V2.82495ZM11.5604 4.18763V13.5773H13.0604V4.18763H11.5604ZM12.9884 15.0315C13.8036 15.0315 14.4163 14.3533 14.4163 13.5773H12.9163C12.9163 13.574 12.9182 13.5647 12.9275 13.5551C12.9372 13.545 12.9591 13.5315 12.9884 13.5315V15.0315ZM14.4163 13.5773V4.18763H12.9163V13.5773H14.4163ZM14.4163 4.18763C14.4163 1.85587 12.5895 -0.0834961 10.2765 -0.0834961V1.4165C11.7078 1.4165 12.9163 2.63006 12.9163 4.18763H14.4163ZM10.2765 -0.0834961H3.94883V1.4165H10.2765V-0.0834961ZM3.04487 5.40711H8.4686V3.90711H3.04487V5.40711ZM8.4686 5.40711C8.77664 5.40711 9.07453 5.6748 9.07453 6.06557H10.5745C10.5745 4.9006 9.65828 3.90711 8.4686 3.90711V5.40711ZM9.07453 6.06557V14.5163H10.5745V6.06557H9.07453ZM9.07453 14.5163C9.07453 14.907 8.77664 15.1747 8.4686 15.1747V16.6747C9.65828 16.6747 10.5745 15.6812 10.5745 14.5163H9.07453ZM8.4686 15.1747H3.04487V16.6747H8.4686V15.1747ZM3.04487 15.1747C2.73683 15.1747 2.43894 14.907 2.43894 14.5163H0.93894C0.93894 15.6812 1.85519 16.6747 3.04487 16.6747V15.1747ZM2.43894 14.5163V6.06557H0.93894V14.5163H2.43894ZM2.43894 6.06557C2.43894 5.6748 2.73683 5.40711 3.04487 5.40711V3.90711C1.85519 3.90711 0.93894 4.9006 0.93894 6.06557H2.43894ZM3.04487 3.99866H8.4686V2.49866H3.04487V3.99866ZM10.4305 6.06557V14.5163H11.9305V6.06557H10.4305ZM8.4686 16.5832H3.04487V18.0832H8.4686V16.5832ZM3.04487 16.5832C1.98797 16.5832 1.08301 15.6849 1.08301 14.5163H-0.416992C-0.416992 16.4591 1.10633 18.0832 3.04487 18.0832V16.5832ZM1.08301 14.5163V6.06557H-0.416992V14.5163H1.08301ZM3.44349 1.84021L2.30714 2.81935H2.30714L3.44349 1.84021ZM12.5364 14.1022L13.5577 13.0036L13.5577 13.0036L12.5364 14.1022ZM11.1803 14.5458L12.6802 14.5607V14.5607L11.1803 14.5458ZM10.9545 4.938L9.57199 5.52001V5.52001L10.9545 4.938ZM9.55412 3.48341L8.93377 4.84912L8.93377 4.84912L9.55412 3.48341ZM3.01641 3.24882L3.00039 1.7489L3.00039 1.7489L3.01641 3.24882ZM1.77086 1.37073C1.77086 2.53385 2.69275 3.57495 3.94883 3.57495V0.574955C4.45604 0.574955 4.77086 0.985471 4.77086 1.37073H1.77086ZM10.8104 13.5773C10.8104 14.7404 11.7323 15.7815 12.9884 15.7815V12.7815C13.4956 12.7815 13.8104 13.192 13.8104 13.5773H10.8104ZM1.83301 6.06557C1.83301 5.28402 2.42879 4.74866 3.04487 4.74866V1.74866C0.665509 1.74866 -1.16699 3.73564 -1.16699 6.06557H1.83301ZM8.4686 4.74866C9.08468 4.74866 9.68047 5.28403 9.68047 6.06557H12.6805C12.6805 3.73564 10.848 1.74866 8.4686 1.74866V4.74866ZM9.68047 14.5163C9.68047 15.2978 9.08468 15.8332 8.4686 15.8332V18.8332C10.848 18.8332 12.6805 16.8462 12.6805 14.5163H9.68047ZM1.77086 1.37073C1.77086 1.91767 1.96991 2.42797 2.30714 2.81935L4.57984 0.861077C4.70237 1.00328 4.77086 1.18452 4.77086 1.37073H1.77086ZM11.5151 15.2008C11.8962 15.5552 12.4141 15.7815 12.9884 15.7815V12.7815C13.2153 12.7815 13.4164 12.8723 13.5577 13.0036L11.5151 15.2008ZM10.8104 13.5773C10.8104 14.2101 11.0766 14.7932 11.5151 15.2008L13.5577 13.0036C13.7188 13.1533 13.8104 13.3616 13.8104 13.5773H10.8104ZM2.30714 2.81935C2.69688 3.27166 3.2827 3.57495 3.94883 3.57495V0.574955C4.21337 0.574955 4.43839 0.696911 4.57984 0.861077L2.30714 2.81935ZM12.6802 14.5607C12.6804 14.5462 12.6805 14.5314 12.6805 14.5163H9.68047C9.68047 14.5209 9.68044 14.5258 9.68039 14.531L12.6802 14.5607ZM12.6805 6.06557C12.6805 5.4622 12.5589 4.88314 12.337 4.356L9.57199 5.52001C9.64077 5.68338 9.68047 5.86706 9.68047 6.06557H12.6805ZM12.337 4.356C11.9215 3.36906 11.1528 2.5621 10.1745 2.11769L8.93377 4.84912C9.20537 4.97248 9.44088 5.20857 9.57199 5.52001L12.337 4.356ZM10.1745 2.11769C9.65222 1.88048 9.07398 1.74866 8.4686 1.74866V4.74866C8.63519 4.74866 8.79124 4.78438 8.93377 4.84912L10.1745 2.11769ZM3.04487 1.74866C3.03002 1.74866 3.0152 1.74874 3.00039 1.7489L3.03243 4.74873C3.03657 4.74869 3.04072 4.74866 3.04487 4.74866V1.74866ZM3.00039 1.7489C0.642118 1.77409 -1.16699 3.75003 -1.16699 6.06557H1.83301C1.83301 5.28937 2.42148 4.75526 3.03243 4.74873L3.00039 1.7489ZM8.4686 18.8332C10.8327 18.8332 12.6574 16.8711 12.6802 14.5607L9.68039 14.531C9.67273 15.3048 9.08092 15.8332 8.4686 15.8332V18.8332Z" mask="url(#path-1-inside-1_730_4228)"></path></symbol></svg>