<?xml version="1.0" encoding="UTF-8" standalone="no"?><svg xmlns="http://www.w3.org/2000/svg" xmlns:xlink="http://www.w3.org/1999/xlink"><symbol id="arrow-right" width="24" height="24" viewBox="0 0 24 24" xmlns="http://www.w3.org/2000/svg"><path d="M7.7459 19.7589C7.44784 19.4667 7.42074 19.0095 7.66461 18.6873L7.7459 18.595L14.4734 12L7.7459 5.40503C7.44784 5.11283 7.42074 4.65558 7.66461 4.33338L7.7459 4.24106C8.04396 3.94887 8.51037 3.9223 8.83904 4.16137L8.93321 4.24106L16.2541 11.418C16.5522 11.7102 16.5793 12.1675 16.3354 12.4897L16.2541 12.582L8.93321 19.7589C8.60534 20.0804 8.07376 20.0804 7.7459 19.7589Z"></path></symbol><symbol id="client-table-view" width="21" height="20" viewBox="0 0 21 20" xmlns="http://www.w3.org/2000/svg"><path fill-rule="evenodd" clip-rule="evenodd" d="M2.80951 15.1547C2.58866 15.3861 2.46973 15.6567 2.46973 16.0188C2.46973 16.3791 2.58865 16.647 2.80966 16.8761C3.04857 17.1238 3.43433 17.3518 3.99483 17.5392C5.12343 17.9166 6.73231 18.0568 8.56173 18.0568C10.3998 18.0568 12.0079 17.9115 13.1331 17.5299C13.6917 17.3404 14.0761 17.1106 14.3142 16.8614C14.5349 16.6304 14.6537 16.3604 14.6537 15.9988C14.6537 15.6388 14.5348 15.3706 14.3135 15.141C14.0743 14.8929 13.6883 14.6644 13.1277 14.4765C11.999 14.0981 10.3902 13.9568 8.56173 13.9568C6.72334 13.9568 5.11539 14.1027 3.99048 14.4851C3.43195 14.675 3.04766 14.9052 2.80951 15.1547ZM3.50773 13.0649C4.87606 12.5998 6.68912 12.4568 8.56173 12.4568C10.4222 12.4568 12.2344 12.5949 13.6045 13.0543C14.2933 13.2852 14.9261 13.6152 15.3934 14.0999C15.8785 14.6032 16.1537 15.2423 16.1537 15.9988C16.1537 16.7536 15.8811 17.3929 15.3986 17.8977C14.9335 18.3844 14.303 18.717 13.6149 18.9504C12.2466 19.4145 10.4336 19.5568 8.56173 19.5568C6.70115 19.5568 4.88902 19.4199 3.51912 18.9618C2.83037 18.7315 2.19751 18.4021 1.7301 17.9176C1.24481 17.4145 0.969727 16.7754 0.969727 16.0188C0.969727 15.2639 1.24217 14.6244 1.72435 14.1191C2.18923 13.632 2.81963 13.2988 3.50773 13.0649Z"></path><path fill-rule="evenodd" clip-rule="evenodd" d="M8.56173 1.99976C6.55372 1.99976 4.92573 3.62719 4.92573 5.63476C4.92573 7.64232 6.55372 9.26976 8.56173 9.26976H8.59115C10.5897 9.26164 12.2042 7.63558 12.1967 5.63755L12.1967 5.63476C12.1967 3.62708 10.5686 1.99976 8.56173 1.99976ZM3.42573 5.63476C3.42573 2.79832 5.72574 0.499756 8.56173 0.499756C11.3963 0.499756 13.6959 2.7976 13.6967 5.63322C13.7066 8.46021 11.422 10.7592 8.59552 10.7698L8.59273 10.7698H8.56173C5.72574 10.7698 3.42573 8.47119 3.42573 5.63476Z"></path><path fill-rule="evenodd" clip-rule="evenodd" d="M14.7882 2.24217C14.8553 1.83342 15.241 1.55641 15.6497 1.62344C17.5733 1.93893 19.0403 3.60722 19.0403 5.61956L19.0403 5.62091C19.0366 7.66255 17.5232 9.34803 15.5577 9.62426C15.1475 9.6819 14.7683 9.39612 14.7106 8.98593C14.653 8.57575 14.9388 8.1965 15.3489 8.13885C16.5852 7.96511 17.5377 6.90293 17.5403 5.61887C17.54 4.35351 16.6171 3.30215 15.4069 3.10367C14.9982 3.03663 14.7212 2.65092 14.7882 2.24217Z"></path><path fill-rule="evenodd" clip-rule="evenodd" d="M16.8238 12.6217C16.8848 12.212 17.2664 11.9293 17.6761 11.9903C18.4923 12.1119 19.277 12.3264 19.8757 12.7192C20.5121 13.1368 20.9496 13.7705 20.9496 14.6272C20.9496 15.1957 20.7552 15.6902 20.4033 16.0879C20.0654 16.4698 19.6121 16.7299 19.132 16.9123C18.7447 17.0594 18.3116 16.8647 18.1645 16.4775C18.0174 16.0903 18.2121 15.6571 18.5993 15.51C18.9432 15.3794 19.1569 15.233 19.2799 15.0939C19.3891 14.9706 19.4496 14.8296 19.4496 14.6272C19.4496 14.3638 19.3457 14.1655 19.0528 13.9733C18.7222 13.7564 18.19 13.5834 17.4551 13.474C17.0454 13.413 16.7628 13.0314 16.8238 12.6217Z"></path></symbol><symbol id="arrow-down" width="16" height="10" viewBox="0 0 16 10" xmlns="http://www.w3.org/2000/svg"><path d="M0.241064 0.745899C0.533264 0.44784 0.990508 0.420743 1.31272 0.66461L1.40503 0.745899L8 7.47342L14.595 0.745899C14.8872 0.44784 15.3444 0.420743 15.6666 0.66461L15.7589 0.745899C16.0511 1.04396 16.0777 1.51037 15.8386 1.83904L15.7589 1.93321L8.58198 9.2541C8.28978 9.55216 7.83254 9.57926 7.51033 9.33539L7.41802 9.2541L0.241064 1.93321C-0.0803548 1.60534 -0.0803548 1.07376 0.241064 0.745899Z"></path></symbol><symbol id="copy-to-clipboard" width="14" height="18" viewBox="0 0 14 18" xmlns="http://www.w3.org/2000/svg"><mask><path fill-rule="evenodd" clip-rule="evenodd" d="M3.94883 0.666504C3.5744 0.666504 3.27086 0.981796 3.27086 1.37073C3.27086 1.75966 3.5744 2.07495 3.94883 2.07495H10.2765C11.3998 2.07495 12.3104 3.02083 12.3104 4.18763V13.5773C12.3104 13.9662 12.6139 14.2815 12.9884 14.2815C13.3628 14.2815 13.6663 13.9662 13.6663 13.5773V4.18763C13.6663 2.24297 12.1487 0.666504 10.2765 0.666504H3.94883ZM3.04487 4.65711H8.4686C9.21746 4.65711 9.82453 5.2877 9.82453 6.06557V14.5163C9.82453 15.2941 9.21746 15.9247 8.4686 15.9247H3.04487C2.29601 15.9247 1.68894 15.2941 1.68894 14.5163V6.06557C1.68894 5.2877 2.29601 4.65711 3.04487 4.65711ZM0.333008 6.06557C0.333008 4.50983 1.54715 3.24866 3.04487 3.24866H8.4686C9.96632 3.24866 11.1805 4.50983 11.1805 6.06557V14.5163C11.1805 16.072 9.96632 17.3332 8.4686 17.3332H3.04487C1.54715 17.3332 0.333008 16.072 0.333008 14.5163V6.06557Z"></path><path fill-rule="evenodd" clip-rule="evenodd" d="M3.44349 1.84021C3.33614 1.71562 3.27086 1.55109 3.27086 1.37073C3.27086 0.981796 3.5744 0.666504 3.94883 0.666504H10.2765C12.1487 0.666504 13.6663 2.24297 13.6663 4.18763V13.5773C13.6663 13.9662 13.3628 14.2815 12.9884 14.2815C12.8147 14.2815 12.6563 14.2137 12.5364 14.1022C12.3977 13.9733 12.3104 13.7859 12.3104 13.5773V4.18763C12.3104 3.02083 11.3998 2.07495 10.2765 2.07495H3.94883C3.74804 2.07495 3.56763 1.98429 3.44349 1.84021ZM11.1803 14.5458C11.1804 14.536 11.1805 14.5261 11.1805 14.5163V6.06557C11.1805 5.66463 11.0998 5.28326 10.9545 4.938C10.6812 4.28882 10.1791 3.76729 9.55412 3.48341C9.22173 3.33243 8.85458 3.24866 8.4686 3.24866H3.04487C3.03537 3.24866 3.02589 3.24871 3.01641 3.24882C1.5318 3.26467 0.333008 4.5197 0.333008 6.06557V14.5163C0.333008 16.072 1.54715 17.3332 3.04487 17.3332H8.4686C9.95682 17.3332 11.1651 16.0879 11.1803 14.5458ZM3.04487 4.65711C2.29601 4.65711 1.68894 5.2877 1.68894 6.06557V14.5163C1.68894 15.2941 2.29601 15.9247 3.04487 15.9247H8.4686C9.21746 15.9247 9.82453 15.2941 9.82453 14.5163V6.06557C9.82453 5.2877 9.21746 4.65711 8.4686 4.65711H3.04487Z"></path></mask><path fill-rule="evenodd" clip-rule="evenodd" d="M3.94883 0.666504C3.5744 0.666504 3.27086 0.981796 3.27086 1.37073C3.27086 1.75966 3.5744 2.07495 3.94883 2.07495H10.2765C11.3998 2.07495 12.3104 3.02083 12.3104 4.18763V13.5773C12.3104 13.9662 12.6139 14.2815 12.9884 14.2815C13.3628 14.2815 13.6663 13.9662 13.6663 13.5773V4.18763C13.6663 2.24297 12.1487 0.666504 10.2765 0.666504H3.94883ZM3.04487 4.65711H8.4686C9.21746 4.65711 9.82453 5.2877 9.82453 6.06557V14.5163C9.82453 15.2941 9.21746 15.9247 8.4686 15.9247H3.04487C2.29601 15.9247 1.68894 15.2941 1.68894 14.5163V6.06557C1.68894 5.2877 2.29601 4.65711 3.04487 4.65711ZM0.333008 6.06557C0.333008 4.50983 1.54715 3.24866 3.04487 3.24866H8.4686C9.96632 3.24866 11.1805 4.50983 11.1805 6.06557V14.5163C11.1805 16.072 9.96632 17.3332 8.4686 17.3332H3.04487C1.54715 17.3332 0.333008 16.072 0.333008 14.5163V6.06557Z"></path><path fill-rule="evenodd" clip-rule="evenodd" d="M3.44349 1.84021C3.33614 1.71562 3.27086 1.55109 3.27086 1.37073C3.27086 0.981796 3.5744 0.666504 3.94883 0.666504H10.2765C12.1487 0.666504 13.6663 2.24297 13.6663 4.18763V13.5773C13.6663 13.9662 13.3628 14.2815 12.9884 14.2815C12.8147 14.2815 12.6563 14.2137 12.5364 14.1022C12.3977 13.9733 12.3104 13.7859 12.3104 13.5773V4.18763C12.3104 3.02083 11.3998 2.07495 10.2765 2.07495H3.94883C3.74804 2.07495 3.56763 1.98429 3.44349 1.84021ZM11.1803 14.5458C11.1804 14.536 11.1805 14.5261 11.1805 14.5163V6.06557C11.1805 5.66463 11.0998 5.28326 10.9545 4.938C10.6812 4.28882 10.1791 3.76729 9.55412 3.48341C9.22173 3.33243 8.85458 3.24866 8.4686 3.24866H3.04487C3.03537 3.24866 3.02589 3.24871 3.01641 3.24882C1.5318 3.26467 0.333008 4.5197 0.333008 6.06557V14.5163C0.333008 16.072 1.54715 17.3332 3.04487 17.3332H8.4686C9.95682 17.3332 11.1651 16.0879 11.1803 14.5458ZM3.04487 4.65711C2.29601 4.65711 1.68894 5.2877 1.68894 6.06557V14.5163C1.68894 15.2941 2.29601 15.9247 3.04487 15.9247H8.4686C9.21746 15.9247 9.82453 15.2941 9.82453 14.5163V6.06557C9.82453 5.2877 9.21746 4.65711 8.4686 4.65711H3.04487Z"></path><path d="M3.94883 -0.0834961C3.13358 -0.0834961 2.52086 0.594701 2.52086 1.37073H4.02086C4.02086 1.37399 4.01897 1.38335 4.00974 1.39293C4.00003 1.40301 3.97807 1.4165 3.94883 1.4165V-0.0834961ZM3.94883 2.82495H10.2765V1.32495H3.94883V2.82495ZM10.2765 2.82495C10.959 2.82495 11.5604 3.40793 11.5604 4.18763H13.0604C13.0604 2.63374 11.8406 1.32495 10.2765 1.32495V2.82495ZM11.5604 4.18763V13.5773H13.0604V4.18763H11.5604ZM12.9884 15.0315C13.8036 15.0315 14.4163 14.3533 14.4163 13.5773H12.9163C12.9163 13.574 12.9182 13.5647 12.9275 13.5551C12.9372 13.545 12.9591 13.5315 12.9884 13.5315V15.0315ZM14.4163 13.5773V4.18763H12.9163V13.5773H14.4163ZM14.4163 4.18763C14.4163 1.85587 12.5895 -0.0834961 10.2765 -0.0834961V1.4165C11.7078 1.4165 12.9163 2.63006 12.9163 4.18763H14.4163ZM10.2765 -0.0834961H3.94883V1.4165H10.2765V-0.0834961ZM3.04487 5.40711H8.4686V3.90711H3.04487V5.40711ZM8.4686 5.40711C8.77664 5.40711 9.07453 5.6748 9.07453 6.06557H10.5745C10.5745 4.9006 9.65828 3.90711 8.4686 3.90711V5.40711ZM9.07453 6.06557V14.5163H10.5745V6.06557H9.07453ZM9.07453 14.5163C9.07453 14.907 8.77664 15.1747 8.4686 15.1747V16.6747C9.65828 16.6747 10.5745 15.6812 10.5745 14.5163H9.07453ZM8.4686 15.1747H3.04487V16.6747H8.4686V15.1747ZM3.04487 15.1747C2.73683 15.1747 2.43894 14.907 2.43894 14.5163H0.93894C0.93894 15.6812 1.85519 16.6747 3.04487 16.6747V15.1747ZM2.43894 14.5163V6.06557H0.93894V14.5163H2.43894ZM2.43894 6.06557C2.43894 5.6748 2.73683 5.40711 3.04487 5.40711V3.90711C1.85519 3.90711 0.93894 4.9006 0.93894 6.06557H2.43894ZM3.04487 3.99866H8.4686V2.49866H3.04487V3.99866ZM10.4305 6.06557V14.5163H11.9305V6.06557H10.4305ZM8.4686 16.5832H3.04487V18.0832H8.4686V16.5832ZM3.04487 16.5832C1.98797 16.5832 1.08301 15.6849 1.08301 14.5163H-0.416992C-0.416992 16.4591 1.10633 18.0832 3.04487 18.0832V16.5832ZM1.08301 14.5163V6.06557H-0.416992V14.5163H1.08301ZM3.44349 1.84021L2.30714 2.81935H2.30714L3.44349 1.84021ZM12.5364 14.1022L13.5577 13.0036L13.5577 13.0036L12.5364 14.1022ZM11.1803 14.5458L12.6802 14.5607V14.5607L11.1803 14.5458ZM10.9545 4.938L9.57199 5.52001V5.52001L10.9545 4.938ZM9.55412 3.48341L8.93377 4.84912L8.93377 4.84912L9.55412 3.48341ZM3.01641 3.24882L3.00039 1.7489L3.00039 1.7489L3.01641 3.24882ZM1.77086 1.37073C1.77086 2.53385 2.69275 3.57495 3.94883 3.57495V0.574955C4.45604 0.574955 4.77086 0.985471 4.77086 1.37073H1.77086ZM10.8104 13.5773C10.8104 14.7404 11.7323 15.7815 12.9884 15.7815V12.7815C13.4956 12.7815 13.8104 13.192 13.8104 13.5773H10.8104ZM1.83301 6.06557C1.83301 5.28402 2.42879 4.74866 3.04487 4.74866V1.74866C0.665509 1.74866 -1.16699 3.73564 -1.16699 6.06557H1.83301ZM8.4686 4.74866C9.08468 4.74866 9.68047 5.28403 9.68047 6.06557H12.6805C12.6805 3.73564 10.848 1.74866 8.4686 1.74866V4.74866ZM9.68047 14.5163C9.68047 15.2978 9.08468 15.8332 8.4686 15.8332V18.8332C10.848 18.8332 12.6805 16.8462 12.6805 14.5163H9.68047ZM1.77086 1.37073C1.77086 1.91767 1.96991 2.42797 2.30714 2.81935L4.57984 0.861077C4.70237 1.00328 4.77086 1.18452 4.77086 1.37073H1.77086ZM11.5151 15.2008C11.8962 15.5552 12.4141 15.7815 12.9884 15.7815V12.7815C13.2153 12.7815 13.4164 12.8723 13.5577 13.0036L11.5151 15.2008ZM10.8104 13.5773C10.8104 14.2101 11.0766 14.7932 11.5151 15.2008L13.5577 13.0036C13.7188 13.1533 13.8104 13.3616 13.8104 13.5773H10.8104ZM2.30714 2.81935C2.69688 3.27166 3.2827 3.57495 3.94883 3.57495V0.574955C4.21337 0.574955 4.43839 0.696911 4.57984 0.861077L2.30714 2.81935ZM12.6802 14.5607C12.6804 14.5462 12.6805 14.5314 12.6805 14.5163H9.68047C9.68047 14.5209 9.68044 14.5258 9.68039 14.531L12.6802 14.5607ZM12.6805 6.06557C12.6805 5.4622 12.5589 4.88314 12.337 4.356L9.57199 5.52001C9.64077 5.68338 9.68047 5.86706 9.68047 6.06557H12.6805ZM12.337 4.356C11.9215 3.36906 11.1528 2.5621 10.1745 2.11769L8.93377 4.84912C9.20537 4.97248 9.44088 5.20857 9.57199 5.52001L12.337 4.356ZM10.1745 2.11769C9.65222 1.88048 9.07398 1.74866 8.4686 1.74866V4.74866C8.63519 4.74866 8.79124 4.78438 8.93377 4.84912L10.1745 2.11769ZM3.04487 1.74866C3.03002 1.74866 3.0152 1.74874 3.00039 1.7489L3.03243 4.74873C3.03657 4.74869 3.04072 4.74866 3.04487 4.74866V1.74866ZM3.00039 1.7489C0.642118 1.77409 -1.16699 3.75003 -1.16699 6.06557H1.83301C1.83301 5.28937 2.42148 4.75526 3.03243 4.74873L3.00039 1.7489ZM8.4686 18.8332C10.8327 18.8332 12.6574 16.8711 12.6802 14.5607L9.68039 14.531C9.67273 15.3048 9.08092 15.8332 8.4686 15.8332V18.8332Z" mask="url(#path-1-inside-1_730_4228)"></path></symbol><symbol id="arrow-up" width="16" height="10" viewBox="0 0 16 10" xmlns="http://www.w3.org/2000/svg"><path d="M15.7589 9.2541C15.4667 9.55216 15.0095 9.57926 14.6873 9.33539L14.595 9.2541L8 2.52658L1.40503 9.2541C1.11283 9.55216 0.655583 9.57926 0.333375 9.33539L0.241064 9.2541C-0.0511349 8.95604 -0.0776984 8.48963 0.161374 8.16096L0.241064 8.06679L7.41802 0.745899C7.71022 0.44784 8.16746 0.420743 8.48967 0.66461L8.58198 0.745899L15.7589 8.06679C16.0804 8.39466 16.0804 8.92624 15.7589 9.2541Z"></path></symbol><symbol id="first-page" width="24" height="24" viewBox="0 0 24 24" xmlns="http://www.w3.org/2000/svg"><path d="M18.7541 4.24106C19.0522 4.53326 19.0793 4.99051 18.8354 5.31272L18.7541 5.40503L12.0266 12L18.7541 18.595C19.0522 18.8872 19.0793 19.3444 18.8354 19.6666L18.7541 19.7589C18.456 20.0511 17.9896 20.0777 17.661 19.8386L17.5668 19.7589L10.2459 12.582C9.94784 12.2898 9.92074 11.8325 10.1646 11.5103L10.2459 11.418L17.5668 4.24106C17.8947 3.91965 18.4262 3.91965 18.7541 4.24106Z"></path><path fill-rule="evenodd" clip-rule="evenodd" d="M7.25 20C6.83579 20 6.5 19.6642 6.5 19.25L6.5 4.75C6.5 4.33579 6.83579 4 7.25 4C7.66421 4 8 4.33579 8 4.75L8 19.25C8 19.6642 7.66421 20 7.25 20Z"></path></symbol><symbol id="arrow-left" width="24" height="24" viewBox="0 0 24 24" xmlns="http://www.w3.org/2000/svg"><path d="M16.2541 4.24106C16.5522 4.53326 16.5793 4.99051 16.3354 5.31272L16.2541 5.40503L9.52658 12L16.2541 18.595C16.5522 18.8872 16.5793 19.3444 16.3354 19.6666L16.2541 19.7589C15.956 20.0511 15.4896 20.0777 15.161 19.8386L15.0668 19.7589L7.7459 12.582C7.44784 12.2898 7.42074 11.8325 7.66461 11.5103L7.7459 11.418L15.0668 4.24106C15.3947 3.91965 15.9262 3.91965 16.2541 4.24106Z"></path></symbol><symbol id="fyle" version="1.1" xmlns="http://www.w3.org/2000/svg" xmlns:xlink="http://www.w3.org/1999/xlink" x="0px" y="0px" viewBox="0 0 106.54 34.36" style="enable-background:new 0 0 106.54 34.36;" xml:space="preserve"><style type="text/css"><![CDATA[.st0{clip-path:url(#SVGID_2_);}.st1{clip-path:url(#SVGID_6_);}.st2{clip-path:url(#SVGID_10_);}.st3{clip-path:url(#SVGID_14_);}.st4{clip-path:url(#SVGID_18_);}]]></style><g><g><defs><path d="M44.49,5.44v4.09h6.14v4.17h-6.14v11.81h-4.22V5.44c0-2.39,1.96-4.36,4.42-4.36h7.59v4.21h-7.59
				C44.57,5.24,44.49,5.32,44.49,5.44z"></path></defs><use xlink:href="#SVGID_1_" style="overflow:visible;"></use><clipPath><use xlink:href="#SVGID_1_" style="overflow:visible;"></use></clipPath><g class="st0"><g><defs><rect x="-18" y="-18.14" width="706.5" height="433.81"></rect></defs><clipPath><use xlink:href="#SVGID_3_" style="overflow:visible;"></use></clipPath></g></g></g></g><g><g><defs><path d="M68.78,33.91H57.36V29.7h11.42c0.08,0,0.2-0.08,0.2-0.19v-2.93H58.69c-2.43,0-4.42-1.97-4.42-4.36V8.28
				h4.22v13.97c0,0.12,0.08,0.23,0.23,0.23h10.05c0.08,0,0.2-0.08,0.2-0.23V8.28h4.22v21.27C73.17,31.94,71.21,33.91,68.78,33.91z"></path></defs><use xlink:href="#SVGID_5_" style="overflow:visible;"></use><clipPath><use xlink:href="#SVGID_5_" style="overflow:visible;"></use></clipPath><g class="st1"><g><defs><rect x="-18" y="-18.14" width="706.5" height="433.81"></rect></defs><clipPath><use xlink:href="#SVGID_7_" style="overflow:visible;"></use></clipPath></g></g></g></g><g><defs><path d="M80.75,1.08v20.07c0,0.12,0.08,0.23,0.2,0.23h3.76v4.17h-3.76c-2.43,0-4.42-1.97-4.42-4.36V1.11h4.22V1.08z"></path></defs><use xlink:href="#SVGID_9_" style="overflow:visible;"></use><clipPath><use xlink:href="#SVGID_9_" style="overflow:visible;"></use></clipPath><g class="st2"><g><defs><rect x="-18" y="-18.14" width="706.5" height="433.81"></rect></defs><clipPath><use xlink:href="#SVGID_11_" style="overflow:visible;"></use></clipPath></g></g></g><g><g><defs><path d="M101.76,14.2v-2.74c0-0.12-0.08-0.23-0.23-0.23H91.47c-0.12,0-0.23,0.08-0.23,0.23v2.74H101.76z
				 M105.94,11.46v6.91H91.2v2.74c0,0.12,0.08,0.23,0.23,0.23h14.51v4.17H91.47c-2.43,0-4.42-1.97-4.42-4.36V11.5
				c0-2.39,1.99-4.36,4.42-4.36h10.05C103.95,7.1,105.94,9.07,105.94,11.46z"></path></defs><use xlink:href="#SVGID_13_" style="overflow:visible;"></use><clipPath><use xlink:href="#SVGID_13_" style="overflow:visible;"></use></clipPath><g class="st3"><g><defs><rect x="-18" y="-18.14" width="706.5" height="433.81"></rect></defs><clipPath><use xlink:href="#SVGID_15_" style="overflow:visible;"></use></clipPath></g></g></g></g><g><g><defs><path d="M14.57,0.45H2.33c-0.96,0-1.73,0.76-1.73,1.7v29.44c0,0.94,0.78,1.7,1.73,1.7h30
				c0.96,0,1.73-0.76,1.73-1.7V2.15c0-0.94-0.78-1.7-1.73-1.7h-4.7H16.87v0.69c0,0.17,0,20.2,0,20.42v0.22
				c-0.06,1.07-0.4,1.91-1.06,2.55c-1.29,1.26-3.52,1.43-5.46,1.43c-2.63,0-6.18-0.34-6.78-3.12l-0.09-0.7
				c-0.03-0.14-0.03-0.53-0.03-1.54c0-0.95,0-2.3,0-3.7v-0.28V5.87c0-0.67,0.23-1.23,0.71-1.71c0.49-0.48,1.06-0.7,1.74-0.7
				l6.43,0.03l0.23,0.06v1.91v0.22h-0.23h-0.34h-0.86H6.12c-0.17,0-0.26,0.08-0.26,0.2c0,0.34,0,0.51,0,0.51v4.27h4.63h0.23v0.22
				v1.74v0.22H10.5H5.86v4.71v0.34v3.93c0.06,1.57,2.43,1.88,4.43,1.88c0.89-0.03,2.77-0.03,3.63-0.87
				c0.23-0.22,0.44-0.65,0.64-1.26V1.72L14.57,0.45L14.57,0.45z"></path></defs><use xlink:href="#SVGID_17_" style="overflow:visible;fill:#FF3366;"></use><clipPath><use xlink:href="#SVGID_17_" style="overflow:visible;"></use></clipPath><g class="st4"><g><defs><rect x="-18" y="-18.14" width="706.5" height="433.81"></rect></defs><clipPath><use xlink:href="#SVGID_19_" style="overflow:visible;"></use></clipPath></g></g></g></g></symbol><symbol id="detail-view" width="20" height="20" viewBox="0 0 20 20" xmlns="http://www.w3.org/2000/svg"><path fill-rule="evenodd" clip-rule="evenodd" d="M1.59257 2.75839C1.54151 3.16337 1.53847 3.67158 1.53847 4.35897C1.53847 5.04909 1.53898 5.55757 1.58754 5.96466C1.6354 6.3658 1.72041 6.5652 1.81509 6.68392C1.90056 6.79108 2.06395 6.91994 2.46522 7.02014C2.87878 7.12341 3.47883 7.17949 4.35898 7.17949C5.23912 7.17949 5.83917 7.12341 6.25273 7.02014C6.65401 6.91994 6.8174 6.79108 6.90286 6.68392C6.99754 6.5652 7.08256 6.3658 7.13041 5.96466C7.17898 5.55757 7.17949 5.04909 7.17949 4.35897C7.17949 3.67158 7.17644 3.16337 7.12539 2.75839C7.07508 2.35941 6.98794 2.15822 6.89041 2.0373C6.80152 1.92706 6.63453 1.79775 6.23512 1.69764C5.82349 1.59447 5.2285 1.53846 4.35898 1.53846C3.48946 1.53846 2.89447 1.59447 2.48283 1.69764C2.08342 1.79775 1.91644 1.92706 1.82754 2.0373C1.73002 2.15822 1.64287 2.35941 1.59257 2.75839ZM2.10881 0.20534C2.70409 0.056141 3.44804 0 4.35898 0C5.26991 0 6.01387 0.056141 6.60915 0.20534C7.21665 0.357603 7.72454 0.620878 8.08797 1.07151C8.44276 1.51146 8.58538 2.03943 8.65176 2.56595C8.71739 3.08647 8.71795 3.7001 8.71795 4.35897C8.71795 4.37832 8.71795 4.39762 8.71795 4.41689C8.71801 5.0512 8.71806 5.64378 8.65804 6.1469C8.59549 6.67127 8.45828 7.20101 8.10566 7.64316C7.74382 8.09687 7.23485 8.3606 6.62544 8.51277C6.02832 8.66188 5.27938 8.71795 4.35898 8.71795C3.43858 8.71795 2.68963 8.66188 2.09251 8.51277C1.48311 8.3606 0.974133 8.09687 0.612297 7.64316C0.259681 7.20101 0.122468 6.67127 0.0599148 6.1469C-0.000103517 5.64378 -5.19217e-05 5.0512 3.34248e-06 4.41689C4.99307e-06 4.39762 6.64366e-06 4.37832 6.64366e-06 4.35897C6.64366e-06 3.7001 0.000566251 3.08647 0.0661921 2.56595C0.132574 2.03943 0.275193 1.51146 0.629991 1.07151C0.993412 0.620878 1.50131 0.357603 2.10881 0.20534Z"></path><path fill-rule="evenodd" clip-rule="evenodd" d="M12.8746 2.75839C12.8236 3.16337 12.8205 3.67158 12.8205 4.35897C12.8205 5.04909 12.821 5.55757 12.8696 5.96466C12.9174 6.3658 13.0025 6.5652 13.0971 6.68392C13.1826 6.79108 13.346 6.91994 13.7473 7.02014C14.1608 7.12341 14.7609 7.17949 15.641 7.17949C16.5212 7.17949 17.1212 7.12341 17.5348 7.02014C17.9361 6.91994 18.0994 6.79108 18.1849 6.68392C18.2796 6.5652 18.3646 6.3658 18.4125 5.96466C18.461 5.55757 18.4615 5.04909 18.4615 4.35897C18.4615 3.67158 18.4585 3.16337 18.4074 2.75839C18.3571 2.35941 18.27 2.15822 18.1725 2.0373C18.0836 1.92706 17.9166 1.79775 17.5172 1.69764C17.1055 1.59447 16.5105 1.53846 15.641 1.53846C14.7715 1.53846 14.1765 1.59447 13.7649 1.69764C13.3655 1.79775 13.1985 1.92706 13.1096 2.0373C13.0121 2.15822 12.9249 2.35941 12.8746 2.75839ZM13.3909 0.20534C13.9861 0.056141 14.7301 0 15.641 0C16.552 0 17.2959 0.056141 17.8912 0.20534C18.4987 0.357603 19.0066 0.620878 19.37 1.07151C19.7248 1.51146 19.8674 2.03943 19.9338 2.56595C19.9994 3.08647 20 3.7001 20 4.35897C20 4.37832 20 4.39762 20 4.41689C20.0001 5.0512 20.0001 5.64378 19.9401 6.1469C19.8775 6.67127 19.7403 7.20101 19.3877 7.64316C19.0259 8.09687 18.5169 8.3606 17.9075 8.51277C17.3104 8.66188 16.5614 8.71795 15.641 8.71795C14.7206 8.71795 13.9717 8.66188 13.3746 8.51277C12.7652 8.3606 12.2562 8.09687 11.8943 7.64316C11.5417 7.20101 11.4045 6.67127 11.342 6.1469C11.2819 5.64378 11.282 5.0512 11.282 4.41689C11.282 4.39762 11.2821 4.37832 11.2821 4.35897C11.2821 3.7001 11.2826 3.08647 11.3482 2.56595C11.4146 2.03943 11.5572 1.51146 11.912 1.07151C12.2755 0.620878 12.7834 0.357603 13.3909 0.20534Z"></path><path fill-rule="evenodd" clip-rule="evenodd" d="M1.59257 14.0404C1.54151 14.4454 1.53847 14.9536 1.53847 15.641C1.53847 16.3311 1.53898 16.8396 1.58754 17.2467C1.6354 17.6479 1.72041 17.8473 1.81509 17.966C1.90056 18.0731 2.06395 18.202 2.46522 18.3022C2.87878 18.4055 3.47883 18.4615 4.35898 18.4615C5.23912 18.4615 5.83917 18.4055 6.25273 18.3022C6.65401 18.202 6.8174 18.0731 6.90286 17.966C6.99754 17.8473 7.08256 17.6479 7.13041 17.2467C7.17898 16.8396 7.17949 16.3311 7.17949 15.641C7.17949 14.9536 7.17644 14.4454 7.12539 14.0404C7.07508 13.6415 6.98794 13.4403 6.89041 13.3193C6.80152 13.2091 6.63453 13.0798 6.23512 12.9797C5.82349 12.8765 5.2285 12.8205 4.35898 12.8205C3.48946 12.8205 2.89447 12.8765 2.48283 12.9797C2.08342 13.0798 1.91644 13.2091 1.82754 13.3193C1.73002 13.4403 1.64287 13.6415 1.59257 14.0404ZM2.10881 11.4874C2.70409 11.3382 3.44804 11.2821 4.35898 11.2821C5.26991 11.2821 6.01387 11.3382 6.60915 11.4874C7.21665 11.6397 7.72454 11.9029 8.08797 12.3536C8.44276 12.7935 8.58538 13.3215 8.65176 13.848C8.71739 14.3685 8.71795 14.9822 8.71795 15.641C8.71795 15.6604 8.71795 15.6797 8.71795 15.6989C8.71801 16.3333 8.71806 16.9258 8.65804 17.4289C8.59549 17.9533 8.45828 18.4831 8.10566 18.9252C7.74382 19.3789 7.23485 19.6427 6.62544 19.7948C6.02832 19.9439 5.27938 20 4.35898 20C3.43858 20 2.68963 19.9439 2.09251 19.7948C1.48311 19.6427 0.974133 19.3789 0.612297 18.9252C0.259681 18.4831 0.122468 17.9533 0.0599148 17.4289C-0.000103517 16.9258 -5.19217e-05 16.3333 3.34248e-06 15.6989C4.99307e-06 15.6797 6.64366e-06 15.6604 6.64366e-06 15.641C6.64366e-06 14.9822 0.000566251 14.3685 0.0661921 13.848C0.132574 13.3215 0.275193 12.7935 0.629991 12.3536C0.993412 11.9029 1.50131 11.6397 2.10881 11.4874Z"></path><path fill-rule="evenodd" clip-rule="evenodd" d="M12.8746 14.0404C12.8236 14.4454 12.8205 14.9536 12.8205 15.641C12.8205 16.3311 12.821 16.8396 12.8696 17.2467C12.9174 17.6479 13.0025 17.8473 13.0971 17.966C13.1826 18.0731 13.346 18.202 13.7473 18.3022C14.1608 18.4055 14.7609 18.4615 15.641 18.4615C16.5212 18.4615 17.1212 18.4055 17.5348 18.3022C17.9361 18.202 18.0994 18.0731 18.1849 17.966C18.2796 17.8473 18.3646 17.6479 18.4125 17.2467C18.461 16.8396 18.4615 16.3311 18.4615 15.641C18.4615 14.9536 18.4585 14.4454 18.4074 14.0404C18.3571 13.6415 18.27 13.4403 18.1725 13.3193C18.0836 13.2091 17.9166 13.0798 17.5172 12.9797C17.1055 12.8765 16.5105 12.8205 15.641 12.8205C14.7715 12.8205 14.1765 12.8765 13.7649 12.9797C13.3655 13.0798 13.1985 13.2091 13.1096 13.3193C13.0121 13.4403 12.9249 13.6415 12.8746 14.0404ZM13.3909 11.4874C13.9861 11.3382 14.7301 11.2821 15.641 11.2821C16.552 11.2821 17.2959 11.3382 17.8912 11.4874C18.4987 11.6397 19.0066 11.9029 19.37 12.3536C19.7248 12.7935 19.8674 13.3215 19.9338 13.848C19.9994 14.3685 20 14.9822 20 15.641C20 15.6604 20 15.6797 20 15.6989C20.0001 16.3333 20.0001 16.9258 19.9401 17.4289C19.8775 17.9533 19.7403 18.4831 19.3877 18.9252C19.0259 19.3789 18.5169 19.6427 17.9075 19.7948C17.3104 19.9439 16.5614 20 15.641 20C14.7206 20 13.9717 19.9439 13.3746 19.7948C12.7652 19.6427 12.2562 19.3789 11.8943 18.9252C11.5417 18.4831 11.4045 17.9533 11.342 17.4289C11.2819 16.9258 11.282 16.3333 11.282 15.6989C11.282 15.6797 11.2821 15.6604 11.2821 15.641C11.2821 14.9822 11.2826 14.3685 11.3482 13.848C11.4146 13.3215 11.5572 12.7935 11.912 12.3536C12.2755 11.9029 12.7834 11.6397 13.3909 11.4874Z"></path></symbol><symbol id="support" width="20" height="18" viewBox="0 0 20 18" xmlns="http://www.w3.org/2000/svg"><path fill-rule="evenodd" clip-rule="evenodd" d="M3.07692 4.75C3.07692 2.12665 5.2581 0 7.94872 0H12.0513C14.7419 0 16.9231 2.12665 16.9231 4.75V5.5H17.1795C18.7372 5.5 20 6.73122 20 8.25V10.25C20 11.7688 18.7372 13 17.1795 13H16.8627C16.4939 15.267 14.4802 17 12.0513 17H11.1093C10.8213 17.5912 10.2032 18 9.48718 18H7.94872C6.95744 18 6.15385 17.2165 6.15385 16.25C6.15385 15.2835 6.95744 14.5 7.94872 14.5H9.48718C10.2032 14.5 10.8213 14.9088 11.1093 15.5H12.0513C13.8922 15.5 15.3846 14.0449 15.3846 12.25V4.75C15.3846 2.95507 13.8922 1.5 12.0513 1.5H7.94872C6.10777 1.5 4.61539 2.95507 4.61539 4.75V11.25C4.61539 12.2165 3.81179 13 2.82051 13C1.26279 13 0 11.7688 0 10.25V8.25C0 6.73122 1.26279 5.5 2.82051 5.5H3.07692V4.75ZM3.07692 7H2.82051C2.11246 7 1.53846 7.55964 1.53846 8.25V10.25C1.53846 10.9404 2.11246 11.5 2.82051 11.5C2.96212 11.5 3.07692 11.3881 3.07692 11.25V7ZM16.9231 11.5H17.1795C17.8875 11.5 18.4615 10.9404 18.4615 10.25V8.25C18.4615 7.55964 17.8875 7 17.1795 7H16.9231V11.5ZM9.74359 16.25C9.74359 16.1119 9.62879 16 9.48718 16H7.94872C7.80711 16 7.69231 16.1119 7.69231 16.25C7.69231 16.3881 7.80711 16.5 7.94872 16.5H9.48718C9.62879 16.5 9.74359 16.3881 9.74359 16.25Z"></path></symbol><symbol id="info" width="16" height="16" viewBox="0 0 16 16" xmlns="http://www.w3.org/2000/svg"><path d="M7.9998 0.800049C4.02341 0.800049 0.799805 4.02366 0.799805 8.00005C0.799805 11.977 4.0237 15.2 8.00009 15.2C11.9768 15.2 15.1998 11.977 15.1998 8.00005C15.1998 4.02366 11.9768 0.800049 7.9998 0.800049ZM8.30433 3.64812C8.82701 3.64812 9.25056 4.07195 9.25056 4.59464C9.25056 5.11732 8.82701 5.54115 8.30433 5.54115C7.78164 5.54115 7.35781 5.11732 7.35781 4.59464C7.35781 4.07195 7.78164 3.64812 8.30433 3.64812ZM9.15284 12.0225C9.15284 12.0225 8.40716 12.6477 7.46774 12.1761C7.25924 12.0719 7.08312 11.8909 6.97062 11.6918C6.65162 11.1276 6.77433 10.5223 6.77433 10.5223L6.86808 9.78002L7.11152 7.84438L6.44851 7.85887C6.13802 7.86597 5.88179 7.61968 5.87497 7.30948C5.86957 7.06859 6.01871 6.85951 6.23063 6.77515L7.92964 6.10616C8.33415 5.9468 8.79093 6.14565 8.95001 6.55016C9.0108 6.70384 9.01961 6.86406 8.98495 7.01348L8.96251 7.11432L8.29808 10.032L8.13218 10.7615C8.10775 10.8714 8.10406 10.8964 8.09695 10.9541C8.07906 11.2825 8.54607 11.0362 8.54607 11.0362C8.82644 10.8814 9.17926 10.9839 9.33322 11.2643C9.47838 11.5276 9.3943 11.8554 9.15284 12.0225Z"></path></symbol><symbol id="open-in-new-tab" width="14" height="14" viewBox="0 0 14 14" xmlns="http://www.w3.org/2000/svg"><path fill-rule="evenodd" clip-rule="evenodd" d="M9.89279 13.6668H4.1059C1.84925 13.6668 0.333008 12.0831 0.333008 9.72624V4.27408C0.333008 1.91721 1.84925 0.333496 4.1059 0.333496H6.55798C6.82949 0.333496 7.04984 0.553838 7.04984 0.825332C7.04984 1.09682 6.82949 1.31717 6.55798 1.31717H4.1059C2.41128 1.31717 1.31673 2.4779 1.31673 4.27408V9.72624C1.31673 11.5224 2.41128 12.6832 4.1059 12.6832H9.89279C11.5874 12.6832 12.6826 11.5224 12.6826 9.72624V7.08476C12.6826 6.81327 12.903 6.59292 13.1745 6.59292C13.446 6.59292 13.6663 6.81327 13.6663 7.08476V9.72624C13.6663 12.0831 12.1494 13.6668 9.89279 13.6668Z"></path><path fill-rule="evenodd" clip-rule="evenodd" d="M7.14584 6.854C6.95095 6.65911 6.95095 6.34277 7.14584 6.14788L12.8141 0.479662C13.0089 0.284774 13.3253 0.284774 13.5202 0.479662C13.7151 0.67455 13.7151 0.990889 13.5202 1.18578L7.85196 6.854C7.65707 7.04888 7.34073 7.04888 7.14584 6.854Z"></path><path fill-rule="evenodd" clip-rule="evenodd" d="M9.82206 1.24977C9.72612 1.15384 9.66634 1.02074 9.66634 0.874079C9.66584 0.580257 9.90294 0.341182 10.1978 0.340679L13.1329 0.33415C13.4162 0.333146 13.6673 0.584275 13.6663 0.86755L13.6603 3.80276C13.6593 4.09708 13.4207 4.33465 13.1268 4.33415C12.8325 4.33314 12.5944 4.09507 12.5954 3.80075L12.5999 1.40045L10.1998 1.40547C10.0521 1.40647 9.91851 1.3462 9.82206 1.24977Z"></path></symbol><symbol id="client" width="20" height="20" viewBox="0 0 20 20" xmlns="http://www.w3.org/2000/svg"><path fill-rule="evenodd" clip-rule="evenodd" d="M11.3953 1.39535C10.7532 1.39535 10.2326 1.91595 10.2326 2.55814V18.6047H12.093V15.3488C12.093 14.0645 13.1342 13.0233 14.4186 13.0233C15.703 13.0233 16.7442 14.0645 16.7442 15.3488V18.6047H17.4419C18.0841 18.6047 18.6047 18.0841 18.6047 17.4419V2.55814C18.6047 1.91595 18.0841 1.39535 17.4419 1.39535H11.3953ZM15.3488 18.6047V15.3488C15.3488 14.8351 14.9324 14.4186 14.4186 14.4186C13.9049 14.4186 13.4884 14.8351 13.4884 15.3488V18.6047H15.3488ZM8.83721 18.6047V5.68873H2.55814C1.91595 5.68873 1.39535 6.20933 1.39535 6.85152V17.4419C1.39535 18.0841 1.91595 18.6047 2.55814 18.6047H3.25581V15.3488C3.25581 14.0645 4.29701 13.0233 5.5814 13.0233C6.86578 13.0233 7.90698 14.0645 7.90698 15.3488V18.6047H8.83721ZM6.51163 18.6047V15.3488C6.51163 14.8351 6.09515 14.4186 5.5814 14.4186C5.06764 14.4186 4.65116 14.8351 4.65116 15.3488V18.6047H6.51163ZM8.83721 4.29338H2.55814C1.14532 4.29338 0 5.4387 0 6.85152V17.4419C0 18.8547 1.14532 20 2.55814 20H17.4419C18.8547 20 20 18.8547 20 17.4419V2.55814C20 1.14532 18.8547 0 17.4419 0H11.3953C9.98253 0 8.83721 1.14532 8.83721 2.55814V4.29338ZM12.093 3.95349C12.093 3.56817 12.4054 3.25581 12.7907 3.25581H16.0465C16.4318 3.25581 16.7442 3.56817 16.7442 3.95349C16.7442 4.3388 16.4318 4.65116 16.0465 4.65116H12.7907C12.4054 4.65116 12.093 4.3388 12.093 3.95349ZM12.093 7.2093C12.093 6.82399 12.4054 6.51163 12.7907 6.51163H16.0465C16.4318 6.51163 16.7442 6.82399 16.7442 7.2093C16.7442 7.59462 16.4318 7.90698 16.0465 7.90698H12.7907C12.4054 7.90698 12.093 7.59462 12.093 7.2093ZM3.25581 9.76744C3.25581 8.48306 4.29701 7.44186 5.5814 7.44186C6.86578 7.44186 7.90698 8.48306 7.90698 9.76744C7.90698 11.0518 6.86578 12.093 5.5814 12.093C4.29701 12.093 3.25581 11.0518 3.25581 9.76744ZM5.5814 8.83721C5.06764 8.83721 4.65116 9.25369 4.65116 9.76744C4.65116 10.2812 5.06764 10.6977 5.5814 10.6977C6.09515 10.6977 6.51163 10.2812 6.51163 9.76744C6.51163 9.25369 6.09515 8.83721 5.5814 8.83721ZM12.093 10.9302C12.093 10.5449 12.4054 10.2326 12.7907 10.2326H16.0465C16.4318 10.2326 16.7442 10.5449 16.7442 10.9302C16.7442 11.3155 16.4318 11.6279 16.0465 11.6279H12.7907C12.4054 11.6279 12.093 11.3155 12.093 10.9302Z"></path></symbol><symbol id="table-view" width="18" height="20" viewBox="0 0 18 20" xmlns="http://www.w3.org/2000/svg"><path fill-rule="evenodd" clip-rule="evenodd" d="M4.7031 14.2877C4.7031 13.8716 5.03584 13.5343 5.44629 13.5343H12.6007C13.0112 13.5343 13.3439 13.8716 13.3439 14.2877C13.3439 14.7037 13.0112 15.041 12.6007 15.041H5.44629C5.03584 15.041 4.7031 14.7037 4.7031 14.2877Z"></path><path fill-rule="evenodd" clip-rule="evenodd" d="M4.7031 10.0822C4.7031 9.66614 5.03584 9.32884 5.44629 9.32884H12.6007C13.0112 9.32884 13.3439 9.66614 13.3439 10.0822C13.3439 10.4983 13.0112 10.8356 12.6007 10.8356H5.44629C5.03584 10.8356 4.7031 10.4983 4.7031 10.0822Z"></path><path fill-rule="evenodd" clip-rule="evenodd" d="M4.7032 5.88655C4.7032 5.47046 5.03594 5.13316 5.44639 5.13316H8.17637C8.58682 5.13316 8.91955 5.47046 8.91955 5.88655C8.91955 6.30263 8.58682 6.63994 8.17637 6.63994H5.44639C5.03594 6.63994 4.7032 6.30263 4.7032 5.88655Z"></path><path fill-rule="evenodd" clip-rule="evenodd" d="M12.7914 -0.000244141C14.3376 -0.000244021 15.6588 0.517034 16.5927 1.49409C17.5237 2.46823 18.0006 3.8268 18.0006 5.38097V14.6185C18.0006 16.1654 17.5272 17.5179 16.6038 18.4904C15.6776 19.4659 14.367 19.9871 12.8326 19.9967L12.828 19.9967L5.20951 19.9998C3.66324 19.9998 2.3416 19.4825 1.40798 18.5053C0.477188 17.5312 0.000610352 16.1726 0.000610352 14.6185V5.38097C0.000610352 3.83426 0.473729 2.48197 1.39693 1.50959C2.3229 0.534295 3.63337 0.0133682 5.16763 0.00378838L5.1722 0.00375976L12.7914 -0.000244141ZM12.7915 1.50654C12.7916 1.50654 12.7915 1.50654 12.7915 1.50654L5.17678 1.51054C5.17611 1.51054 5.17544 1.51055 5.17477 1.51055C3.97509 1.51848 3.07204 1.91811 2.46787 2.55447C1.86061 3.19408 1.48699 4.14516 1.48699 5.38097V14.6185C1.48699 15.8611 1.86359 16.8164 2.47565 17.457C3.08485 18.0946 3.99632 18.4929 5.20866 18.493C5.2086 18.493 5.20873 18.493 5.20866 18.493L12.8234 18.49C12.8241 18.49 12.8247 18.49 12.8254 18.49C14.025 18.4821 14.9284 18.0822 15.5329 17.4455C16.1404 16.8056 16.5142 15.8542 16.5142 14.6185V5.38097C16.5142 4.13855 16.1375 3.18321 15.5252 2.54259C14.9157 1.90493 14.0038 1.5066 12.7915 1.50654Z"></path></symbol><symbol id="last-page" width="24" height="24" viewBox="0 0 24 24" xmlns="http://www.w3.org/2000/svg"><path d="M5.2459 19.7589C4.94784 19.4667 4.92074 19.0095 5.16461 18.6873L5.2459 18.595L11.9734 12L5.2459 5.40503C4.94784 5.11283 4.92074 4.65558 5.16461 4.33338L5.2459 4.24106C5.54396 3.94886 6.01037 3.9223 6.33904 4.16137L6.43321 4.24106L13.7541 11.418C14.0522 11.7102 14.0793 12.1675 13.8354 12.4897L13.7541 12.582L6.4332 19.7589C6.10534 20.0804 5.57376 20.0804 5.2459 19.7589Z"></path><path fill-rule="evenodd" clip-rule="evenodd" d="M16.75 4C17.1642 4 17.5 4.33579 17.5 4.75L17.5 19.25C17.5 19.6642 17.1642 20 16.75 20C16.3358 20 16 19.6642 16 19.25L16 4.75C16 4.33579 16.3358 4 16.75 4Z"></path></symbol><symbol id="sign-out" width="16" height="18" viewBox="0 0 16 18" xmlns="http://www.w3.org/2000/svg"><path d="M1.2 9.29971C1.2 13.0493 4.2504 16.0997 8 16.0997C11.7496 16.0997 14.8 13.0493 14.8 9.29971C14.8 7.42181 14.0349 5.7193 12.8 4.48751C12.8 4.48751 12.4297 4.07001 12.8 3.69969C13.2 3.29967 13.6426 3.63393 13.6426 3.63393C15.098 5.08345 16 7.08823 16 9.29971C16 13.7109 12.4112 17.2997 8 17.2997C3.5888 17.2997 0 13.7109 0 9.29971C0 7.09064 0.900019 5.08783 2.35263 3.63869C2.35263 3.63869 2.80003 3.29967 3.2 3.69969C3.50589 4.00561 3.2 4.48751 3.2 4.48751C1.96512 5.7193 1.2 7.42181 1.2 9.29971Z"></path><path fill-rule="evenodd" clip-rule="evenodd" d="M8 0.699707C8.33137 0.699707 8.6 0.968336 8.6 1.29971V9.29971C8.6 9.63108 8.33137 9.89971 8 9.89971C7.66863 9.89971 7.4 9.63108 7.4 9.29971V1.29971C7.4 0.968336 7.66863 0.699707 8 0.699707Z"></path></symbol></svg>